<svg width="140" height="176" viewBox="0 0 140 176" fill="none" xmlns="http://www.w3.org/2000/svg">
<path d="M65.481 35.2365C66.2262 34.6349 66.3464 33.5462 65.7454 32.8003C65.1444 32.0544 64.0565 31.9401 63.3112 32.5356C46.9872 45.673 36.6375 65.5175 34.9245 86.9801C34.7442 89.2599 34.7022 91.6179 34.8043 93.9879C34.8464 94.9203 35.6097 95.6421 36.5293 95.6421C36.5533 95.6421 36.5834 95.6421 36.6074 95.6421C37.5631 95.6 38.3023 94.794 38.2603 93.8375C38.1641 91.6059 38.2002 89.3922 38.3685 87.2568C40.0033 66.7386 49.8842 47.7784 65.4689 35.2304L65.481 35.2365Z" fill="#E8DFD3"/>
<path d="M47.4621 113.856C49.175 113.315 48.592 111.39 48.592 111.39C46.3983 104.124 44.6072 96.2136 45.2804 87.8102C46.4644 72.9704 52.4386 58.8285 62.1032 47.9769C62.7403 47.261 62.6742 46.1663 61.965 45.5286C61.2498 44.891 60.1559 44.9572 59.5188 45.667C49.3553 57.078 43.0746 71.9418 41.8304 87.5275C41.1092 96.5625 43.0085 104.894 45.3164 112.497C45.3164 112.497 45.7432 114.392 47.4681 113.85L47.4621 113.856Z" fill="#E8DFD3"/>
<path d="M34.2334 123.325C34.2815 123.475 34.4438 123.553 34.594 123.511L37.3528 122.651C37.503 122.603 37.5872 122.44 37.5391 122.29C37.5391 122.272 37.5271 122.26 37.521 122.242C34.3356 112.545 30.3748 100.478 31.4747 86.7094C32.0036 80.1046 33.3018 73.6562 35.3333 67.4424C35.6398 66.51 35.1109 65.5115 34.1733 65.2408C33.2717 64.9761 32.3341 65.4814 32.0396 66.3717C29.924 72.8441 28.5717 79.5572 28.0247 86.4327C26.8708 100.893 30.9518 113.327 34.2334 123.325Z" fill="#E8DFD3"/>
<path d="M35.9764 56.3141C35.3152 57.8059 34.2274 60.5789 34.2153 60.615C33.8307 61.4872 34.2214 62.5098 35.0989 62.9008C35.9764 63.2858 36.9921 62.8948 37.3828 62.0166C38.0439 60.5248 39.1318 57.7517 39.1438 57.7156C39.5285 56.8434 39.1378 55.8208 38.2603 55.4298C37.3828 55.0449 36.367 55.4358 35.9764 56.3141Z" fill="#E8DFD3"/>
<path d="M22.7897 127.271L29.2388 125.189C29.2388 125.189 31.0419 124.678 30.2245 122.194C30.2185 122.17 30.2065 122.14 30.2005 122.115C26.8227 111.829 23.3667 101.315 24.5808 86.156C26.0594 67.6108 33.0313 50.377 44.7334 36.3252C45.3464 35.5914 45.2443 34.4966 44.511 33.889C43.7777 33.2755 42.6839 33.3777 42.0708 34.1116C29.906 48.7168 22.6695 66.6183 21.1309 85.8853C19.9409 100.737 23.0061 111.222 26.2637 121.213C26.2757 121.249 26.2877 121.285 26.2938 121.321C26.2938 121.321 26.9188 123.072 25.1638 123.589C23.9377 123.956 23.3367 123.15 23.0963 122.675C19.7605 112.407 16.4489 100.972 17.681 85.6086C17.9514 82.246 18.3962 78.8655 19.0093 75.563C19.1836 74.6247 18.5645 73.7164 17.6209 73.5419C16.6833 73.3675 15.7757 73.987 15.6014 74.9314C14.9643 78.3541 14.5015 81.8551 14.2251 85.3379C12.8427 102.578 16.9056 114.939 20.5719 126.116C20.5719 126.116 21.1008 127.812 22.7837 127.283L22.7897 127.271Z" fill="#E8DFD3"/>
<path d="M67.9092 114.951C67.9092 114.951 68.3359 116.846 70.0609 116.305C70.169 116.269 70.2712 116.232 70.3614 116.184L76.5159 113.736C79.5211 112.81 75.8668 108.527 73.7873 98.0542C71.9842 84.8687 76.7383 74.5344 79.3348 71.6772L83.53 73.3133C84.3293 73.6261 85.285 73.3735 85.7357 72.6396C86.3248 71.6771 85.886 70.4621 84.8823 70.0711L79.8817 68.1642C78.5114 67.8213 77.0629 68.4048 76.3416 69.6259C67.23 85.0371 69.2495 97.2963 73.5829 109.983L70.3614 111.306C67.819 103.558 65.4269 96.2376 65.9739 89.4584C67.2 74.1133 75.4701 60.5609 88.0918 53.1981C90.8505 51.5921 92.5154 48.6325 92.3952 45.2279C92.3832 44.8248 92.3291 44.4218 92.2449 44.0248C90.8926 37.9072 84.2933 35.3688 79.3829 38.2321C65.2286 46.4851 54.7286 60.621 50.5574 77.0187C50.347 77.8368 50.7137 78.7391 51.483 79.088C52.4987 79.5452 53.6287 78.9737 53.8931 77.9391C55.2034 72.7719 57.1748 67.8394 59.7171 63.2738L62.542 65.2708L62.554 65.2528C58.7014 72.3027 56.2912 80.267 55.6301 88.6523C55.558 89.5787 56.2432 90.4028 57.1687 90.481C57.2349 90.481 57.295 90.493 57.3611 90.493C58.2566 90.493 59.0139 89.8073 59.086 88.899C60.4924 71.2922 70.0368 55.7065 84.6178 47.2009C85.5314 46.6655 85.7778 45.4204 85.0566 44.5722C84.5097 43.9225 83.542 43.8143 82.8087 44.2474C75.1336 48.7348 68.7686 55.0629 64.1167 62.57L64.1347 62.5399L61.2017 60.7534C66.2083 52.7049 73.036 45.9377 81.1319 41.2217C83.6021 39.778 86.7876 40.6201 88.23 43.0924C88.9272 44.2895 89.1196 45.691 88.7649 47.0325C88.4103 48.3739 87.5569 49.4987 86.3608 50.1965C72.7595 58.1307 63.8522 72.6998 62.536 89.1757C61.965 96.3038 64.2068 103.582 66.7191 111.258L67.9152 114.933L67.9092 114.951Z" fill="#E8DFD3"/>
<path d="M95.3462 122.416C94.4687 117.123 93.0503 111.92 91.9684 109.128C91.6138 108.208 90.6041 107.769 89.7145 108.13C88.831 108.491 88.3983 109.501 88.7409 110.392C89.7686 113.044 91.0729 118.049 91.9504 123.12C95.1058 141.28 91.163 152.475 88.218 158.267C87.7552 159.176 88.1458 160.289 89.0714 160.728C89.9369 161.137 90.9767 160.806 91.4395 159.964C93.1404 156.86 96.6745 148.709 96.6624 134.591C96.6624 131.602 96.1396 126.982 95.3402 122.416H95.3462Z" fill="#E8DFD3"/>
<path d="M85.5074 107.077L89.0474 106.211C90.508 106.043 90.1293 104.93 90.1293 104.93C88.6267 99.7626 86.6854 93.7774 86.6794 91.1246C86.6614 86.4327 89.4021 81.1813 89.4021 81.1813C89.7687 80.2971 89.354 79.2745 88.4644 78.9075L81.9973 76.5255C81.1319 76.1225 80.1041 76.5014 79.7014 77.3676C77.8322 81.4039 76.6963 85.753 76.3356 90.3005C76.0351 94.0421 77.2853 98.8122 78.9201 103.991C79.3528 105.363 79.8096 106.758 80.2784 108.178C83.9567 119.397 88.8611 134.345 84.131 150.442C83.8726 151.326 84.3594 152.258 85.2249 152.559C86.1625 152.884 87.1843 152.354 87.4607 151.404C92.1848 135.385 87.9836 120.696 84.2813 109.297C83.9687 108.34 84.5397 107.318 85.5194 107.077H85.5074ZM82.1717 103.306C82.1176 103.119 82.0575 102.939 82.0034 102.758L80.9936 98.8122C80.9936 98.8122 80.9876 98.8122 80.9816 98.8122C80.1221 95.6361 79.5992 92.7969 79.7735 90.5772C79.9719 88.123 80.4166 85.7349 81.0958 83.4311H81.1078C81.228 83.01 81.3663 82.5709 81.4985 82.1618C81.6007 81.8671 81.7028 81.5723 81.811 81.2836C82.3159 80.0324 83.1874 79.8159 84.0288 80.1226C84.8823 80.4354 85.5374 81.0971 85.1347 82.2761V82.2882C84.9965 82.6671 84.8523 83.0882 84.708 83.5514C84.6359 83.7619 84.5698 83.9845 84.4976 84.213H84.5097C83.9988 85.9695 83.4999 88.2012 83.2295 90.8539C83.0071 93.0856 84.0409 97.6151 85.1888 101.381L85.3872 102.091C85.6757 102.999 85.1948 103.979 84.2933 104.292C83.4398 104.587 82.5142 104.16 82.1717 103.306Z" fill="#E8DFD3"/>
<path d="M106.507 108.298C106.507 108.298 106.399 107.655 106.063 106.77C106.051 106.734 106.039 106.698 106.021 106.662C105.143 104.424 102.859 100.839 97.3957 102.217L102.228 100.984C102.559 100.918 102.895 100.785 103.19 100.274C103.55 99.6603 103.592 98.9024 103.37 98.2227C102.667 96.0632 102.09 94.2466 101.663 92.8089C100.846 90.0779 101.122 87.2026 102.372 84.8627C102.775 84.1108 102.577 83.1844 101.897 82.6671C101.062 82.0295 99.8359 82.2701 99.3371 83.2025C97.6482 86.3485 97.2695 90.1742 98.3514 93.8014C98.5076 94.3308 98.6879 94.9143 98.8803 95.5398C99.1928 96.5444 98.4475 97.567 97.3957 97.567C96.5603 97.567 95.6708 96.9113 95.4304 96.1113C95.3041 95.6902 95.1839 95.2692 95.0517 94.8601C93.2486 89.4463 94.4807 85.0612 95.815 82.3423C96.1997 81.5603 95.9052 80.6219 95.1599 80.1708C94.2944 79.6534 93.1825 80.0083 92.7618 80.9227C90.6522 85.4642 90.2495 90.8118 91.74 95.8466C92.3951 98.0542 93.1705 100.424 93.6874 101.988C97.9186 114.885 105.005 136.462 95.196 159.386C94.3425 161.377 93.3929 163.344 92.3711 165.233C91.9804 165.961 92.0766 166.887 92.7017 167.429C93.0443 167.729 93.453 167.868 93.8496 167.868C94.4627 167.868 95.0577 167.543 95.3702 166.96C96.4581 164.956 97.4678 162.863 98.3754 160.752C107.565 139.271 102.751 119.192 98.4956 105.621L98.5317 105.609L98.6218 105.579C99.2048 105.405 101.783 104.852 102.979 108.515C106.537 120.936 110.18 139.476 102.661 159.392C102.39 160.108 102.559 160.956 103.172 161.425C103.508 161.684 103.887 161.804 104.253 161.804C104.951 161.804 105.612 161.377 105.87 160.686C113.636 140.179 110.144 121.207 106.513 108.304L106.507 108.298Z" fill="#E8DFD3"/>
<path d="M112.169 83.016C111.225 83.2506 110.654 84.201 110.889 85.1454L112.974 93.5187C113.173 94.3187 113.888 94.8541 114.675 94.8541C114.814 94.8541 114.958 94.836 115.102 94.8C116.046 94.5654 116.617 93.6149 116.382 92.6705L114.297 84.2972C114.062 83.3589 113.113 82.7814 112.169 83.016Z" fill="#E8DFD3"/>
<path d="M119.195 103.618C119.195 103.618 119.195 103.606 119.183 103.582C118.859 102.451 118.522 101.339 118.191 100.25C118.191 100.238 118.185 100.232 118.179 100.22C117.626 98.3911 115.829 99.0347 115.829 99.0347L115.156 99.2392L114.327 99.4919L112.656 100.003C112.482 100.057 112.301 100.087 112.127 100.087C111.484 100.087 110.883 99.7265 110.582 99.137C110.42 98.6497 110.264 98.1745 110.114 97.7114C109.519 95.9068 108.659 92.3156 108.076 90.0058C107.836 89.0553 106.85 88.4959 105.906 88.7726C105.017 89.0373 104.494 89.9516 104.722 90.8539C105.311 93.1818 106.213 96.9233 106.826 98.7941C107.205 99.949 107.613 101.188 108.028 102.5C108.262 103.233 108.942 103.703 109.675 103.703C109.849 103.703 110.029 103.673 110.204 103.618L115.114 102.103C115.114 102.103 115.126 102.109 115.138 102.115L115.914 104.749C118.919 115.222 121.461 127.601 120.83 140.324C120.812 140.57 120.794 140.805 120.776 141.04C120.716 142.068 120.632 143.091 120.523 144.107C120.457 144.697 120.391 145.286 120.307 145.882C120.175 146.856 119.291 147.524 118.348 147.38C118.282 147.368 118.221 147.356 118.155 147.338C117.314 147.109 116.761 146.285 116.875 145.407C116.953 144.847 117.019 144.288 117.08 143.728C117.092 143.602 117.104 143.476 117.116 143.355C118.017 133.298 117.049 122.771 114.201 111.426C113.996 110.602 113.245 109.977 112.397 110.037C111.286 110.115 110.564 111.162 110.823 112.19C113.732 123.752 114.627 134.405 113.521 144.546C113.497 144.763 113.473 144.98 113.443 145.196C113.365 146.387 113.485 148.908 115.745 149.972C115.745 149.972 115.763 149.978 115.769 149.984C115.835 150.014 115.908 150.044 115.98 150.075C116.004 150.087 116.034 150.093 116.058 150.105C116.106 150.123 116.154 150.141 116.202 150.159C116.767 150.351 117.452 150.369 118.264 150.466C124.472 151.193 124.244 141.106 124.25 140.973C124.995 127.535 122.321 114.536 119.177 103.618H119.195Z" fill="#E8DFD3"/>
<path d="M8.17269 128.853C8.34699 128.853 8.5273 128.829 8.7016 128.768C9.60916 128.474 10.114 127.499 9.81952 126.591C5.94888 114.506 2.55305 101.044 3.88133 84.4897C3.95947 83.5333 3.24424 82.7032 2.29461 82.625C1.35099 82.5588 0.509548 83.2626 0.431414 84.213C-0.938937 101.363 2.54705 115.222 6.52587 127.644C6.76027 128.377 7.43944 128.847 8.17269 128.847V128.853Z" fill="#E8DFD3"/>
<path d="M48.0151 146.249C47.4501 147.019 47.6184 148.108 48.3877 148.667C48.6942 148.89 49.0548 149.004 49.4094 149.004C49.9444 149.004 50.4673 148.757 50.8098 148.294C51.9458 146.736 52.8774 145.136 53.5626 143.53C56.6819 136.233 54.0314 128.149 50.6716 117.911C50.6716 117.911 50.2208 116.028 48.4899 116.545C46.7529 117.069 47.384 118.994 47.384 118.994C50.5153 128.534 52.9856 136.071 50.3771 142.171C49.7941 143.536 49.0007 144.907 48.0151 146.255V146.249Z" fill="#E8DFD3"/>
<path d="M14.0087 133.761C14.8381 133.286 15.1206 132.221 14.6458 131.397C14.171 130.567 13.1132 130.284 12.2838 130.759C11.5866 131.162 10.8293 131.59 10.0179 132.041C9.05021 132.576 8.09457 133.154 7.17499 133.743C6.36961 134.26 6.14122 135.331 6.6581 136.137C6.98867 136.648 7.54763 136.931 8.11861 136.931C8.43716 136.931 8.76171 136.841 9.05021 136.654C9.90367 136.101 10.7992 135.572 11.7008 135.066C12.5302 134.609 13.2995 134.17 14.0147 133.755L14.0087 133.761Z" fill="#E8DFD3"/>
<path d="M2.68526 79.076C2.7694 79.088 2.85355 79.094 2.93168 79.094C3.77913 79.094 4.5184 78.4684 4.64462 77.6082C6.25538 66.3175 9.56706 55.4238 14.4955 45.2158C14.9102 44.3557 14.5496 43.321 13.6901 42.9C12.8307 42.4849 11.7969 42.8458 11.3762 43.706C6.29144 54.2328 2.87759 65.4694 1.21273 77.115C1.08051 78.0654 1.73563 78.9376 2.67925 79.076H2.68526Z" fill="#E8DFD3"/>
<path d="M47.1976 140.799C49.2892 135.903 46.9993 128.919 44.0963 120.07C42.3834 114.855 40.448 108.948 39.276 102.542C39.1017 101.603 38.2062 100.972 37.2626 101.152C36.325 101.327 35.6999 102.223 35.8682 103.167C37.0823 109.808 39.0597 115.835 40.8087 121.159C43.4833 129.31 45.5929 135.746 44.0122 139.44C41.3376 145.695 32.1117 151.458 23.4449 156.276C22.6094 156.74 22.3089 157.792 22.7717 158.628C23.0903 159.2 23.6793 159.519 24.2863 159.519C24.5688 159.519 24.8573 159.446 25.1218 159.302C34.3055 154.201 44.1083 148.017 47.1916 140.805L47.1976 140.799Z" fill="#E8DFD3"/>
<path d="M29.359 140.384C36.0485 136.312 32.7308 127.367 30.2245 128.353C28.6618 128.967 29.3771 131.223 29.6896 132.035C29.8339 132.414 29.942 132.811 29.9661 133.214C30.0622 134.579 29.4913 135.915 28.3974 136.775C28.0728 137.033 27.7122 137.304 27.3155 137.593C24.7191 139.494 21.161 141.701 16.7314 144.162C15.7938 144.685 14.8622 145.256 13.9726 145.852C13.1793 146.387 12.9749 147.464 13.5099 148.258C13.8464 148.751 14.3874 149.022 14.9463 149.022C15.2769 149.022 15.6195 148.926 15.914 148.727C16.7194 148.186 17.5608 147.668 18.4143 147.193C22.9641 144.667 26.4921 142.14 29.359 140.39V140.384Z" fill="#E8DFD3"/>
<path d="M60.1318 137.298C60.1318 137.298 60.1679 137.298 60.1859 137.298C61.1416 137.268 61.8929 136.468 61.8628 135.512C61.6705 129.226 59.5248 122.675 57.2469 115.739C54.374 106.993 51.4109 97.952 52.1742 88.3576C52.2523 87.4072 51.5431 86.571 50.5875 86.4928C49.6378 86.4267 48.8024 87.1305 48.7243 88.0809C47.9009 98.367 50.9781 107.751 53.9593 116.822C56.153 123.511 58.2266 129.827 58.4009 135.614C58.4309 136.552 59.2002 137.292 60.1318 137.292V137.298Z" fill="#E8DFD3"/>
<path d="M40.8327 138.074C41.5179 136.474 41.0131 133.545 39.4323 128.275C39.4323 128.275 38.9155 125.328 36.902 125.983C34.9667 126.615 35.9944 128.847 35.9944 128.847C37.0222 132.251 37.9358 135.722 37.6473 136.709C35.5437 141.629 23.9077 148.09 20.0851 150.213C19.5082 150.532 18.9312 150.881 18.3662 151.248C17.5608 151.765 17.3324 152.836 17.8493 153.642C18.1799 154.153 18.7388 154.436 19.3038 154.436C19.6224 154.436 19.9529 154.345 20.2414 154.159C20.7403 153.834 21.2511 153.527 21.762 153.245C29.4432 148.98 38.5488 143.404 40.8267 138.074H40.8327Z" fill="#E8DFD3"/>
<path d="M23.5951 136.396C24.4125 135.897 24.665 134.832 24.1661 134.014C23.6673 133.196 22.6034 132.943 21.786 133.442C20.2173 134.405 15.2829 137.039 13.3716 138.098C12.3018 138.694 11.25 139.337 10.2402 140.011C9.44687 140.54 9.2305 141.617 9.76542 142.411C10.102 142.91 10.6489 143.181 11.2079 143.181C11.5385 143.181 11.875 143.085 12.1695 142.886C13.0951 142.267 14.0688 141.671 15.0545 141.124C17.0078 140.035 21.9844 137.382 23.5951 136.396Z" fill="#E8DFD3"/>
<path d="M121.161 33.7026C121.161 33.7026 121.695 35.6395 123.571 35.0019C125.236 34.4364 124.43 32.5657 124.43 32.5657C123.631 30.1114 122.567 27.7234 121.245 25.4496C120.764 24.6255 119.706 24.3428 118.877 24.824C118.053 25.3052 117.771 26.3639 118.252 27.194C119.466 29.2753 120.433 31.4589 121.161 33.7026Z" fill="#E8DFD3"/>
<path d="M126.005 79.1602C125.488 79.882 125.608 80.8746 126.257 81.452C126.305 81.4941 126.353 81.5362 126.408 81.5723C127.189 82.1257 128.265 81.9453 128.824 81.1693C129.16 80.6941 129.497 80.2189 129.821 79.7437C132.808 75.4006 135.549 70.7688 138.2 65.5716C138.632 64.7174 138.296 63.6768 137.448 63.2437C136.595 62.8106 135.555 63.1475 135.122 63.9956C132.544 69.0545 129.875 73.5599 126.972 77.7767C126.654 78.2399 126.335 78.697 126.005 79.1602Z" fill="#E8DFD3"/>
<path d="M115.757 53.1861C115.685 53.4989 115.607 53.8057 115.529 54.1185C115.288 55.0449 115.835 55.9892 116.761 56.2359C116.911 56.272 117.055 56.296 117.2 56.296C117.969 56.296 118.666 55.7787 118.871 55.0027C118.961 54.6599 119.045 54.323 119.123 53.9801C121.239 44.9151 119.82 35.4771 115.126 27.4166C114.645 26.5925 113.588 26.3098 112.758 26.791C111.935 27.2722 111.652 28.3309 112.133 29.161C116.382 36.4576 117.663 44.9933 115.751 53.1921L115.757 53.1861Z" fill="#E8DFD3"/>
<path d="M65.4449 14.2972C58.7975 18.1771 52.661 22.9292 47.2157 28.4392C46.5425 29.1189 46.5485 30.2137 47.2277 30.8874C47.5643 31.2243 48.003 31.3867 48.4478 31.3867C48.8925 31.3867 49.3373 31.2182 49.6799 30.8754C54.9089 25.5879 60.805 21.0163 67.1939 17.2928C72.2126 14.3634 77.9344 12.8174 83.7403 12.8174C92.9782 12.8174 101.855 16.7575 108.094 23.6209C108.737 24.3307 109.831 24.3788 110.54 23.7352C111.25 23.0916 111.298 21.9968 110.654 21.287C103.755 13.7017 93.9458 9.35262 83.7403 9.35262C77.3213 9.35262 70.9985 11.061 65.451 14.2972H65.4449Z" fill="#E8DFD3"/>
<path d="M16.0943 59.4962C16.4068 58.5939 15.926 57.6074 15.0184 57.2946C14.1109 56.9818 13.1312 57.463 12.8187 58.3713C9.89764 66.8709 8.04647 75.7555 7.32523 84.7725C6.06307 100.563 9.39278 113.778 12.8247 124.624C13.0591 125.364 13.7382 125.833 14.4715 125.833C14.6458 125.833 14.8201 125.809 14.9944 125.749C15.908 125.46 16.4128 124.485 16.1243 123.577C12.6263 112.521 9.56107 100.202 10.7751 85.0432C11.4723 76.315 13.2574 67.7191 16.0883 59.4962H16.0943Z" fill="#E8DFD3"/>
<path d="M32.4303 28.4813C32.9292 28.4813 33.422 28.2647 33.7646 27.8497C41.2414 18.7726 50.1427 11.1933 60.222 5.31635C61.4721 4.5885 62.7704 3.90877 64.0806 3.30122C64.9461 2.8982 65.3247 1.86958 64.9221 1.00338C64.5194 0.137176 63.4916 -0.241789 62.6261 0.161236C61.2197 0.816904 59.8253 1.54476 58.479 2.32675C48.0511 8.40822 38.8373 16.2582 31.096 25.6481C30.489 26.388 30.5912 27.4767 31.3304 28.0843C31.655 28.3489 32.0457 28.4813 32.4303 28.4813Z" fill="#E8DFD3"/>
<path d="M16.491 53.4628C16.7134 53.5591 16.9417 53.6012 17.1701 53.6012C17.8433 53.6012 18.4804 53.2102 18.7629 52.5485C21.8582 45.3001 25.7829 38.4306 30.4229 32.1266C30.9878 31.3566 30.8256 30.2738 30.0562 29.7024C29.2869 29.137 28.2051 29.2994 27.6341 30.0693C22.8319 36.5899 18.7749 43.694 15.5714 51.183C15.1988 52.0613 15.6015 53.0779 16.485 53.4568L16.491 53.4628Z" fill="#E8DFD3"/>
<path d="M17.6449 66.1491C17.3865 67.0694 17.9214 68.0259 18.841 68.2845C18.9972 68.3266 19.1535 68.3507 19.3098 68.3507C20.0671 68.3507 20.7583 67.8514 20.9746 67.0875C27.6401 43.297 42.8161 23.4886 63.7019 11.3076C69.7784 7.76458 76.7022 5.89382 83.7283 5.89382C84.6839 5.89382 85.4593 5.11784 85.4593 4.16141C85.4593 3.20498 84.6839 2.429 83.7283 2.429C76.0892 2.429 68.5583 4.46217 61.959 8.31798C40.2918 20.9561 24.5508 41.4924 17.6389 66.1551L17.6449 66.1491Z" fill="#E8DFD3"/>
<path d="M14.5015 40.6863C14.748 40.8187 15.0124 40.8908 15.2769 40.8969C15.908 40.9149 16.527 40.5901 16.8516 39.9946C18.2279 37.4681 19.7245 34.9598 21.2872 32.5476C21.8041 31.7476 21.5757 30.6709 20.7763 30.1535C19.9769 29.6302 18.9011 29.8648 18.3842 30.6648C16.7734 33.1492 15.2348 35.7357 13.8164 38.3343C13.3596 39.1765 13.6661 40.2232 14.5076 40.6863H14.5015Z" fill="#E8DFD3"/>
<path d="M114.549 153.317C113.732 153.166 112.878 153.834 112.632 154.797C111.171 160.529 109.272 165.588 106.946 170.238C106.694 170.743 106.429 171.248 106.159 171.76C105.738 172.554 105.9 173.462 106.513 173.883C106.561 173.913 106.61 173.943 106.658 173.967C107.391 174.34 108.365 173.955 108.827 173.083C109.11 172.554 109.386 172.024 109.651 171.495C112.085 166.641 114.068 161.359 115.589 155.38C115.835 154.394 115.367 153.467 114.549 153.323V153.317Z" fill="#E8DFD3"/>
<path d="M128.337 118.428C129.28 118.272 129.918 117.381 129.761 116.437C129.665 115.86 129.569 115.288 129.467 114.723C128.529 109.531 123.553 93.254 121.78 87.7019C121.485 86.7876 120.511 86.2883 119.604 86.5831C118.696 86.8778 118.191 87.8523 118.486 88.7606C120.217 94.1684 125.151 110.307 126.065 115.342C126.167 115.89 126.263 116.443 126.353 117.002C126.498 117.881 127.279 118.494 128.15 118.452C128.217 118.452 128.277 118.44 128.343 118.434L128.337 118.428Z" fill="#E8DFD3"/>
<path d="M121.161 153.245C120.217 152.968 119.291 153.557 119.063 154.52C118.865 155.338 118.636 156.198 118.36 157.106C118.029 158.189 117.711 159.272 117.404 160.319C117.14 161.239 117.638 162.195 118.546 162.508C119.129 162.707 119.736 162.58 120.181 162.213C120.427 162.009 120.626 161.726 120.728 161.377C121.028 160.367 121.347 159.326 121.677 158.292C121.978 157.341 122.23 156.433 122.447 155.579C122.699 154.586 122.116 153.521 121.173 153.245H121.161Z" fill="#E8DFD3"/>
<path d="M129.629 89.4283C129.22 88.4719 128.181 88.0208 127.309 88.3937C126.432 88.7787 126.053 89.8675 126.462 90.8239C133.506 107.426 134.996 122.368 135.561 136.047C135.603 137.076 136.421 137.918 137.382 137.924C137.569 137.924 137.749 137.894 137.911 137.839C138.602 137.605 139.083 136.901 139.047 136.071C138.47 122.013 136.926 106.632 129.629 89.4283Z" fill="#E8DFD3"/>
<path d="M128.517 121.147C127.568 121.255 126.888 122.115 126.997 123.066C127.652 128.708 127.928 133.942 127.85 139.061C127.844 139.62 127.826 140.179 127.808 140.745C127.778 141.635 128.427 142.387 129.286 142.513C129.353 142.525 129.413 142.525 129.479 142.531C130.434 142.562 131.234 141.81 131.264 140.853C131.282 140.27 131.294 139.686 131.306 139.115C131.39 133.845 131.102 128.462 130.434 122.669C130.326 121.718 129.467 121.039 128.517 121.147Z" fill="#E8DFD3"/>
<path d="M59.9275 146.255C60.3061 145.377 59.8974 144.36 59.0199 143.981C58.1424 143.602 57.1267 144.011 56.748 144.889C53.7248 151.963 47.3359 158.165 36.0425 164.999C35.2251 165.492 34.9607 166.557 35.4595 167.375C35.7841 167.916 36.355 168.211 36.9441 168.211C37.2506 168.211 37.5571 168.133 37.8396 167.958C45.8874 163.092 55.6722 156.222 59.9335 146.249L59.9275 146.255Z" fill="#E8DFD3"/>
<path d="M66.2864 148.98C71.4673 136.871 67.5786 125.033 63.8222 113.58C62.2595 108.822 60.6487 103.907 59.7412 99.0889C59.5669 98.1505 58.6593 97.5309 57.7217 97.7054C56.7841 97.8798 56.165 98.7881 56.3393 99.7265C57.289 104.767 58.9358 109.796 60.5345 114.656C64.2549 125.995 67.7709 136.709 63.1069 147.608C59.8674 155.182 53.6647 161.798 43.5794 168.433C42.7801 168.957 42.5577 170.033 43.0866 170.833C43.4172 171.339 43.9701 171.615 44.5351 171.615C44.8596 171.615 45.1902 171.525 45.4847 171.333C56.165 164.307 62.7764 157.203 66.2924 148.98H66.2864Z" fill="#E8DFD3"/>
<path d="M46.7769 150.448C46.1218 149.756 45.0219 149.726 44.3307 150.387C40.8267 153.726 36.2168 156.962 29.3771 160.878C28.5476 161.353 28.2591 162.412 28.734 163.242C29.0525 163.801 29.6355 164.114 30.2365 164.114C30.525 164.114 30.8255 164.042 31.096 163.886C38.1822 159.825 42.9964 156.433 46.7108 152.896C47.402 152.234 47.432 151.139 46.7709 150.448H46.7769Z" fill="#E8DFD3"/>
<path d="M72.6513 151.705C77.6519 140.011 75.5122 128.642 73.0901 120.04C72.8316 119.12 71.876 118.584 70.9564 118.843C70.0368 119.102 69.5019 120.058 69.7603 120.979C72.1705 129.532 74.0217 139.704 69.4719 150.339C66.2323 157.913 60.5165 164.668 51.9999 170.996C51.2306 171.567 51.0743 172.65 51.6393 173.42C51.9758 173.877 52.4987 174.118 53.0276 174.118C53.3883 174.118 53.7489 174.009 54.0554 173.775C63.0769 167.074 69.1593 159.849 72.6453 151.699L72.6513 151.705Z" fill="#E8DFD3"/>
<path d="M80.5729 121.237C80.2604 119.986 78.7337 119.505 77.7601 120.347C77.2672 120.774 77.0508 121.442 77.2071 122.079C79.5511 131.56 80.5128 142.134 75.8368 153.07C72.7835 160.204 68.0234 166.538 61.2858 172.427C60.5646 173.059 60.4924 174.148 61.1235 174.87C61.4661 175.261 61.9469 175.465 62.4278 175.465C62.8305 175.465 63.2392 175.327 63.5637 175.038C70.6979 168.8 75.7526 162.063 79.0162 154.436C84.1009 142.543 83.0672 131.265 80.5729 121.243V121.237Z" fill="#E8DFD3"/>
<path d="M88.4164 163.128C87.5749 162.623 86.5291 162.965 86.0663 163.838C85.6757 164.577 85.2369 165.359 84.7441 166.166C84.1551 167.134 83.5781 168.096 83.0191 169.041C82.5323 169.865 82.7787 170.918 83.5781 171.447C84.0889 171.784 84.714 171.814 85.2309 171.567C85.5254 171.429 85.7839 171.2 85.9642 170.894C86.5111 169.991 87.0761 169.065 87.647 168.139C88.1699 167.29 88.6448 166.478 89.0655 165.702C89.5583 164.8 89.2578 163.627 88.4164 163.122V163.128Z" fill="#E8DFD3"/>
<path d="M123.456 72.5975C124.25 73.2712 125.458 73.0907 126.029 72.2185C128.74 68.0559 130.843 63.4783 132.244 58.5879C132.508 57.6675 131.973 56.7111 131.054 56.4464C130.134 56.1817 129.178 56.7171 128.914 57.6374C127.61 62.191 125.656 66.4559 123.132 70.3297C122.651 71.0636 122.789 72.0381 123.456 72.6035V72.5975Z" fill="#E8DFD3"/>
<path d="M92.3651 75.7375C92.6837 75.7375 93.0022 75.6533 93.2907 75.4728C93.3508 75.4367 93.459 75.3766 93.6033 75.2984C99.4573 72.0441 104.157 67.8755 107.487 63.1054C109.651 60.1458 111.231 56.8254 112.181 53.2282C114.183 45.6249 113.113 37.6907 109.152 30.8934C103.899 21.8765 94.1562 16.2762 83.7283 16.2762C78.5354 16.2762 73.4146 17.6598 68.9249 20.2824C56.4235 27.573 46.0016 38.202 38.7832 51.0206C38.3144 51.8568 38.6089 52.9094 39.4383 53.3786C40.2738 53.8478 41.3256 53.5531 41.7944 52.723C48.7122 40.4397 58.6954 30.2558 70.6679 23.2781C74.6287 20.9682 79.1485 19.7471 83.7283 19.7471C92.9301 19.7471 101.411 24.7578 106.159 32.6439C115.306 47.8445 105.864 65.2528 91.8963 72.2366C91.6319 72.3689 91.4576 72.4832 91.3794 72.5374C90.5801 73.0607 90.3637 74.1254 90.8746 74.9375C91.2051 75.4608 91.7761 75.7435 92.3591 75.7435L92.3651 75.7375Z" fill="#E8DFD3"/>
<path d="M100.022 78.7271C100.347 78.7271 100.671 78.6369 100.96 78.4564C101.423 78.1617 112.349 71.1538 116.785 62.3173C117.218 61.4511 116.869 60.3925 116.004 59.9594C115.138 59.5263 114.08 59.8751 113.648 60.7413C109.651 68.7056 99.1808 75.4247 99.0726 75.4969C98.2552 76.0142 98.0148 77.103 98.5317 77.921C98.8683 78.4504 99.4332 78.7391 100.016 78.7391L100.022 78.7271Z" fill="#E8DFD3"/>
<path d="M124.16 37.9012C123.204 38.0757 122.579 38.996 122.753 39.9464C124.761 50.78 122.429 60.591 115.835 69.1086C110.859 75.539 105.179 78.7933 105.119 78.8233C104.278 79.2985 103.977 80.3693 104.452 81.2114C104.776 81.7829 105.371 82.1077 105.984 82.1077C106.273 82.1077 106.567 82.0355 106.844 81.8851C107.096 81.7408 113.107 78.3181 118.522 71.3764C123.541 64.934 128.95 54.1426 126.203 39.3088C126.029 38.3584 125.115 37.7268 124.16 37.9012Z" fill="#E8DFD3"/>
<path d="M101.609 31.9882C89.2397 14.0506 68.0113 28.2828 67.801 28.4271C67.0016 28.9745 66.7972 30.0633 67.3442 30.8694C67.8911 31.6694 68.979 31.8739 69.7844 31.3325C70.5357 30.8212 88.3442 18.935 98.724 33.9913C109.272 49.2942 99.6436 58.0826 87.9355 66.4619C87.1482 67.0273 86.9678 68.1221 87.5268 68.9101C87.8694 69.3913 88.4103 69.644 88.9573 69.644C89.3119 69.644 89.6665 69.5357 89.979 69.3131C99.3371 62.6181 114.994 51.4056 101.615 31.9942L101.609 31.9882Z" fill="#E8DFD3"/>
<path d="M84.4976 153.936C83.5901 153.588 82.5804 154.045 82.2318 154.953C82.1957 155.043 78.7638 163.892 70.9624 171.796C70.2833 172.488 70.2893 173.6 70.9805 174.28C71.323 174.617 71.7678 174.785 72.2126 174.785C72.6573 174.785 73.1201 174.611 73.4627 174.262C81.775 165.835 85.3631 156.595 85.5134 156.204C85.862 155.296 85.4052 154.285 84.4976 153.936Z" fill="#E8DFD3"/>
<path d="M81.4023 65.4333C81.7509 65.8122 82.2197 66.0047 82.6946 66.0047C83.1213 66.0047 83.542 65.8543 83.8786 65.5415C86.4931 63.1414 91.8182 59.2255 91.8843 59.1774C92.6957 58.5758 93.4109 57.9563 94.0601 57.3367C96.0074 55.5922 97.534 53.4087 98.4175 50.9304C99.5655 47.9348 99.3732 45.6911 99.3551 45.5226C99.3491 45.4444 99.3251 45.3722 99.3131 45.3001C99.247 42.7135 98.5377 40.169 97.1974 37.8772C94.4147 33.101 89.2578 30.1355 83.7343 30.1355C80.9876 30.1355 78.277 30.8693 75.9029 32.2589C72.8677 34.0274 69.9467 36.0545 67.218 38.2922C66.4968 38.8817 66.2984 39.9645 66.8514 40.7164C67.4464 41.5224 68.5823 41.6548 69.3396 41.0292C71.9481 38.8877 74.7369 36.9448 77.6399 35.2545C79.4911 34.1778 81.5947 33.6063 83.7283 33.6063C88.0257 33.6063 92.0406 35.9102 94.1983 39.6276C95.8091 42.3947 96.2598 45.6189 95.4665 48.7167C94.9316 50.5755 93.6814 53.0959 90.8145 55.5381C90.4479 55.8028 90.0752 56.0554 89.6906 56.284C89.6906 56.284 84.1791 60.5007 81.4985 62.955C80.7833 63.6106 80.7352 64.7235 81.3903 65.4393L81.4023 65.4333Z" fill="#E8DFD3"/>
<path d="M117.771 82.7032C120.361 80.5618 122.543 78.1075 122.633 78.0053C123.276 77.2774 123.21 76.1706 122.483 75.527C121.756 74.8833 120.65 74.9495 120.007 75.6774C119.989 75.7014 117.909 78.0354 115.535 79.9963C114.79 80.6159 114.681 81.7227 115.3 82.4686C115.649 82.8897 116.148 83.1063 116.653 83.1063C117.043 83.1063 117.44 82.9739 117.771 82.7032Z" fill="#E8DFD3"/>
</svg>
