<svg width="191" height="101" viewBox="0 0 191 101" fill="none" xmlns="http://www.w3.org/2000/svg">
<path d="M46.4835 26.0714C46.8212 25.7977 46.8757 25.3024 46.6034 24.963C46.331 24.6237 45.838 24.5717 45.5003 24.8426C38.103 30.8194 33.413 39.8475 32.6368 49.6117C32.5551 50.6488 32.536 51.7216 32.5823 52.7998C32.6014 53.224 32.9473 53.5524 33.364 53.5524C33.3749 53.5524 33.3885 53.5524 33.3994 53.5524C33.8324 53.5332 34.1674 53.1665 34.1484 52.7314C34.1048 51.7161 34.1211 50.7091 34.1974 49.7376C34.9382 40.403 39.4158 31.7772 46.4781 26.0686L46.4835 26.0714Z" fill="#E8DFD3"/>
<path d="M38.3182 61.8391C39.0944 61.5928 38.8302 60.717 38.8302 60.717C37.8361 57.4112 37.0245 53.8126 37.3295 49.9895C37.8661 43.2383 40.5733 36.8046 44.9529 31.8677C45.2416 31.5421 45.2116 31.044 44.8902 30.7539C44.5661 30.4638 44.0704 30.4939 43.7817 30.8169C39.1761 36.0082 36.33 42.7704 35.7662 49.8609C35.4394 53.9713 36.3 57.7615 37.3459 61.2206C37.3459 61.2206 37.5393 62.0826 38.3209 61.8363L38.3182 61.8391Z" fill="#E8DFD3"/>
<path d="M32.3236 66.1461C32.3454 66.2146 32.4189 66.2501 32.487 66.231L33.7371 65.8396C33.8052 65.8177 33.8433 65.7439 33.8215 65.6754C33.8215 65.6672 33.8161 65.6618 33.8134 65.6535C32.3699 61.2421 30.575 55.7525 31.0734 49.4884C31.3131 46.4836 31.9014 43.55 32.822 40.723C32.9609 40.2989 32.7212 39.8446 32.2963 39.7214C31.8878 39.601 31.4629 39.8309 31.3295 40.2359C30.3708 43.1805 29.7579 46.2346 29.5101 49.3625C28.9872 55.9413 30.8365 61.5979 32.3236 66.1461Z" fill="#E8DFD3"/>
<path d="M33.1134 35.6605C32.8138 36.3392 32.3209 37.6008 32.3154 37.6172C32.1411 38.014 32.3181 38.4792 32.7158 38.6571C33.1134 38.8323 33.5737 38.6544 33.7507 38.2548C34.0503 37.5762 34.5433 36.3146 34.5487 36.2982C34.7231 35.9013 34.546 35.4361 34.1484 35.2582C33.7507 35.0831 33.2905 35.261 33.1134 35.6605Z" fill="#E8DFD3"/>
<path d="M27.1379 67.9416L30.0603 66.9947C30.0603 66.9947 30.8773 66.7621 30.5069 65.6319C30.5042 65.6209 30.4988 65.6072 30.496 65.5963C28.9654 60.9167 27.3993 56.1331 27.9495 49.2368C28.6195 40.7999 31.7789 32.9595 37.0817 26.5668C37.3595 26.2329 37.3132 25.7349 36.9809 25.4585C36.6486 25.1793 36.1529 25.2258 35.8751 25.5597C30.3626 32.2042 27.0834 40.3483 26.3861 49.1137C25.8469 55.8704 27.2359 60.6403 28.7121 65.1858C28.7175 65.2022 28.723 65.2186 28.7257 65.2351C28.7257 65.2351 29.009 66.0314 28.2137 66.2668C27.6581 66.4337 27.3857 66.067 27.2768 65.8508C25.7652 61.1794 24.2645 55.9771 24.8228 48.9878C24.9454 47.458 25.1469 45.9201 25.4247 44.4177C25.5037 43.9908 25.2232 43.5775 24.7956 43.4982C24.3707 43.4188 23.9594 43.7007 23.8804 44.1303C23.5917 45.6875 23.382 47.2802 23.2567 48.8647C22.6303 56.7078 24.4715 62.3315 26.1328 67.4161C26.1328 67.4161 26.3725 68.1879 27.1351 67.947L27.1379 67.9416Z" fill="#E8DFD3"/>
<path d="M47.5838 62.337C47.5838 62.337 47.7772 63.1991 48.5589 62.9528C48.6079 62.9364 48.6542 62.9199 48.6951 62.898L51.484 61.7842C52.8458 61.3628 51.1899 59.4143 50.2475 54.6499C49.4304 48.6513 51.5848 43.9498 52.7614 42.6499L54.6625 43.3942C55.0247 43.5365 55.4577 43.4216 55.662 43.0877C55.9289 42.6499 55.7301 42.0971 55.2753 41.9192L53.0092 41.0517C52.3883 40.8957 51.7319 41.1612 51.405 41.7167C47.2761 48.7279 48.1912 54.3051 50.1549 60.0766L48.6951 60.6786C47.543 57.1539 46.459 53.8235 46.7069 50.7393C47.2625 43.7582 51.0101 37.5926 56.7297 34.243C57.9798 33.5123 58.7342 32.1659 58.6798 30.617C58.6743 30.4337 58.6498 30.2503 58.6117 30.0697C57.9989 27.2866 55.0084 26.1317 52.7832 27.4343C46.3691 31.189 41.611 37.62 39.7208 45.08C39.6255 45.4522 39.7917 45.8627 40.1403 46.0214C40.6006 46.2294 41.1126 45.9694 41.2324 45.4987C41.8262 43.1479 42.7195 40.9039 43.8716 38.8268L45.1517 39.7354L45.1571 39.7272C43.4113 42.9345 42.3191 46.5578 42.0196 50.3726C41.9869 50.794 42.2974 51.1689 42.7168 51.2045C42.7467 51.2045 42.774 51.21 42.8039 51.21C43.2098 51.21 43.5529 50.898 43.5856 50.4848C44.2229 42.4747 48.548 35.3842 55.1554 31.5146C55.5694 31.2711 55.6811 30.7046 55.3543 30.3187C55.1064 30.0232 54.6679 29.9739 54.3356 30.1709C50.8576 32.2125 47.9733 35.0914 45.8653 38.5067L45.8734 38.493L44.5443 37.6802C46.8131 34.0186 49.9071 30.9399 53.5757 28.7944C54.6951 28.1376 56.1386 28.5208 56.7923 29.6455C57.1082 30.1901 57.1954 30.8277 57.0347 31.438C56.874 32.0483 56.4873 32.56 55.9453 32.8775C49.7818 36.487 45.7454 43.1151 45.149 50.6107C44.8902 53.8536 45.9061 57.1648 47.0446 60.6568L47.5866 62.3288L47.5838 62.337Z" fill="#E8DFD3"/>
<path d="M60.017 65.7331C59.6194 63.3248 58.9766 60.9577 58.4864 59.6879C58.3257 59.2692 57.8681 59.0694 57.465 59.2336C57.0647 59.3978 56.8686 59.8576 57.0238 60.2626C57.4896 61.4694 58.0806 63.7463 58.4782 66.0532C59.9081 74.3151 58.1214 79.4079 56.7869 82.0432C56.5771 82.4565 56.7542 82.9627 57.1736 83.1625C57.5658 83.3486 58.037 83.1981 58.2467 82.815C59.0175 81.4029 60.619 77.6948 60.6135 71.272C60.6135 69.9119 60.3766 67.8101 60.0143 65.7331H60.017Z" fill="#E8DFD3"/>
<path d="M55.5585 58.7548L57.1627 58.3607C57.8246 58.2841 57.653 57.7778 57.653 57.7778C56.9721 55.4271 56.0923 52.7042 56.0896 51.4973C56.0815 49.3628 57.3234 46.9737 57.3234 46.9737C57.4895 46.5714 57.3016 46.1062 56.8985 45.9393L53.9679 44.8556C53.5757 44.6722 53.11 44.8446 52.9275 45.2387C52.0805 47.075 51.5657 49.0535 51.4023 51.1224C51.2661 52.8246 51.8326 54.9947 52.5735 57.3509C52.7696 57.9749 52.9766 58.6098 53.189 59.2556C54.8558 64.3594 57.0783 71.1599 54.9348 78.483C54.8177 78.8853 55.0383 79.3095 55.4305 79.4463C55.8554 79.5941 56.3184 79.3533 56.4437 78.9209C58.5844 71.6333 56.6806 64.9505 55.0029 59.7646C54.8613 59.3295 55.12 58.8643 55.564 58.7548H55.5585ZM54.0469 57.039C54.0224 56.9541 53.9952 56.872 53.9707 56.7899L53.5131 54.9947C53.5131 54.9947 53.5104 54.9947 53.5077 54.9947C53.1182 53.5498 52.8812 52.2581 52.9602 51.2483C53.0501 50.1318 53.2516 49.0453 53.5594 47.9972H53.5649C53.6193 47.8056 53.682 47.6059 53.7419 47.4198C53.7882 47.2857 53.8345 47.1516 53.8835 47.0202C54.1123 46.451 54.5072 46.3525 54.8885 46.4921C55.2753 46.6344 55.5721 46.9354 55.3897 47.4718V47.4773C55.327 47.6497 55.2617 47.8412 55.1963 48.0519C55.1636 48.1477 55.1336 48.249 55.101 48.353H55.1064C54.8749 49.1521 54.6488 50.1673 54.5263 51.3742C54.4255 52.3895 54.894 54.4501 55.4142 56.1632L55.504 56.4862C55.6348 56.8994 55.4169 57.3455 55.0084 57.4878C54.6216 57.6219 54.2022 57.4276 54.0469 57.039Z" fill="#E8DFD3"/>
<path d="M65.0747 59.3104C65.0747 59.3104 65.0257 59.0176 64.8732 58.6153C64.8678 58.5989 64.8623 58.5824 64.8541 58.566C64.4565 57.548 63.4215 55.917 60.9458 56.5437L63.1356 55.9827C63.2854 55.9526 63.4379 55.8924 63.5713 55.6597C63.7347 55.3806 63.7538 55.0358 63.653 54.7266C63.3344 53.7441 63.0729 52.9177 62.8795 52.2636C62.5091 51.0212 62.6344 49.7131 63.2009 48.6486C63.3834 48.3065 63.2935 47.885 62.9858 47.6497C62.6072 47.3596 62.0516 47.4691 61.8255 47.8933C61.0602 49.3245 60.8886 51.065 61.3788 52.7152C61.4497 52.956 61.5314 53.2214 61.6185 53.506C61.7601 53.9631 61.4224 54.4283 60.9458 54.4283C60.5672 54.4283 60.1641 54.13 60.0552 53.766C59.998 53.5745 59.9435 53.3829 59.8836 53.1968C59.0665 50.7339 59.6248 48.7389 60.2295 47.5019C60.4038 47.1462 60.2703 46.7193 59.9326 46.514C59.5404 46.2787 59.0365 46.4401 58.8459 46.8561C57.8899 48.9222 57.7074 51.3551 58.3829 53.6456C58.6798 54.6499 59.0311 55.7282 59.2653 56.4397C61.1827 62.307 64.3939 72.1232 59.949 82.5524C59.5622 83.4582 59.1319 84.3531 58.6689 85.2124C58.4918 85.5435 58.5354 85.9649 58.8187 86.2112C58.9739 86.3481 59.1591 86.411 59.3389 86.411C59.6167 86.411 59.8863 86.2632 60.0279 85.9978C60.5209 85.0865 60.9785 84.1342 61.3897 83.1736C65.5541 73.4012 63.3725 64.2664 61.4442 58.0926L61.4605 58.0871L61.5014 58.0734C61.7656 57.9941 62.934 57.7423 63.476 59.4089C65.0884 65.06 66.7389 73.4942 63.3317 82.5551C63.2091 82.8808 63.2854 83.2666 63.5632 83.4801C63.7157 83.5978 63.8873 83.6525 64.0534 83.6525C64.3693 83.6525 64.6689 83.4582 64.786 83.1435C68.3049 73.8144 66.7225 65.1831 65.0775 59.3131L65.0747 59.3104Z" fill="#E8DFD3"/>
<path d="M67.6404 47.8085C67.2128 47.9152 66.954 48.3476 67.0603 48.7772L68.0053 52.5866C68.0952 52.9505 68.4193 53.1941 68.7761 53.1941C68.8388 53.1941 68.9041 53.1859 68.9695 53.1695C69.3971 53.0627 69.6558 52.6304 69.5496 52.2007L68.6045 48.3914C68.4983 47.9644 68.068 47.7017 67.6404 47.8085Z" fill="#E8DFD3"/>
<path d="M70.8243 57.1812C70.8243 57.1812 70.8243 57.1757 70.8188 57.1648C70.6717 56.6503 70.5192 56.144 70.3694 55.6487C70.3694 55.6432 70.3667 55.6405 70.364 55.635C70.1134 54.8031 69.2991 55.0959 69.2991 55.0959L68.994 55.1889L68.6182 55.3039L67.861 55.5365C67.782 55.5611 67.7003 55.5748 67.6213 55.5748C67.3299 55.5748 67.0575 55.4106 66.9214 55.1424C66.8478 54.9208 66.777 54.7046 66.7089 54.4938C66.4393 53.6729 66.0498 52.0391 65.7856 50.9883C65.6767 50.5559 65.23 50.3014 64.8024 50.4272C64.3993 50.5477 64.1624 50.9636 64.2659 51.3741C64.5328 52.4332 64.9413 54.1353 65.2191 54.9864C65.3907 55.5119 65.5759 56.0756 65.7638 56.6722C65.8701 57.0061 66.1778 57.2195 66.5101 57.2195C66.5891 57.2195 66.6708 57.2058 66.7498 57.1812L68.9749 56.4916C68.9749 56.4916 68.9804 56.4943 68.9858 56.497L69.3372 57.6957C70.699 62.4601 71.8511 68.0921 71.5651 73.88C71.5569 73.9922 71.5487 74.0989 71.5406 74.2056C71.5133 74.6736 71.4752 75.1388 71.4262 75.6013C71.3962 75.8695 71.3663 76.1377 71.3281 76.4086C71.2682 76.8519 70.8678 77.1557 70.4402 77.09C70.4103 77.0845 70.383 77.0791 70.3531 77.0709C69.9718 76.9669 69.7212 76.592 69.773 76.1924C69.8084 75.9379 69.8383 75.6834 69.8656 75.4289C69.871 75.3714 69.8764 75.314 69.8819 75.2592C70.2904 70.6836 69.8519 65.8946 68.561 60.7333C68.4684 60.3584 68.1279 60.0738 67.7439 60.1012C67.24 60.1367 66.9132 60.6129 67.0303 61.0809C68.3485 66.3406 68.7543 71.1872 68.2532 75.8011C68.2423 75.8996 68.2314 75.9981 68.2178 76.0966C68.1824 76.6385 68.2369 77.7851 69.2609 78.2695C69.2609 78.2695 69.2691 78.2722 69.2718 78.275C69.3018 78.2887 69.3345 78.3023 69.3671 78.316C69.378 78.3215 69.3917 78.3242 69.4025 78.3297C69.4243 78.3379 69.4461 78.3461 69.4679 78.3543C69.7239 78.4419 70.0344 78.4501 70.4021 78.4939C73.2156 78.825 73.1121 74.2357 73.1148 74.1755C73.4525 68.0619 72.2405 62.1481 70.8161 57.1812H70.8243Z" fill="#E8DFD3"/>
<path d="M20.5141 68.6612C20.5931 68.6612 20.6748 68.6503 20.7538 68.6229C21.165 68.4888 21.3938 68.0455 21.2603 67.6322C19.5064 62.1344 17.9675 56.0099 18.5694 48.4787C18.6048 48.0436 18.2807 47.666 17.8504 47.6304C17.4228 47.6003 17.0415 47.9205 17.0061 48.3528C16.3851 56.1549 17.9648 62.4601 19.7678 68.1112C19.874 68.445 20.1818 68.6585 20.5141 68.6585V68.6612Z" fill="#E8DFD3"/>
<path d="M38.5688 76.5758C38.3128 76.9261 38.389 77.4214 38.7376 77.6759C38.8765 77.7771 39.04 77.8291 39.2006 77.8291C39.443 77.8291 39.68 77.7169 39.8352 77.5062C40.35 76.7974 40.7722 76.0695 41.0826 75.3388C42.4962 72.0193 41.2951 68.3413 39.7726 63.6836C39.7726 63.6836 39.5683 62.8271 38.7839 63.0624C37.9968 63.3005 38.2828 64.1762 38.2828 64.1762C39.7018 68.5165 40.8212 71.9454 39.6391 74.7204C39.375 75.3416 39.0154 75.9655 38.5688 76.5785V76.5758Z" fill="#E8DFD3"/>
<path d="M23.1587 70.8942C23.5345 70.678 23.6625 70.1936 23.4474 69.8187C23.2322 69.4411 22.7529 69.3125 22.377 69.5287C22.0611 69.712 21.7179 69.9063 21.3502 70.1116C20.9117 70.3551 20.4787 70.6178 20.062 70.886C19.697 71.1214 19.5935 71.6085 19.8277 71.9752C19.9775 72.2078 20.2308 72.3364 20.4896 72.3364C20.6339 72.3364 20.781 72.2954 20.9117 72.2105C21.2985 71.9588 21.7043 71.7179 22.1128 71.4881C22.4887 71.2801 22.8373 71.0803 23.1614 70.8915L23.1587 70.8942Z" fill="#E8DFD3"/>
<path d="M18.0274 46.0158C18.0656 46.0213 18.1037 46.024 18.1391 46.024C18.5231 46.024 18.8581 45.7394 18.9153 45.3481C19.6453 40.2115 21.146 35.2555 23.3793 30.6114C23.5672 30.2201 23.4038 29.7494 23.0143 29.5578C22.6249 29.369 22.1564 29.5332 21.9658 29.9245C19.6616 34.7136 18.1146 39.8256 17.3602 45.1237C17.3002 45.5561 17.5971 45.9529 18.0247 46.0158H18.0274Z" fill="#E8DFD3"/>
<path d="M38.1984 74.0964C39.1462 71.8688 38.1085 68.6916 36.793 64.6661C36.0168 62.2934 35.1398 59.6061 34.6087 56.6916C34.5297 56.2647 34.1239 55.9773 33.6963 56.0594C33.2714 56.1388 32.9881 56.5465 33.0644 56.9762C33.6146 59.9974 34.5106 62.7395 35.3032 65.1614C36.5152 68.8695 37.4712 71.7977 36.7549 73.4779C35.5429 76.324 31.3621 78.9457 27.4347 81.1377C27.0561 81.3484 26.92 81.8273 27.1297 82.2077C27.274 82.4677 27.5409 82.6127 27.816 82.6127C27.944 82.6127 28.0748 82.5799 28.1946 82.5142C32.3563 80.1936 36.7984 77.3803 38.1956 74.0991L38.1984 74.0964Z" fill="#E8DFD3"/>
<path d="M30.1147 73.9074C33.1461 72.0547 31.6427 67.9854 30.5069 68.4342C29.7988 68.7133 30.1229 69.7396 30.2645 70.109C30.3299 70.2814 30.3789 70.462 30.3898 70.6454C30.4334 71.2666 30.1747 71.8741 29.679 72.2655C29.5319 72.3831 29.3685 72.5063 29.1887 72.6376C28.0121 73.5024 26.3998 74.5067 24.3925 75.626C23.9676 75.8641 23.5454 76.1241 23.1423 76.395C22.7828 76.6386 22.6902 77.1284 22.9326 77.4896C23.0852 77.7141 23.3303 77.8372 23.5836 77.8372C23.7334 77.8372 23.8886 77.7934 24.0221 77.7031C24.387 77.4568 24.7683 77.2215 25.1551 77.0053C27.2168 75.8559 28.8156 74.7065 30.1147 73.9102V73.9074Z" fill="#E8DFD3"/>
<path d="M44.0595 72.5035C44.0595 72.5035 44.0759 72.5035 44.084 72.5035C44.5171 72.4899 44.8575 72.1259 44.8439 71.6908C44.7568 68.831 43.7844 65.8508 42.7522 62.6955C41.4503 58.7165 40.1076 54.6034 40.4535 50.2385C40.4889 49.8061 40.1675 49.4257 39.7345 49.3901C39.3041 49.36 38.9256 49.6802 38.8901 50.1126C38.517 54.7922 39.9115 59.0613 41.2624 63.1881C42.2565 66.2312 43.1961 69.1047 43.2751 71.7373C43.2888 72.1642 43.6374 72.5008 44.0595 72.5008V72.5035Z" fill="#E8DFD3"/>
<path d="M35.3141 72.8564C35.6246 72.1284 35.3958 70.7957 34.6795 68.3984C34.6795 68.3984 34.4453 67.0575 33.5329 67.3558C32.6559 67.6431 33.1216 68.6584 33.1216 68.6584C33.5873 70.2073 34.0013 71.7864 33.8706 72.2352C32.9173 74.4737 27.6444 77.4128 25.9122 78.3788C25.6508 78.5239 25.3893 78.6826 25.1333 78.8495C24.7683 79.0849 24.6648 79.572 24.8991 79.9387C25.0489 80.1713 25.3022 80.2999 25.5582 80.2999C25.7025 80.2999 25.8523 80.2589 25.9831 80.1741C26.2091 80.0263 26.4406 79.8867 26.6721 79.7581C30.1529 77.8178 34.2791 75.281 35.3114 72.8564H35.3141Z" fill="#E8DFD3"/>
<path d="M27.5028 72.0929C27.8732 71.8658 27.9876 71.3814 27.7616 71.0092C27.5355 70.637 27.0534 70.5221 26.683 70.7492C25.9722 71.1871 23.7361 72.3857 22.87 72.8674C22.3852 73.1383 21.9086 73.4311 21.451 73.7376C21.0915 73.9784 20.9934 74.4683 21.2358 74.8295C21.3884 75.0567 21.6362 75.1798 21.8895 75.1798C22.0393 75.1798 22.1918 75.136 22.3253 75.0457C22.7447 74.7638 23.1859 74.4929 23.6326 74.2439C24.5178 73.7486 26.7729 72.5417 27.5028 72.0929Z" fill="#E8DFD3"/>
<path d="M71.7149 25.3736C71.7149 25.3736 71.9573 26.2548 72.807 25.9647C73.5615 25.7075 73.1965 24.8564 73.1965 24.8564C72.8343 23.7399 72.3522 22.6534 71.753 21.619C71.5351 21.2441 71.0558 21.1154 70.6799 21.3344C70.3068 21.5533 70.1788 22.0349 70.3966 22.4126C70.9468 23.3595 71.3853 24.3529 71.7149 25.3736Z" fill="#E8DFD3"/>
<path d="M73.9101 46.0541C73.6758 46.3825 73.7303 46.834 74.0245 47.0967C74.0463 47.1159 74.0681 47.135 74.0926 47.1514C74.4466 47.4032 74.9341 47.3211 75.1874 46.9681C75.34 46.7519 75.4925 46.5357 75.6396 46.3195C76.9932 44.3437 78.2351 42.2365 79.4362 39.8721C79.6323 39.4835 79.4798 39.01 79.0958 38.813C78.709 38.616 78.2379 38.7692 78.0418 39.1551C76.8733 41.4566 75.6641 43.5063 74.3486 45.4246C74.2042 45.6354 74.0599 45.8433 73.9101 46.0541Z" fill="#E8DFD3"/>
<path d="M69.2664 34.2376C69.2337 34.3799 69.1983 34.5195 69.1629 34.6618C69.0539 35.0832 69.3018 35.5129 69.7212 35.6251C69.7893 35.6415 69.8547 35.6525 69.92 35.6525C70.2687 35.6525 70.5846 35.4171 70.6772 35.0641C70.718 34.9081 70.7562 34.7548 70.7916 34.5989C71.7503 30.4748 71.1075 26.1811 68.9804 22.514C68.7625 22.1391 68.2832 22.0105 67.9073 22.2294C67.5342 22.4483 67.4062 22.93 67.624 23.3076C69.5496 26.6271 70.1297 30.5104 69.2636 34.2404L69.2664 34.2376Z" fill="#E8DFD3"/>
<path d="M46.4672 16.5454C43.4549 18.3105 40.6741 20.4724 38.2065 22.9792C37.9015 23.2884 37.9042 23.7865 38.212 24.093C38.3645 24.2462 38.5633 24.3201 38.7649 24.3201C38.9664 24.3201 39.1679 24.2435 39.3232 24.0875C41.6927 21.682 44.3646 19.6022 47.2597 17.9082C49.5339 16.5755 52.1268 15.8722 54.7578 15.8722C58.9439 15.8722 62.9667 17.6647 65.7938 20.7871C66.0852 21.1101 66.5809 21.1319 66.9023 20.8391C67.2237 20.5463 67.2454 20.0482 66.954 19.7253C63.8273 16.2745 59.3824 14.2959 54.7578 14.2959C51.849 14.2959 48.9838 15.0731 46.4699 16.5454H46.4672Z" fill="#E8DFD3"/>
<path d="M24.1038 37.1085C24.2454 36.698 24.0275 36.2492 23.6163 36.1069C23.205 35.9646 22.7611 36.1835 22.6194 36.5967C21.2958 40.4636 20.4569 44.5055 20.1301 48.6077C19.5581 55.7913 21.067 61.8036 22.6221 66.7377C22.7284 67.0743 23.0361 67.2878 23.3684 67.2878C23.4474 67.2878 23.5264 67.2769 23.6054 67.2495C24.0194 67.1181 24.2481 66.6748 24.1174 66.2616C22.5323 61.2317 21.1432 55.6271 21.6934 48.7309C22.0093 44.76 22.8182 40.8494 24.1011 37.1085H24.1038Z" fill="#E8DFD3"/>
<path d="M31.5065 22.9983C31.7326 22.9983 31.9559 22.8998 32.1111 22.711C35.4993 18.5814 39.5329 15.1333 44.1004 12.4596C44.6669 12.1285 45.2552 11.8193 45.8489 11.5429C46.2411 11.3595 46.4127 10.8916 46.2302 10.4975C46.0478 10.1034 45.582 9.93102 45.1898 10.1144C44.5525 10.4127 43.9206 10.7438 43.3105 11.0995C38.5851 13.8663 34.4098 17.4375 30.9019 21.7094C30.6268 22.046 30.6731 22.5413 31.0081 22.8177C31.1552 22.9381 31.3322 22.9983 31.5065 22.9983Z" fill="#E8DFD3"/>
<path d="M24.2835 34.3632C24.3843 34.407 24.4878 34.4262 24.5913 34.4262C24.8963 34.4262 25.185 34.2483 25.313 33.9473C26.7157 30.6497 28.4942 27.5245 30.5968 24.6565C30.8528 24.3062 30.7793 23.8136 30.4307 23.5536C30.0821 23.2964 29.5918 23.3703 29.3331 23.7206C27.1569 26.6871 25.3185 29.919 23.8668 33.3261C23.698 33.7256 23.8804 34.1881 24.2808 34.3605L24.2835 34.3632Z" fill="#E8DFD3"/>
<path d="M24.8065 40.1349C24.6893 40.5536 24.9317 40.9887 25.3485 41.1064C25.4193 41.1255 25.4901 41.1365 25.5609 41.1365C25.9041 41.1365 26.2173 40.9093 26.3153 40.5618C29.3358 29.7385 36.2129 20.7269 45.6773 15.1852C48.4309 13.5734 51.5685 12.7223 54.7523 12.7223C55.1854 12.7223 55.5367 12.3693 55.5367 11.9341C55.5367 11.499 55.1854 11.146 54.7523 11.146C51.2907 11.146 47.878 12.071 44.8875 13.8251C35.069 19.5747 27.9359 28.9175 24.8037 40.1376L24.8065 40.1349Z" fill="#E8DFD3"/>
<path d="M23.382 28.5508C23.4937 28.611 23.6135 28.6438 23.7334 28.6466C24.0193 28.6548 24.2999 28.507 24.4469 28.2361C25.0706 27.0867 25.7488 25.9455 26.457 24.8482C26.6912 24.4842 26.5877 23.9943 26.2254 23.759C25.8632 23.5209 25.3757 23.6276 25.1415 23.9916C24.4115 25.1218 23.7143 26.2986 23.0715 27.4808C22.8645 27.8639 23.0034 28.3401 23.3847 28.5508H23.382Z" fill="#E8DFD3"/>
<path d="M68.7189 79.7914C68.3485 79.7229 67.9618 80.0267 67.8501 80.4646C67.1883 83.0726 66.3276 85.374 65.2736 87.4894C65.1592 87.7193 65.0393 87.9492 64.9168 88.1818C64.7261 88.543 64.7997 88.9563 65.0775 89.1478C65.0993 89.1615 65.121 89.1752 65.1428 89.1861C65.4751 89.3558 65.9163 89.1807 66.1261 88.7839C66.2541 88.543 66.3794 88.3022 66.4992 88.0614C67.6022 85.853 68.501 83.4502 69.1901 80.73C69.3018 80.2812 69.0893 79.8598 68.7189 79.7941V79.7914Z" fill="#E8DFD3"/>
<path d="M74.9668 63.9187C75.3944 63.8475 75.6831 63.4425 75.6123 63.0129C75.5687 62.7502 75.5252 62.4902 75.4789 62.2329C75.054 59.8713 72.7989 52.466 71.9954 49.9401C71.8619 49.5241 71.4207 49.297 71.0095 49.4311C70.5982 49.5652 70.3694 50.0085 70.5029 50.4217C71.2873 52.882 73.5233 60.2243 73.9373 62.5148C73.9836 62.7638 74.0272 63.0156 74.0681 63.2701C74.1334 63.6697 74.4875 63.9488 74.8824 63.9296C74.9124 63.9296 74.9396 63.9242 74.9696 63.9214L74.9668 63.9187Z" fill="#E8DFD3"/>
<path d="M71.7149 79.7582C71.2873 79.6323 70.8678 79.9005 70.7643 80.3384C70.6745 80.7105 70.571 81.1019 70.4457 81.5151C70.2959 82.0077 70.1515 82.5003 70.0126 82.9764C69.8928 83.3951 70.1188 83.8303 70.5301 83.9726C70.7943 84.0629 71.0694 84.0054 71.2709 83.8385C71.3826 83.7454 71.4725 83.6168 71.5188 83.4581C71.6549 82.9983 71.7993 82.5249 71.9491 82.0542C72.0853 81.6218 72.1997 81.2086 72.2977 80.82C72.4121 80.3685 72.1479 79.8841 71.7203 79.7582H71.7149Z" fill="#E8DFD3"/>
<path d="M75.5524 50.7254C75.3672 50.2903 74.896 50.085 74.5011 50.2547C74.1035 50.4298 73.9319 50.9252 74.1171 51.3603C77.3091 58.9133 77.9846 65.7111 78.2406 71.9341C78.2597 72.4021 78.6301 72.7852 79.0658 72.7879C79.1503 72.7879 79.232 72.7742 79.3055 72.7496C79.6187 72.6429 79.8366 72.3227 79.8203 71.9451C79.5588 65.5496 78.8588 58.5521 75.5524 50.7254Z" fill="#E8DFD3"/>
<path d="M75.0485 65.1555C74.6182 65.2048 74.3104 65.5961 74.3595 66.0285C74.6563 68.5955 74.7816 70.9763 74.7462 73.3052C74.7435 73.5597 74.7353 73.8142 74.7272 74.0714C74.7135 74.4764 75.0077 74.8185 75.3972 74.876C75.4271 74.8814 75.4544 74.8815 75.4843 74.8842C75.9174 74.8979 76.2796 74.5558 76.2932 74.1207C76.3014 73.8552 76.3068 73.5898 76.3123 73.3298C76.3504 70.9325 76.2197 68.4833 75.9174 65.8479C75.8683 65.4155 75.4789 65.1063 75.0485 65.1555Z" fill="#E8DFD3"/>
<path d="M43.9669 76.5783C44.1385 76.1787 43.9533 75.7163 43.5557 75.5439C43.158 75.3715 42.6977 75.5575 42.5261 75.9571C41.1562 79.1753 38.261 81.9968 33.1434 85.1056C32.773 85.33 32.6531 85.8144 32.8792 86.1865C33.0263 86.4328 33.285 86.5669 33.5519 86.5669C33.6908 86.5669 33.8297 86.5313 33.9577 86.452C37.6046 84.2381 42.0386 81.1129 43.9696 76.5756L43.9669 76.5783Z" fill="#E8DFD3"/>
<path d="M46.8485 77.8183C49.1962 72.3095 47.4341 66.9238 45.7318 61.7133C45.0237 59.5487 44.2938 57.3128 43.8825 55.1208C43.8035 54.6939 43.3922 54.412 42.9674 54.4914C42.5425 54.5708 42.262 54.984 42.3409 55.4109C42.7713 57.7042 43.5175 59.992 44.242 62.2032C45.9279 67.3617 47.5212 72.2356 45.4077 77.1943C43.9397 80.6397 41.1289 83.65 36.5588 86.6685C36.1965 86.9065 36.0957 87.3964 36.3354 87.7604C36.4852 87.9902 36.7358 88.1161 36.9918 88.1161C37.1389 88.1161 37.2887 88.0751 37.4221 87.9875C42.262 84.7911 45.2579 81.5592 46.8512 77.8183H46.8485Z" fill="#E8DFD3"/>
<path d="M38.0077 78.4856C37.7108 78.1709 37.2124 78.1572 36.8992 78.4582C35.3113 79.977 33.2224 81.4493 30.1229 83.2308C29.7471 83.447 29.6163 83.9287 29.8315 84.3063C29.9758 84.5608 30.24 84.7031 30.5124 84.7031C30.6431 84.7031 30.7793 84.6703 30.9019 84.5991C34.113 82.7519 36.2946 81.2085 37.9777 79.5994C38.291 79.2983 38.3046 78.8003 38.005 78.4856H38.0077Z" fill="#E8DFD3"/>
<path d="M49.7328 79.0578C51.9988 73.7379 51.0292 68.5657 49.9316 64.6523C49.8145 64.2336 49.3814 63.9901 48.9647 64.1077C48.548 64.2254 48.3056 64.6605 48.4227 65.0792C49.5149 68.9707 50.3537 73.5983 48.292 78.4366C46.824 81.882 44.2338 84.9552 40.3745 87.8341C40.0259 88.0941 39.9551 88.5867 40.2111 88.937C40.3636 89.145 40.6006 89.2544 40.8402 89.2544C41.0037 89.2544 41.1671 89.2052 41.306 89.0984C45.3941 86.0499 48.1504 82.7632 49.73 79.0551L49.7328 79.0578Z" fill="#E8DFD3"/>
<path d="M53.3225 65.197C53.1808 64.6278 52.489 64.4089 52.0478 64.792C51.8245 64.9863 51.7264 65.2901 51.7972 65.5801C52.8595 69.893 53.2952 74.704 51.1763 79.6792C49.7927 82.9248 47.6356 85.8064 44.5825 88.4856C44.2556 88.7729 44.2229 89.2682 44.5089 89.5966C44.6642 89.7745 44.8821 89.8675 45.0999 89.8675C45.2824 89.8675 45.4676 89.8046 45.6147 89.6732C48.8476 86.8354 51.1381 83.7704 52.6171 80.3004C54.9212 74.8901 54.4528 69.7589 53.3225 65.1998V65.197Z" fill="#E8DFD3"/>
<path d="M56.8767 84.2544C56.4954 84.0245 56.0215 84.1805 55.8118 84.5773C55.6348 84.9139 55.436 85.2696 55.2126 85.6364C54.9457 86.0769 54.6843 86.5148 54.431 86.9445C54.2103 87.3194 54.322 87.7983 54.6843 88.0391C54.9158 88.1923 55.199 88.206 55.4332 88.0938C55.5667 88.0309 55.6838 87.9269 55.7655 87.7873C56.0134 87.3768 56.2694 86.9554 56.5281 86.534C56.7651 86.1481 56.9802 85.7787 57.1709 85.4256C57.3942 85.0151 57.258 84.4815 56.8767 84.2516V84.2544Z" fill="#E8DFD3"/>
<path d="M72.7553 43.0685C73.1148 43.375 73.6622 43.2929 73.921 42.8961C75.1493 41.0024 76.1026 38.9198 76.7372 36.695C76.857 36.2763 76.6146 35.8411 76.1979 35.7207C75.7812 35.6003 75.3481 35.8439 75.2283 36.2626C74.6373 38.3342 73.7521 40.2744 72.6082 42.0368C72.3903 42.3707 72.453 42.814 72.7553 43.0713V43.0685Z" fill="#E8DFD3"/>
<path d="M58.6662 44.4972C58.8105 44.4972 58.9549 44.4589 59.0856 44.3768C59.1128 44.3603 59.1618 44.333 59.2272 44.2974C61.88 42.8169 64.0098 40.9204 65.5187 38.7503C66.4992 37.4039 67.2155 35.8933 67.6458 34.2568C68.5528 30.7977 68.068 27.1881 66.2731 24.0958C63.8927 19.9936 59.4778 17.4458 54.7524 17.4458C52.3992 17.4458 50.0787 18.0752 48.0441 19.2684C42.3791 22.5852 37.6564 27.4207 34.3853 33.2524C34.1729 33.6328 34.3064 34.1117 34.6822 34.3252C35.0608 34.5387 35.5374 34.4046 35.7499 34.0269C38.8847 28.4388 43.4086 23.8057 48.834 20.6312C50.6288 19.5804 52.677 19.0248 54.7524 19.0248C58.9222 19.0248 62.7652 21.3044 64.9168 24.8921C69.0621 31.8075 64.7833 39.7273 58.4537 42.9045C58.3339 42.9647 58.2549 43.0167 58.2195 43.0413C57.8572 43.2794 57.7592 43.7638 57.9907 44.1332C58.1405 44.3713 58.3992 44.4999 58.6634 44.4999L58.6662 44.4972Z" fill="#E8DFD3"/>
<path d="M62.136 45.8572C62.2831 45.8572 62.4302 45.8161 62.5609 45.734C62.7706 45.6 67.7221 42.4118 69.7321 38.3917C69.9282 37.9977 69.7702 37.516 69.378 37.319C68.9858 37.1219 68.5065 37.2807 68.3104 37.6747C66.4992 41.298 61.7547 44.3548 61.7057 44.3876C61.3353 44.623 61.2263 45.1183 61.4606 45.4905C61.6131 45.7313 61.8691 45.8627 62.1333 45.8627L62.136 45.8572Z" fill="#E8DFD3"/>
<path d="M73.0739 27.2837C72.6409 27.363 72.3576 27.7817 72.4366 28.2141C73.3463 33.1428 72.2895 37.6062 69.3018 41.4812C67.0466 44.4066 64.4728 45.8871 64.4456 45.9008C64.0643 46.117 63.9281 46.6041 64.1433 46.9873C64.2904 47.2472 64.56 47.395 64.8378 47.395C64.9685 47.395 65.102 47.3622 65.2273 47.2938C65.3417 47.2281 68.0653 45.671 70.5192 42.5129C72.7934 39.582 75.2446 34.6725 74 27.9241C73.921 27.4917 73.507 27.2043 73.0739 27.2837Z" fill="#E8DFD3"/>
<path d="M62.855 24.594C57.2499 16.4334 47.6302 22.9083 47.5348 22.9739C47.1726 23.223 47.08 23.7183 47.3278 24.085C47.5757 24.449 48.0687 24.542 48.4336 24.2957C48.7741 24.0631 56.8441 18.6556 61.5477 25.5053C66.3276 32.4672 61.9644 36.4654 56.6589 40.2775C56.3021 40.5347 56.2204 41.0328 56.4737 41.3913C56.6289 41.6102 56.874 41.7252 57.1219 41.7252C57.2826 41.7252 57.4433 41.6759 57.5849 41.5747C61.8255 38.5288 68.9205 33.4278 62.8578 24.5967L62.855 24.594Z" fill="#E8DFD3"/>
<path d="M55.101 80.0728C54.6897 79.9141 54.2321 80.1221 54.0742 80.5353C54.0578 80.5764 52.5027 84.6019 48.9674 88.1978C48.6597 88.5125 48.6624 89.0188 48.9756 89.328C49.1308 89.4813 49.3324 89.5579 49.5339 89.5579C49.7355 89.5579 49.9452 89.4785 50.1004 89.3198C53.8672 85.4858 55.4932 81.2824 55.5612 81.1045C55.7192 80.6913 55.5122 80.2315 55.101 80.0728Z" fill="#E8DFD3"/>
<path d="M53.6983 39.8094C53.8563 39.9818 54.0687 40.0694 54.2839 40.0694C54.4773 40.0694 54.6679 40.001 54.8204 39.8587C56.0052 38.7667 58.4183 36.9852 58.4483 36.9633C58.8159 36.6897 59.1401 36.4078 59.4342 36.1259C60.3166 35.3323 61.0084 34.3389 61.4088 33.2114C61.929 31.8486 61.8419 30.8278 61.8337 30.7512C61.831 30.7156 61.8201 30.6828 61.8146 30.65C61.7847 29.4732 61.4633 28.3156 60.8559 27.273C59.5949 25.1001 57.258 23.751 54.7551 23.751C53.5104 23.751 52.282 24.0848 51.2062 24.717C49.8308 25.5216 48.5072 26.4438 47.2706 27.4618C46.9438 27.73 46.8539 28.2226 47.1045 28.5647C47.3741 28.9314 47.8889 28.9916 48.2321 28.707C49.4141 27.7327 50.6779 26.8488 51.9933 26.0798C52.8322 25.59 53.7855 25.33 54.7523 25.33C56.6997 25.33 58.5191 26.3781 59.4968 28.0693C60.2268 29.3282 60.431 30.795 60.0715 32.2044C59.8291 33.05 59.2626 34.1966 57.9635 35.3077C57.7973 35.4281 57.6285 35.543 57.4541 35.647C57.4541 35.647 54.9566 37.5654 53.7419 38.6819C53.4178 38.9802 53.396 39.4865 53.6929 39.8121L53.6983 39.8094Z" fill="#E8DFD3"/>
<path d="M70.1788 47.6662C71.3526 46.692 72.3413 45.5754 72.3821 45.5289C72.6736 45.1978 72.6436 44.6942 72.3141 44.4014C71.9845 44.1086 71.4834 44.1387 71.1919 44.4698C71.1838 44.4808 70.2414 45.5426 69.1656 46.4347C68.8279 46.7166 68.7788 47.2201 69.0594 47.5595C69.2173 47.751 69.4434 47.8496 69.6722 47.8496C69.8492 47.8496 70.029 47.7893 70.1788 47.6662Z" fill="#E8DFD3"/>
<path d="M122.728 35.3513H119.563L119.585 22.6973H122.398L122.338 32.4697L129.986 22.6973H132.892L122.728 35.3513Z" fill="#E8DFD3"/>
<path d="M114.682 56.0454H103.145L108.339 43.394H111.024L106.773 53.7494H115.622L114.68 56.0454H114.682Z" fill="#E8DFD3"/>
<path d="M174.103 35.373H162.566L167.76 22.7217H170.445L166.194 33.077H175.042L174.1 35.373H174.103Z" fill="#E8DFD3"/>
<path d="M125.942 56.0483H123.166L133.568 43.397H136.831L136.752 56.0483H133.952L133.965 53.8645H127.791L125.942 56.0483ZM134.014 46.1144L129.55 51.6232H133.979L134.014 46.1144Z" fill="#E8DFD3"/>
<path d="M150.255 56.4563C148.901 56.4563 147.837 56.1854 147.058 55.6408C146.281 55.0989 145.818 54.3382 145.669 53.3557C145.516 52.376 145.712 51.2321 146.249 49.9213C146.807 48.5612 147.594 47.368 148.61 46.3473C149.626 45.3238 150.786 44.5274 152.088 43.9609C153.387 43.3945 154.746 43.1099 156.163 43.1099C157.007 43.1099 157.805 43.2139 158.559 43.4191C159.314 43.6243 159.856 43.9281 160.188 44.3277L159.15 46.8563C158.881 46.4814 158.45 46.1694 157.859 45.9204C157.266 45.6713 156.53 45.5454 155.648 45.5454C154.643 45.5454 153.714 45.7261 152.864 46.0873C152.015 46.4513 151.271 46.9575 150.634 47.6143C149.999 48.2711 149.495 49.0456 149.127 49.9459C148.779 50.7943 148.64 51.5249 148.714 52.1352C148.784 52.7455 149.057 53.2134 149.525 53.5391C149.994 53.862 150.639 54.0262 151.459 54.0262C152.491 54.0262 153.439 53.7635 154.305 53.2408C155.171 52.7181 155.806 52.0312 156.203 51.1801H151.546L152.532 49.0456H159.984L159.491 50.2442C158.949 51.566 158.208 52.6907 157.271 53.613C156.331 54.5379 155.264 55.244 154.063 55.7284C152.862 56.2155 151.592 56.459 150.252 56.459L150.255 56.4563Z" fill="#E8DFD3"/>
<path d="M124.098 76.7617H114.358L119.552 64.1104H129.292L128.357 66.3872H121.303L120.089 69.3427H126.282L125.386 71.5266H119.193L117.986 74.4629H125.04L124.098 76.759V76.7617Z" fill="#E8DFD3"/>
<path d="M149.629 65.1284C149.043 64.4688 147.943 64.1377 146.325 64.1377H140.782L135.599 76.7617H138.299L140.224 72.0711H141.921L143.77 76.7617H147.017L145.015 71.7345C145.895 71.5813 146.693 71.2775 147.406 70.8178C148.474 70.1281 149.239 69.2223 149.699 68.0976C150.241 66.7785 150.22 65.7879 149.634 65.1284H149.629ZM146.823 68.2043C146.597 68.7544 146.243 69.1977 145.758 69.5343C145.276 69.8709 144.644 70.0378 143.866 70.0378H141.057L142.564 66.3735H145.372C146.088 66.3735 146.573 66.5295 146.821 66.8415C147.068 67.1534 147.071 67.6077 146.826 68.207L146.823 68.2043Z" fill="#E8DFD3"/>
<path d="M161.569 77.2158C161.013 77.2158 160.471 77.1584 159.94 77.0462C159.409 76.9312 158.941 76.7643 158.543 76.5426C158.143 76.321 157.859 76.0637 157.688 75.7736L158.81 73.0425C159.052 73.4338 159.371 73.7513 159.771 73.9921C160.172 74.2329 160.618 74.4053 161.117 74.5148C161.612 74.6215 162.119 74.6763 162.637 74.6763C163.456 74.6763 164.134 74.5394 164.674 74.2685C165.213 73.9948 165.589 73.6062 165.796 73.1C165.921 72.7962 165.951 72.5526 165.888 72.3693C165.826 72.1859 165.695 72.0436 165.496 71.9424C165.297 71.8411 165.063 71.759 164.785 71.6961C164.51 71.6331 164.219 71.5757 163.911 71.5237C163.386 71.4224 162.884 71.2938 162.408 71.1351C161.931 70.9764 161.533 70.7629 161.209 70.4892C160.888 70.2156 160.686 69.8598 160.61 69.4165C160.534 68.9732 160.635 68.4094 160.915 67.728C161.242 66.9317 161.743 66.2283 162.413 65.6208C163.083 65.0133 163.881 64.5399 164.802 64.1978C165.72 63.8584 166.716 63.686 167.787 63.686C168.378 63.686 168.939 63.7435 169.473 63.8584C170.007 63.9706 170.461 64.1266 170.84 64.3237C171.219 64.5207 171.469 64.7451 171.592 64.9969L170.494 67.6705C170.309 67.3285 170.031 67.0439 169.663 66.8167C169.298 66.5896 168.884 66.4172 168.421 66.305C167.958 66.19 167.482 66.1326 166.989 66.1326C166.273 66.1326 165.643 66.2448 165.104 66.4637C164.565 66.6854 164.192 67.0575 163.979 67.5748C163.802 68.0044 163.878 68.3191 164.205 68.5134C164.532 68.7077 165.118 68.8911 165.957 69.0553C166.379 69.1319 166.825 69.2331 167.297 69.359C167.768 69.4849 168.184 69.6819 168.547 69.9474C168.909 70.2128 169.138 70.5878 169.236 71.0776C169.331 71.5647 169.211 72.2188 168.874 73.0425C168.514 73.9155 167.977 74.6653 167.261 75.292C166.542 75.9187 165.698 76.3976 164.728 76.726C163.756 77.0544 162.702 77.2186 161.569 77.2186V77.2158Z" fill="#E8DFD3"/>
<path d="M154.133 22.6973L153.183 25.0097H148.733L145.415 33.0854H149.868L148.918 35.3979H144.467H141.744H137.294L138.241 33.0854H142.692L146.009 25.0097H141.559L142.506 22.6973H154.133Z" fill="#E8DFD3"/>
</svg>
