<svg xmlns="http://www.w3.org/2000/svg" width="144" height="179" fill="none">
  <path fill="#e8e0d3" d="m3.974 51.587 1.4-4.26 9.372 9.177-1.603 4.87-12.99 1.833 1.4-4.26 9.122-1.071-6.71-6.281zM20.759 43.65l-10.003-6.216 2.056-3.327 10.003 6.216zM27.8 27.688l6.07-6.013 2.743 2.784-8.846 8.764-8.263-8.391 2.776-2.751zM45.03 14.51l7.705-3.668 1.675 3.538-11.233 5.348-5.042-10.655 3.528-1.68zM72.457 0l5.69 11.572-4.524.162-.955-1.947-5.811.203-.817 2.012-4.492.162L66.396.211zm-4.33 6.54 3.035-.105L69.528 3.4zM92.431 8.642l8.902 3.563-2.557 6.41-2.913-1.168.453-1.136c-.632.22-1.303.292-2.032.227-.728-.065-1.707-.349-2.937-.844q-1.666-.667-2.833-1.444c-.777-.52-1.392-1.039-1.837-1.575a4.6 4.6 0 0 1-.923-1.712 4.9 4.9 0 0 1-.178-1.801q.088-.892.478-1.891c.3-.763.712-1.404 1.222-1.931a5.1 5.1 0 0 1 1.7-1.177 6.4 6.4 0 0 1 2.047-.463c.736-.057 1.497 0 2.274.138q1.165.22 2.38.706c1.108.447 2.039.893 2.791 1.355.753.455 1.336.934 1.757 1.429q.63.742.922 1.485c.194.495.316 1.055.364 1.696l-3.844-.22c-.226-.973-1.319-1.85-3.27-2.629q-1.116-.45-1.942-.56t-1.36.098a2.15 2.15 0 0 0-.865.584 3.4 3.4 0 0 0-.575.982 3.3 3.3 0 0 0-.243 1.014c-.016.3.065.617.227.95s.477.657.939.982 1.068.633 1.829.941c.526.211.987.365 1.384.47.396.106.72.147.995.139.267-.017.47-.033.599-.073.13-.033.3-.098.518-.195l-4.5-1.802 1.028-2.572zM113.489 14.777l9.437 8.943-2.242 2.378-6.604-6.257-.712.755 6.183 5.867-2.153 2.28-6.183-5.867-.729.771 6.604 6.257-2.241 2.377-9.437-8.942 8.085-8.57zM130.323 33.296l4.192 7.579c.105.195.203.381.292.568q.133.27.315.795.185.526.259.99c.049.309.065.666.033 1.063a3.3 3.3 0 0 1-.268 1.12c-.145.341-.388.698-.712 1.047-.323.357-.744.674-1.254.958-1.619.9-3.132.917-4.524.04l-1.862 3.806-2.169-3.96 1.441-3.108-1.716-3.1-2.436 1.355-1.893-3.424 10.286-5.721zm-.834 9.957c.47.852 1.028 1.095 1.676.738.582-.324.631-.933.137-1.826l-2.088-3.773-1.845 1.03 2.12 3.839zM142.649 62.558q.364 1.536.558 2.646c.121.738.194 1.412.194 2.012s-.048 1.088-.153 1.477c-.106.39-.3.73-.575 1.039-.275.3-.599.544-.971.722a7.3 7.3 0 0 1-1.425.479l-.971-4.05c.17-.04.3-.105.389-.186.081-.081.145-.243.186-.47.04-.228.032-.569-.041-1.031a27 27 0 0 0-.364-1.777c-.235-.974-.421-1.672-.574-2.11-.154-.439-.276-.706-.365-.812-.097-.105-.218-.138-.388-.097-.138.048-.194.219-.178.52.016.3.146 1.192.372 2.669v.057q.69 4.395.688 5.623 0 1.61-.753 2.256c-.348.292-.882.528-1.626.698-.518.122-.963.195-1.311.203a2.4 2.4 0 0 1-1.028-.203 2.2 2.2 0 0 1-.858-.665c-.235-.3-.486-.739-.737-1.307a18 18 0 0 1-.712-1.996 70 70 0 0 1-1.198-4.901 25 25 0 0 1-.267-1.632 9 9 0 0 1-.081-1.282q.013-.525.146-.965c.089-.3.211-.544.348-.73.138-.187.348-.366.607-.536q.388-.244.85-.414.461-.159 1.117-.317l.939 3.936c-.187.04-.316.106-.405.195-.081.081-.13.243-.138.495-.008.243.025.576.097.99s.203.998.381 1.745c.024.089.048.219.097.39q.449 1.858.607 2.247c.105.26.283.357.518.3.137-.032.21-.146.21-.34s-.073-.723-.218-1.575c-.105-.625-.186-1.136-.251-1.55-.097-.657-.17-1.16-.227-1.51q-.072-.524-.17-1.306-.096-.78-.097-1.193v-.99c0-.381.049-.673.122-.884.072-.211.17-.438.283-.69s.259-.446.445-.592c.186-.147.405-.284.647-.414q.377-.207.85-.317c.381-.089.729-.146 1.044-.162s.607 0 .866.032c.259.041.51.13.737.26q.338.195.615.438c.186.163.356.39.526.682s.315.584.445.876c.129.3.267.674.405 1.12.145.447.267.893.388 1.331.113.438.251.966.397 1.574zM13.248 122.755l1.546 4.212-13.03-1.355L0 120.799l9.04-9.527 1.546 4.212-6.483 6.525zM9.072 140.332l9.922-6.346 2.096 3.303-9.922 6.346zM23.097 152.456l6.022 6.054-2.768 2.767-8.781-8.829 8.328-8.334 2.76 2.775-5.569 5.567zM40.66 166.357l7.575 3.936-1.797 3.473-11.04-5.729 5.407-10.477 3.464 1.802-3.618 6.995zM69.609 166.795l4.143 12.213-4.508-.43-.696-2.061-5.786-.552-1.069 1.891-4.467-.422 6.345-11.215zm-5.14 5.924 3.02.284-1.231-3.222-1.797 2.938zM87.664 169.408l9.153-2.848 2.04 6.597-2.995.933-.364-1.168a4.7 4.7 0 0 1-1.432 1.46q-.91.607-2.817 1.201c-1.14.358-2.176.577-3.107.666-.93.089-1.74.065-2.42-.065-.68-.138-1.279-.381-1.789-.747a4.9 4.9 0 0 1-1.27-1.282q-.496-.744-.81-1.769-.363-1.169-.267-2.264c.065-.73.26-1.396.591-1.988a6.9 6.9 0 0 1 1.295-1.656 8.6 8.6 0 0 1 1.853-1.322 13.3 13.3 0 0 1 2.29-.95c1.142-.357 2.145-.592 3.02-.714.865-.122 1.626-.122 2.265 0q.96.181 1.651.568c.462.26.907.625 1.344 1.088l-3.124 2.256c-.785-.609-2.185-.609-4.184.016-.769.235-1.392.503-1.862.787-.469.284-.8.6-.995.933a2.3 2.3 0 0 0-.308.998c-.016.333.04.706.17 1.128.122.382.267.698.454.942.178.243.437.438.768.592.332.154.786.211 1.344.17s1.23-.178 2.007-.422c.542-.17 1.004-.34 1.368-.503.372-.17.655-.34.858-.519q.302-.27.42-.43c.081-.106.17-.268.284-.479l-4.63 1.436-.817-2.645zM101.884 158.006l10.197-8.066 2.023 2.573-7.13 5.64.648.819 6.685-5.283 1.942 2.467-6.685 5.283.656.828 7.13-5.64 2.023 2.572-10.197 8.067-7.284-9.26zM117.56 144.065l4.937-7.117c.129-.186.251-.357.38-.511q.185-.243.575-.633.39-.392.769-.674c.259-.186.566-.349.938-.503a3.3 3.3 0 0 1 1.117-.251c.373-.016.793.04 1.255.178q.691.208 1.408.706c1.521 1.063 2.201 2.41 2.023 4.05h4.225l-2.59 3.7-3.415.073-2.015 2.913 2.282 1.591-2.226 3.213zm9.283-3.644c.558-.803.526-1.412-.073-1.834q-.825-.572-1.7.682l-2.46 3.546 1.732 1.209zM131.359 119.46a42 42 0 0 1 1.003-2.515c.308-.69.623-1.282.947-1.786q.486-.754.947-1.144a2.5 2.5 0 0 1 1.044-.543 3.2 3.2 0 0 1 1.214-.065q.619.084 1.457.389l-1.433 3.912a.76.76 0 0 0-.429-.057q-.168.038-.421.284-.242.255-.534.876-.291.633-.68 1.68c-.339.933-.574 1.631-.687 2.077q-.17.67-.146.877.036.207.267.292c.138.041.283-.073.437-.333.146-.259.534-1.071 1.165-2.426 0-.024.017-.033.033-.041q1.855-4.041 2.533-5.063.886-1.34 1.869-1.461.67-.073 1.74.316c.502.187.907.374 1.206.56.3.187.551.439.745.739.194.308.315.649.348 1.03.032.382 0 .885-.113 1.502a16.5 16.5 0 0 1-.51 2.061 61 61 0 0 1-.955 2.791 47 47 0 0 1-.753 1.956 22 22 0 0 1-.68 1.509 8 8 0 0 1-.639 1.112 3.8 3.8 0 0 1-.656.722 2.4 2.4 0 0 1-.696.414 2.2 2.2 0 0 1-.801.106c-.307 0-.615-.049-.931-.13a12 12 0 0 1-1.1-.349l1.392-3.798c.178.065.323.09.437.065s.243-.13.388-.333q.219-.291.462-.876c.161-.389.38-.941.647-1.672.032-.081.073-.211.138-.381.437-1.201.687-1.931.736-2.207q.073-.414-.267-.536c-.138-.049-.259 0-.364.17q-.156.246-.688 1.429c-.259.576-.47 1.047-.648 1.428-.283.6-.493 1.063-.647 1.38s-.348.714-.583 1.184q-.352.706-.582 1.047c-.154.227-.332.503-.551.82-.218.316-.413.535-.591.665s-.388.268-.615.414a1.5 1.5 0 0 1-.696.243 5 5 0 0 1-.768-.016 3.4 3.4 0 0 1-.883-.211 6.3 6.3 0 0 1-.963-.446 4 4 0 0 1-.704-.511 2.2 2.2 0 0 1-.469-.617 4 4 0 0 1-.267-.706c-.065-.235-.081-.519-.065-.852.024-.333.057-.657.113-.974.057-.316.154-.706.284-1.16.129-.455.267-.893.412-1.323.146-.43.324-.941.543-1.526zM45.021 140.989c-7.631-5.656-11.46-16.4-11.864-17.601-.291-.852-1.1-1.104-1.724-.901a1.38 1.38 0 0 0-.898 1.704c.008.033.024.065.032.098.729 2.126 4.71 12.903 12.828 18.916a1.36 1.36 0 0 0 1.91-.292 1.38 1.38 0 0 0-.284-1.924M49.36 139.545a1.37 1.37 0 0 0-.179-1.931c-8.247-6.89-11.047-16.076-11.071-16.165a1.365 1.365 0 0 0-1.7-.925 1.36 1.36 0 0 0-.922 1.704c.121.405 3.035 10.054 11.945 17.496a1.368 1.368 0 0 0 1.926-.179M50.84 135.033a1.363 1.363 0 0 0 1.918-.252c.462-.6.348-1.46-.259-1.923-.056-.04-5.713-4.455-9.42-13.381a1.368 1.368 0 1 0-2.525 1.055c3.982 9.6 10.027 14.314 10.278 14.509zM53.908 127.121s-2.056-2.021-4.42-6.379c-2.184-4.025-5.106-10.93-6.611-21.001a1.37 1.37 0 0 0-1.554-1.152 1.37 1.37 0 0 0-1.15 1.558c3.044 20.271 11.477 28.597 11.84 28.946.268.251.608.381.948.381.356 0 .72-.138.987-.422a1.374 1.374 0 0 0-.032-1.939zM51.528 111.962l-.008-.04a1.37 1.37 0 0 0-1.78-.755c-.494.203-1.085.844-.753 1.793q-.002 0 .032.073v.017l.041.089c.162.397.655 1.615 1.999 4.934.219.535.728.86 1.27.86.17 0 .349-.033.519-.097a1.37 1.37 0 0 0 .752-1.786l-2.055-5.072zM105.906 92.486c2.493-1.931 8.765-7.328 9.857-13.609a1.37 1.37 0 0 0-1.108-1.59 1.37 1.37 0 0 0-1.587 1.111c-1.149 6.566-9.647 12.514-9.728 12.57l-1.044.723.64 1.095c6.013 10.371 7.542 22.106 7.761 30.115.243 8.74-.971 15.086-.987 15.151a1.368 1.368 0 0 0 1.343 1.631c.639 0 1.214-.455 1.344-1.112.048-.268 1.278-6.654 1.035-15.686-.218-8.083-1.715-19.801-7.526-30.423z"/>
  <path fill="#e8e0d3" d="M112.631 92.9a1.36 1.36 0 0 0-1.805-.706 1.367 1.367 0 0 0-.704 1.81c.049.105 4.662 10.793 5.601 21.529a1.37 1.37 0 0 0 1.359 1.249h.122a1.37 1.37 0 0 0 1.246-1.485c-.979-11.198-5.625-21.934-5.819-22.389zM79.264 60.554c-10.465 6.119-17.311 17.334-18.315 30.025-.437 5.486 1.287 11.093 3.221 17.017l.923 2.833s.331 1.468 1.659 1.038c.08-.024.162-.057.226-.089l4.727-1.891c1.327-.414.866-1.899.866-1.899s-2.695-8.22-3.27-11.206h.008a1 1 0 0 0-.057-.195c-.526-2.54-.307-5.324-.299-5.494.218-3.416 1.797-7.993 1.797-7.993a1.315 1.315 0 0 0-.866-1.51 1.32 1.32 0 0 0-1.619.641s-.194.495-.275.747c0 0-.445 1.306-.445 1.42a35.2 35.2 0 0 0-1.246 6.565c-.009.138-.025.276-.033.422v.057c-.113 2.126.437 5.85.437 5.85.445 2.29 1.918 7.053 2.768 9.723l-2.477 1.022c-1.95-5.965-3.787-11.596-3.382-16.83.946-11.816 7.3-22.26 17.003-27.932a6.63 6.63 0 0 0 3.084-4.066 6.68 6.68 0 0 0-.688-5.063 6.65 6.65 0 0 0-9.105-2.403C63.013 57.713 54.928 68.62 51.73 81.28a1.33 1.33 0 1 0 2.582.657 47.2 47.2 0 0 1 4.475-11.304l2.169 1.542c-2.954 5.412-4.807 11.53-5.325 17.99a1.333 1.333 0 0 0 1.222 1.429h.105c.688 0 1.27-.528 1.327-1.226 1.085-13.56 8.417-25.57 19.634-32.119a1.33 1.33 0 0 0 .478-1.818 1.323 1.323 0 0 0-1.813-.478c-5.924 3.457-10.837 8.35-14.422 14.144v-.024L59.92 68.7c3.852-6.208 9.105-11.417 15.328-15.045 1.894-1.111 4.355-.454 5.463 1.445.534.925.688 2.004.413 3.035a4 4 0 0 1-1.853 2.442z"/>
  <path fill="#e8e0d3" d="M92.22 48.357a17.33 17.33 0 0 0-14.948-8.61 17.2 17.2 0 0 0-8.7 2.361 1.33 1.33 0 0 0-.477 1.818c.364.641 1.19.844 1.813.48a14.63 14.63 0 0 1 7.364-1.997c5.188 0 10.036 2.791 12.658 7.279a14.64 14.64 0 0 1 1.505 11.134 14.57 14.57 0 0 1-6.782 8.934 25.8 25.8 0 0 0-6.418 5.356c-.477.56-.42 1.396.138 1.875.25.219.558.324.866.324.38 0 .744-.162 1.003-.454a22.8 22.8 0 0 1 5.746-4.788 17.22 17.22 0 0 0 8.02-10.558c1.174-4.479.551-9.145-1.78-13.154z"/>
  <path fill="#e8e0d3" d="M72.4 79.446c2.452-5.86 5.503-8.838 10.91-11.986a11.89 11.89 0 0 0 5.552-7.32c.809-3.1.38-6.33-1.23-9.105-2.137-3.676-6.11-5.964-10.344-5.964-2.112 0-4.192.56-6.02 1.639a52 52 0 0 0-6.726 4.682 1.33 1.33 0 0 0-.186 1.875h-.008c.469.576 1.303.649 1.87.186a47.6 47.6 0 0 1 6.385-4.447 9.24 9.24 0 0 1 4.685-1.274 9.35 9.35 0 0 1 8.053 4.642 9.27 9.27 0 0 1 .963 7.084 9.3 9.3 0 0 1-4.314 5.689c-5.835 3.416-9.242 6.743-11.92 13.04 0 0-.842 1.648.436 2.127 1.481.56 1.918-.885 1.918-.885zM42.318 64.563c-.671-.3-1.465 0-1.756.673a128 128 0 0 0-1.36 3.311c-.299.674 0 1.469.672 1.761.672.3 1.465 0 1.756-.673a128 128 0 0 0 1.36-3.311c.3-.674 0-1.47-.672-1.761M63.223 32.874h-.008a67.5 67.5 0 0 0-14.01 10.89 1.36 1.36 0 0 0 0 1.89c.26.26.591.39.94.39.347 0 .687-.138.946-.397a65.2 65.2 0 0 1 13.467-10.469A25.23 25.23 0 0 1 77.28 31.73c7.106 0 13.92 3.035 18.728 8.326a1.33 1.33 0 0 0 1.886.09c.55-.495.582-1.34.089-1.891-5.301-5.843-12.852-9.194-20.694-9.194a27.8 27.8 0 0 0-14.058 3.814z"/>
  <path fill="#e8e0d3" d="M93.41 71.087c.243.187.526.276.801.276.397 0 .802-.187 1.06-.527h.009a22.9 22.9 0 0 0 3.86-7.97c1.546-5.858.72-11.969-2.33-17.203-4.047-6.955-11.525-11.255-19.554-11.255A22.6 22.6 0 0 0 65.87 37.49C56.255 43.1 48.251 51.287 42.7 61.171a1.334 1.334 0 0 0 .502 1.817c.639.366 1.448.138 1.813-.503 5.325-9.462 12.997-17.3 22.199-22.681a20 20 0 0 1 10.035-2.727 19.98 19.98 0 0 1 17.246 9.941c2.687 4.618 3.416 10.006 2.056 15.183a19.9 19.9 0 0 1-3.407 7.02 1.334 1.334 0 0 0 .25 1.866zM106.051 47.805s.413 1.502 1.854 1.006c1.278-.438.663-1.874.663-1.874a28 28 0 0 0-2.452-5.486 1.323 1.323 0 0 0-1.813-.479 1.33 1.33 0 0 0-.477 1.818 26 26 0 0 1 2.241 5.015zM107.46 51.87a30.3 30.3 0 0 1 .097 9.771c-.122.796.51 1.51 1.311 1.51.647 0 1.214-.471 1.319-1.112.542-3.53.502-7.093-.097-10.623a1.334 1.334 0 1 0-2.63.455M83.61 105.925c-.276-.706-1.053-1.055-1.732-.771a1.345 1.345 0 0 0-.753 1.736c.785 2.037 1.829 5.9 2.468 9.803.672 3.903.963 7.864.996 9.917 0 .446.008.892.008 1.355 0 .706.502 1.306 1.165 1.396h.146c.728 0 1.352-.633 1.352-1.421 0-.478 0-.965-.009-1.428-.048-2.166-.34-6.297-1.052-10.363h.008c-.671-4.065-1.772-8.074-2.59-10.224zM101.9 62.834c-.057.244-.114.479-.186.722a1.33 1.33 0 0 0 .946 1.623q.17.05.34.049a1.33 1.33 0 0 0 1.287-.998c.065-.26.138-.528.194-.787 1.635-6.987.535-14.258-3.075-20.466a1.323 1.323 0 0 0-1.813-.479 1.33 1.33 0 0 0-.477 1.818 25.28 25.28 0 0 1 2.776 18.518zM82.849 80.225c.25.219.558.324.866.324.38 0 .744-.162 1.003-.454 1.586-1.842 3.423-3.417 5.471-4.642.138-.081.259-.146.397-.227.477-.252 2.031-1.201 1.035-2.394-.744-.885-2.16-.057-2.452.13h.008c-.056.032-.13.08-.194.113a25.2 25.2 0 0 0-6.28 5.283c-.478.56-.42 1.396.138 1.875zM63.854 136.623c3.982-9.324.996-18.445-1.893-27.266-1.198-3.668-2.445-7.457-3.14-11.166a1.33 1.33 0 0 0-1.554-1.063 1.335 1.335 0 0 0-1.06 1.558c.728 3.879 1.998 7.75 3.22 11.507 2.865 8.74 5.56 16.985 1.975 25.384-1.716 4.017-4.516 7.685-8.627 11.255-.704.617-.575 1.745.25 2.175.009 0 .017.008.025.016a1.33 1.33 0 0 0 1.465-.178c4.419-3.839 7.446-7.815 9.331-12.222z"/>
  <path fill="#e8e0d3" d="M94.575 106.728s-.08-.495-.34-1.177c0-.032-.024-.056-.032-.081-.672-1.728-2.436-4.487-6.636-3.424l3.714-.95s.114-.024.162-.048a1.324 1.324 0 0 0 .842-1.68 172 172 0 0 1-1.44-4.569c-.745-2.5-.308-5.129 1.157-7.068a6.8 6.8 0 0 1 2.023-1.818c5.973-3.49 10.61-8.626 13.443-14.785 0 0 .898-1.485-.615-1.972l-4.945-1.834a1.317 1.317 0 0 0-1.773.64c-2.169 4.626-5.673 8.44-10.116 11.037-1.773 1.03-3.302 2.443-4.556 4.18-2.825 3.903-3.659 9.129-2.226 13.957.502 1.704 1.093 3.53 1.497 4.731 3.254 9.925 8.7 26.552 1.166 44.211a55 55 0 0 1-2.202 4.56 1.332 1.332 0 1 0 2.34 1.274 57 57 0 0 0 2.306-4.788c7.065-16.546 3.366-32.021.089-42.473h.024l.065-.033c.445-.138 2.436-.56 3.342 2.256 2.744 9.584 5.536 23.874-.259 39.244-.259.69.081 1.453.777 1.72.162.057.324.09.47.09.534 0 1.035-.333 1.246-.86 5.973-15.8 3.286-30.415.493-40.356zm-8.797-10.355h-.008c-1.198-4.057-.51-8.407 1.83-11.645 1.035-1.428 2.297-2.588 3.746-3.432a27.9 27.9 0 0 0 10.367-10.59c.324-.56.891-.771 1.692-.439 1.473.61.218 2.476.218 2.476A30.5 30.5 0 0 1 92.698 83.6c-1.06.617-2.007 1.47-2.8 2.508-1.975 2.613-2.574 6.135-1.579 9.446q.326 1.083.785 2.532l-2.573.722c-.251-.787-.51-1.623-.753-2.427zM68.75 138.734c3.853-9.016 2.202-17.772.34-24.394a1.33 1.33 0 0 0-1.642-.917 1.343 1.343 0 0 0-.923 1.647c1.853 6.582 3.278 14.429-.227 22.617-1.764 4.13-4.483 7.944-8.246 11.555-.696.666-.462 1.843.445 2.183a1.334 1.334 0 0 0 1.416-.276c4.022-3.854 6.936-7.96 8.846-12.415z"/>
  <path fill="#e8e0d3" d="m74.294 113.163-1.61 1.404c-.38.325-.542.844-.43 1.331 1.798 7.303 2.534 15.459-1.06 23.874-1.747 4.074-4.208 7.815-7.485 11.321a1.335 1.335 0 0 0 .639 2.199c.47.121.971-.025 1.303-.382 3.488-3.741 6.118-7.725 7.98-12.099 4.273-9.998 2.938-19.419.647-27.656zM104.327 102.2v-.025a94 94 0 0 0-.768-2.564v-.024c-.421-1.412-1.805-.917-1.805-.917l-.51.162-.639.195-1.287.39a1.2 1.2 0 0 1-.397.064c-.493 0-.963-.276-1.19-.73-.129-.382-.242-.747-.355-1.096a196 196 0 0 1-1.441-4.544c-.251-.844-.09-1.737.42-2.32.114-.139.243-.244.357-.31v.033c8.635-5.047 14.907-13.138 17.659-22.754a1.33 1.33 0 0 0-.915-1.648 1.324 1.324 0 0 0-1.642.918c-2.558 8.966-8.393 16.49-16.446 21.188-.364.219-.704.503-1.02.844-1.108 1.274-1.48 3.124-.97 4.852.356 1.201.841 2.751 1.464 4.618q.45 1.338.923 2.848a1.323 1.323 0 0 0 1.667.86l3.788-1.168.59 2.037c2.307 8.058 4.274 17.601 3.78 27.404a5 5 0 0 1-.049.552 56 56 0 0 1-.194 2.361c-.048.455-.105.901-.162 1.363a1.34 1.34 0 0 1-1.505 1.161c-.049 0-.105-.024-.146-.033a1.34 1.34 0 0 1-.979-1.485c.057-.438.113-.86.162-1.29 0-.089.024-.195.024-.284.696-7.766-.056-15.897-2.258-24.669a1.346 1.346 0 0 0-1.61-.974 1.35 1.35 0 0 0-.972 1.615c2.242 8.91 2.922 17.106 2.08 24.929-.024.17-.032.333-.056.503-.057.917.032 2.865 1.772 3.676h.024c.057.024.106.049.162.065.025 0 .049.008.057.024.032.008.065.025.113.049.437.146.963.162 1.587.243 4.774.56 4.604-7.214 4.604-7.319.575-10.355-1.481-20.361-3.908-28.776z"/>
  <path fill="#e8e0d3" d="M85.576 130.992v-.025a1.336 1.336 0 0 0-1.473 1.177 41.8 41.8 0 0 1-2.42 10.046c-.162.341-.81 1.591-1.886.885-.768-.503-.704-1.363-.55-1.956 5.204-14.014 1.117-26.877-2.007-36.436l4.111-1.006c1.117-.13.834-.982.834-.982-1.157-3.985-2.647-8.586-2.647-10.639-.008-3.611 2.088-7.66 2.088-7.66a1.335 1.335 0 0 0-.72-1.753l-4.969-1.834a1.333 1.333 0 0 0-1.772.649c-1.44 3.116-2.307 6.46-2.59 9.965-.227 2.89.728 6.565 1.99 10.55.333 1.055.689 2.126 1.037 3.229 3.14 9.6 7.445 22.73 1.48 36.688 0 0-.647 1.372.187 1.777l5.22 2.313c1.36.641 1.942-.925 1.942-.925a45 45 0 0 0 3.326-12.57 1.34 1.34 0 0 0-1.173-1.477zm-9.51-29.547h.009c-.049-.146-.09-.3-.13-.438l-.777-3.035c-.663-2.45-1.06-4.642-.922-6.346a26.6 26.6 0 0 1 1.02-5.51 17 17 0 0 1 .542-1.647c.388-.966 1.06-1.136 1.7-.893.647.244 1.165.747.84 1.664-.104.3-.218.616-.331.973-.057.163-.105.333-.162.52a28 28 0 0 0-.98 5.12c-.17 1.72.632 5.21 1.506 8.107l.146.552a1.364 1.364 0 0 1-.834 1.696c-.647.227-1.367-.106-1.635-.755zM36.111 116.003s-.008-.048-.024-.056h.024c-2.59-7.937-5.252-16.035-4.313-27.713 1.14-14.29 6.498-27.566 15.498-38.384a1.33 1.33 0 0 0-2.04-1.704C35.901 59.401 30.341 73.19 29.151 88.031c-.915 11.442 1.44 19.525 3.941 27.218 0 .024.008.057.025.081 0 0 .477 1.355-.866 1.753-.947.284-1.408-.341-1.587-.706-2.565-7.912-5.106-16.717-4.167-28.549.202-2.588.55-5.201 1.02-7.741a1.335 1.335 0 0 0-1.061-1.559 1.33 1.33 0 0 0-1.554 1.064 78 78 0 0 0-1.06 8.017c-1.06 13.284 2.056 22.803 4.88 31.413 0 0 .397 1.307 1.7.901l4.953-1.607s1.383-.389.752-2.313zM59.84 131.86c1.368-5.794.526-12.456-2.444-19.249-4.961-11.344-4.362-25.903-4.354-26.073a1.38 1.38 0 0 0-1.303-1.436 1.375 1.375 0 0 0-1.432 1.306c-.033.625-.648 15.346 4.58 27.299 2.736 6.248 3.529 12.302 2.29 17.52-1.181 4.991-4.184 9.267-8.95 12.765-.761.56-.737 1.712.048 2.232.008 0 .016.008.024.016.47.308 1.093.3 1.546-.033 5.301-3.887 8.652-8.691 9.987-14.347z"/>
  <path fill="#e8e0d3" d="M34.444 88.445c-.89 11.142 2.25 20.717 4.775 28.419.024.064.048.138.065.202l2.533-.787c-.025-.081-.057-.162-.081-.251-2.444-7.466-5.495-16.766-4.646-27.372a63.7 63.7 0 0 1 3.416-16.157l-2.558-.747a66.4 66.4 0 0 0-3.504 16.685zM27.379 74.463a1.331 1.331 0 0 0 1.643-.925c5.13-18.324 16.785-33.588 32.858-42.969a30.6 30.6 0 0 1 15.409-4.171c.728 0 1.327-.593 1.327-1.34 0-.746-.59-1.338-1.327-1.338a33.23 33.23 0 0 0-16.745 4.536c-16.663 9.73-28.77 25.562-34.08 44.56h-.008a1.347 1.347 0 0 0 .923 1.647"/>
  <path fill="#e8e0d3" d="M63.23 48.974v.024a1.335 1.335 0 0 0 .22-1.874 1.324 1.324 0 0 0-1.87-.203C49.028 57.04 41.072 72.329 39.753 88.867a44 44 0 0 0-.09 5.396 1.324 1.324 0 0 0 1.328 1.274h.057a1.334 1.334 0 0 0 1.27-1.395 41 41 0 0 1 .081-5.072c1.255-15.8 8.854-30.415 20.84-40.08z"/>
  <path fill="#e8e0d3" d="M60.544 56.926a1.33 1.33 0 0 0-1.886.106c-7.81 8.78-12.64 20.247-13.604 32.249-.558 6.962.898 13.373 2.687 19.24 0 0 .332 1.469 1.66 1.039 1.326-.414.865-1.899.865-1.899-1.691-5.599-3.06-11.693-2.55-18.161h-.007c.914-11.418 5.503-22.316 12.94-30.675a1.34 1.34 0 0 0-.105-1.89z"/>
</svg>