<?xml version="1.0" encoding="UTF-8"?>
<svg id="Calque_1" xmlns="http://www.w3.org/2000/svg" version="1.1" viewBox="0 0 395.35 469.96">
  <!-- Generator: Adobe Illustrator 29.8.3, SVG Export Plug-In . SVG Version: 2.1.1 Build 3)  -->
  <defs>
    <style>
      .st0 {
        fill: #191814;
      }
    </style>
  </defs>
  <g>
    <path class="st0" d="M128.48,376.76c-20.3-15.01-30.48-43.51-31.57-46.71-.77-2.26-2.94-2.92-4.59-2.4-1.89.6-2.94,2.62-2.38,4.52.03.09.06.18.09.26,1.93,5.64,12.54,34.22,34.12,50.18.65.48,1.41.71,2.16.71,1.12,0,2.22-.51,2.93-1.48,1.2-1.62.85-3.9-.76-5.09Z"/>
    <path class="st0" d="M140.02,372.93c1.29-1.54,1.08-3.84-.47-5.13-21.95-18.29-29.39-42.65-29.46-42.9-.57-1.93-2.59-3.03-4.52-2.46-1.93.57-3.03,2.59-2.46,4.52.32,1.08,8.07,26.67,31.78,46.42.68.57,1.51.84,2.33.84,1.04,0,2.08-.45,2.8-1.31Z"/>
    <path class="st0" d="M143.96,360.94c.66.51,1.44.75,2.21.75,1.09,0,2.18-.49,2.89-1.43,1.22-1.6.92-3.88-.68-5.1-.15-.12-15.2-11.82-25.05-35.51-.77-1.86-2.9-2.74-4.76-1.96-1.86.77-2.74,2.9-1.96,4.76,10.59,25.47,26.67,37.98,27.35,38.5Z"/>
    <path class="st0" d="M152.13,339.96c-.05-.05-5.46-5.37-11.74-16.91-5.81-10.67-13.58-29-17.6-55.72-.3-1.99-2.15-3.36-4.14-3.06-1.99.3-3.36,2.15-3.06,4.14,8.09,53.79,30.54,75.88,31.49,76.79.7.68,1.61,1.01,2.52,1.01.95,0,1.91-.37,2.62-1.11,1.39-1.44,1.35-3.75-.09-5.14Z"/>
    <path class="st0" d="M145.79,299.74v-.02s-.04-.08-.04-.08h0c-.91-2.1-3.11-2.67-4.75-2.01-1.32.54-2.89,2.23-2,4.75h0s.03.07.08.19v.03s.11.23.11.23h0c.43,1.05,1.74,4.28,5.32,13.1.57,1.41,1.94,2.27,3.37,2.27.46,0,.92-.09,1.37-.27,1.86-.76,2.76-2.88,2-4.74l-5.46-13.45Z"/>
    <path class="st0" d="M290.45,248.06c6.64-5.12,23.31-19.45,26.23-36.1.35-1.98-.98-3.87-2.96-4.21-1.98-.35-3.87.98-4.21,2.96-3.05,17.42-25.65,33.19-25.88,33.34l-2.78,1.91,1.7,2.92c16,27.52,20.06,58.64,20.65,79.9.64,23.19-2.59,40.03-2.62,40.2-.39,1.97.9,3.89,2.87,4.27.24.05.47.07.7.07,1.71,0,3.23-1.2,3.57-2.94.14-.71,3.4-17.66,2.76-41.61-.58-21.44-4.56-52.53-20.03-80.71Z"/>
    <path class="st0" d="M308.33,249.18c-.81-1.84-2.95-2.68-4.79-1.88-1.84.81-2.68,2.95-1.88,4.79.12.28,12.39,28.63,14.9,57.11.17,1.9,1.76,3.32,3.62,3.32.11,0,.21,0,.32-.01,2-.18,3.48-1.94,3.31-3.95-2.61-29.7-14.95-58.19-15.48-59.39Z"/>
    <path class="st0" d="M219.56,163.35c-27.83,16.22-46.06,46-48.73,79.66-1.15,14.55,3.43,29.44,8.57,45.15l2.46,7.5s.88,3.89,4.4,2.76c.21-.06.43-.15.61-.24l12.58-5.01c3.52-1.09,2.31-5.04,2.31-5.04,0,0-7.17-21.81-8.69-29.74h.03c-.03-.18-.09-.33-.15-.52-1.4-6.74-.82-14.13-.79-14.58.58-9.05,4.77-21.21,4.77-21.21.33-1.7-.61-3.43-2.31-4.01-1.67-.61-3.49.15-4.31,1.7,0,0-.52,1.31-.73,1.97,0,0-1.18,3.46-1.18,3.77-1.64,5.62-2.76,11.42-3.31,17.41-.03.36-.06.73-.09,1.12v.15c-.3,5.65,1.15,15.52,1.15,15.52,1.18,6.08,5.1,18.71,7.35,25.79l-6.59,2.7c-5.2-15.83-10.09-30.78-8.99-44.66,2.52-31.35,19.41-59.06,45.24-74.1,4.07-2.37,6.99-6.2,8.2-10.79,1.22-4.56.55-9.33-1.82-13.43-4.92-8.45-15.77-11.3-24.21-6.38-28.98,16.89-50.49,45.84-59,79.41-.49,1.88.67,3.83,2.55,4.31,1.88.49,3.83-.67,4.31-2.55,2.67-10.57,6.71-20.63,11.91-29.99l5.77,4.1c-7.87,14.37-12.79,30.59-14.16,47.73-.15,1.94,1.31,3.65,3.25,3.8h.27c1.82,0,3.37-1.4,3.52-3.25,2.89-35.97,22.39-67.84,52.22-85.22,1.7-.97,2.25-3.16,1.28-4.83-.97-1.7-3.16-2.25-4.83-1.28-15.77,9.17-28.83,22.15-38.37,37.52v-.06l-5.95-3.65c10.24-16.47,24.21-30.29,40.77-39.92,5.04-2.95,11.58-1.22,14.52,3.83,1.43,2.46,1.82,5.32,1.09,8.05-.73,2.73-2.46,5.04-4.92,6.47Z"/>
    <path class="st0" d="M254.04,130.99c-8.2-14.1-23.45-22.85-39.77-22.85-8.11,0-16.13,2.16-23.15,6.26-1.7.97-2.25,3.16-1.28,4.83.97,1.7,3.16,2.25,4.83,1.28,5.95-3.46,12.73-5.29,19.6-5.29,13.79,0,26.7,7.41,33.66,19.32,5.23,8.99,6.65,19.47,4.01,29.53-2.64,10.06-9.05,18.47-18.05,23.7-6.38,3.74-12.12,8.51-17.07,14.22-1.28,1.49-1.12,3.71.36,4.98.67.58,1.49.85,2.31.85,1,0,1.97-.43,2.67-1.22v.03c4.44-5.13,9.57-9.42,15.28-12.73,10.63-6.2,18.2-16.13,21.33-28.01,3.13-11.88,1.46-24.27-4.74-34.91Z"/>
    <path class="st0" d="M201.3,213.48c6.53-15.55,14.64-23.45,29.01-31.81,7.35-4.28,12.61-11.18,14.77-19.41,2.16-8.23,1-16.8-3.28-24.15-5.68-9.75-16.25-15.83-27.53-15.83-5.62,0-11.15,1.49-16.01,4.34-6.26,3.65-12.27,7.84-17.89,12.43-1.52,1.25-1.73,3.46-.49,4.98h-.03c1.25,1.52,3.46,1.73,4.98.49,5.32-4.37,11.03-8.35,16.98-11.79,3.8-2.22,8.08-3.37,12.46-3.37,8.78,0,16.98,4.71,21.42,12.3,3.34,5.71,4.25,12.4,2.55,18.81-1.7,6.41-5.77,11.76-11.48,15.1-15.52,9.05-24.58,17.89-31.72,34.6,0,0-2.25,4.37,1.15,5.65,3.95,1.49,5.1-2.34,5.1-2.34Z"/>
    <path class="st0" d="M121.28,173.98c-1.79-.79-3.89,0-4.68,1.79-1.34,3.04-3.59,8.72-3.62,8.78-.79,1.79,0,3.89,1.79,4.68,1.79.79,3.89,0,4.68-1.79,1.34-3.04,3.59-8.72,3.62-8.78.79-1.79,0-3.89-1.79-4.68Z"/>
    <path class="st0" d="M176.91,89.92h-.03c-13.61,7.93-26.16,17.65-37.28,28.89-1.37,1.4-1.37,3.62,0,5.01.7.7,1.58,1.03,2.49,1.03s1.82-.36,2.52-1.06c10.69-10.82,22.76-20.14,35.82-27.77,10.27-5.98,21.97-9.14,33.84-9.14,18.9,0,37.03,8.05,49.82,22.09,1.31,1.46,3.55,1.55,5.01.24,1.46-1.31,1.55-3.55.24-5.01-14.1-15.49-34.18-24.4-55.05-24.4-13.12,0-26.07,3.49-37.4,10.12Z"/>
    <path class="st0" d="M257.2,191.3c.64.49,1.4.73,2.13.73,1.06,0,2.13-.49,2.83-1.4l.03-.03c4.77-6.29,8.23-13.4,10.27-21.11,4.1-15.55,1.91-31.75-6.2-45.63-10.75-18.44-30.65-29.86-52.01-29.86-10.63,0-21.08,2.83-30.29,8.17-25.58,14.89-46.88,36.61-61.64,62.83-.97,1.7-.36,3.86,1.34,4.83,1.7.97,3.86.36,4.83-1.34,14.16-25.09,34.57-45.91,59.06-60.18,8.11-4.71,17.35-7.23,26.7-7.23,18.84,0,36.4,10.09,45.87,26.37,7.14,12.24,9.08,26.55,5.47,40.28-1.79,6.84-4.86,13.09-9.05,18.62-1.18,1.55-.88,3.77.67,4.95Z"/>
    <path class="st0" d="M290.83,129.54v.03s1.09,3.95,4.92,2.64c3.4-1.15,1.76-4.98,1.76-4.98-1.64-5.01-3.8-9.9-6.53-14.55-.97-1.7-3.16-2.25-4.83-1.28-1.7.97-2.25,3.16-1.28,4.83,2.49,4.25,4.47,8.72,5.95,13.31Z"/>
    <path class="st0" d="M294.57,140.32h0c1.5,8.58,1.56,17.26.26,25.86-.32,2.14,1.33,4.06,3.49,4.06h0c1.74,0,3.23-1.27,3.5-2.99,1.43-9.35,1.33-18.79-.27-28.15-.33-1.91-2.16-3.22-4.1-2.89-1.91.33-3.22,2.16-2.89,4.1Z"/>
    <path class="st0" d="M231.14,283.72c-.73-1.88-2.79-2.79-4.62-2.04-1.82.73-2.7,2.79-2.01,4.62,2.1,5.41,4.86,15.65,6.56,26.01,1.79,10.36,2.55,20.87,2.64,26.31,0,1.18.03,2.37.03,3.58,0,1.88,1.34,3.46,3.1,3.71h.39c1.94,0,3.59-1.67,3.59-3.77,0-1.28,0-2.55-.03-3.8-.12-5.74-.91-16.71-2.8-27.49l.03.03c-1.79-10.82-4.71-21.45-6.9-27.16Z"/>
    <path class="st0" d="M279.78,169.4h0c-.15.64-.3,1.28-.49,1.91-.49,1.88.64,3.83,2.52,4.31.3.09.61.12.91.12,1.58,0,3.01-1.06,3.43-2.64.18-.7.36-1.4.52-2.1,4.34-18.53,1.43-37.82-8.17-54.29-.97-1.7-3.16-2.25-4.83-1.28-1.7.97-2.25,3.16-1.28,4.83,8.69,14.92,11.3,32.36,7.38,49.13Z"/>
    <path class="st0" d="M229.1,215.54c.67.58,1.49.85,2.31.85,1,0,1.97-.43,2.67-1.22,4.22-4.89,9.11-9.05,14.55-12.3.36-.21.7-.39,1.06-.61,1.28-.67,5.41-3.19,2.76-6.35-1.97-2.34-5.74-.15-6.53.33h.03c-.15.09-.33.21-.52.3-6.26,3.71-11.88,8.42-16.71,14.01-1.28,1.49-1.12,3.71.36,4.98Z"/>
    <path class="st0" d="M178.58,365.17c10.6-24.73,2.64-48.94-5.04-72.34-3.19-9.72-6.5-19.78-8.35-29.62-.36-1.91-2.22-3.19-4.13-2.83-1.91.36-3.19,2.22-2.83,4.13,1.94,10.3,5.32,20.57,8.57,30.53,7.63,23.18,14.8,45.05,5.26,67.35-4.56,10.65-12.01,20.39-22.94,29.85-1.88,1.63-1.54,4.63.68,5.77.02.01.05.02.07.04,1.27.65,2.81.46,3.89-.47,11.76-10.17,19.81-20.73,24.81-32.42h.03Z"/>
    <path class="st0" d="M260.3,285.84s-.21-1.31-.91-3.13c0-.09-.06-.15-.09-.21-1.79-4.59-6.47-11.91-17.65-9.08l9.87-2.52s.3-.06.43-.12c1.85-.61,2.86-2.61,2.25-4.47-1.61-4.89-2.89-8.96-3.83-12.12-1.98-6.62-.82-13.61,3.07-18.74,1.55-2.04,3.34-3.65,5.38-4.83,15.89-9.27,28.22-22.88,35.76-39.22,0,0,2.4-3.95-1.64-5.23l-13.15-4.86c-1.76-.85-3.89-.09-4.71,1.7-5.77,12.27-15.1,22.39-26.92,29.29-4.71,2.73-8.78,6.47-12.12,11.09-7.5,10.36-9.72,24.21-5.92,37.03,1.34,4.53,2.92,9.36,3.98,12.55,8.66,26.34,23.15,70.45,3.1,117.3-1.76,4.13-3.74,8.2-5.86,12.09-.94,1.73-.3,3.86,1.43,4.8.55.3,1.12.43,1.67.43,1.25,0,2.46-.67,3.13-1.85,2.22-4.1,4.28-8.35,6.14-12.7,18.81-43.9,8.96-84.94.24-112.68h.06l.18-.09c1.18-.36,6.47-1.49,8.9,5.98,7.29,25.43,14.73,63.34-.7,104.11-.7,1.82.21,3.86,2.07,4.56.43.15.85.24,1.25.24,1.43,0,2.76-.88,3.31-2.28,15.89-41.93,8.75-80.69,1.31-107.06v.03ZM236.91,258.38l-.03-.03c-3.19-10.72-1.37-22.27,4.86-30.87,2.76-3.8,6.11-6.87,9.96-9.11,11.67-6.81,21.11-16.47,27.59-28.1.85-1.49,2.37-2.04,4.5-1.15,3.92,1.61.58,6.56.58,6.56-6.99,11.82-16.89,21.72-29.07,28.8-2.83,1.64-5.35,3.89-7.44,6.65-5.26,6.93-6.84,16.28-4.19,25.06.58,1.91,1.28,4.16,2.1,6.71l-6.84,1.91c-.67-2.1-1.37-4.31-2.01-6.44Z"/>
    <path class="st0" d="M191.61,370.76c10.24-23.91,5.86-47.15.91-64.71-.52-1.88-2.49-2.98-4.37-2.43-1.88.52-2.98,2.49-2.46,4.37,4.92,17.47,8.72,38.28-.61,60-4.69,10.96-11.93,21.09-21.95,30.67-1.86,1.78-1.23,4.89,1.17,5.8.02,0,.05.02.07.03,1.28.48,2.71.19,3.7-.75,10.69-10.23,18.46-21.11,23.53-32.95v-.03Z"/>
    <path class="st0" d="M206.35,302.92v.03l-4.29,3.7c-1.01.87-1.45,2.24-1.13,3.53,4.79,19.37,6.75,41-2.81,63.34-4.64,10.82-11.2,20.73-19.9,30.04-1.83,1.96-.89,5.17,1.71,5.84,1.25.32,2.58-.07,3.46-1.01,9.27-9.92,16.29-20.5,21.24-32.1,11.36-26.52,7.81-51.53,1.73-73.37Z"/>
    <path class="st0" d="M286.25,273.84v-.06c-.67-2.31-1.34-4.59-2.04-6.81v-.06c-1.12-3.74-4.8-2.43-4.8-2.43l-1.37.43-1.7.52-3.43,1.03c-.36.12-.73.18-1.06.18-1.31,0-2.55-.73-3.16-1.94-.33-1-.64-1.97-.94-2.92-1.61-4.89-2.89-8.93-3.83-12.06-.67-2.25-.24-4.62,1.12-6.17.3-.36.64-.64.94-.82l-.03.09c23-13.4,39.68-34.85,47-60.37.55-1.88-.55-3.83-2.43-4.37-1.88-.55-3.83.55-4.37,2.43-6.81,23.79-22.33,43.75-43.75,56.2-.97.58-1.88,1.34-2.7,2.25-2.95,3.37-3.95,8.29-2.58,12.88.94,3.19,2.25,7.29,3.89,12.24.79,2.37,1.61,4.89,2.46,7.56.49,1.52,1.88,2.46,3.37,2.46.36,0,.73-.06,1.06-.18l10.09-3.1v.03l1.58,5.38c6.14,21.39,11.36,46.69,10.06,72.7-.03.52-.06,1-.12,1.46-.12,2.1-.3,4.19-.52,6.26-.12,1.22-.27,2.4-.43,3.62-.27,2.01-2.07,3.34-4.01,3.07-.12,0-.27-.06-.39-.09-1.73-.46-2.86-2.16-2.61-3.95.15-1.15.3-2.28.43-3.43,0-.24.06-.52.06-.76,1.85-20.6-.15-42.17-6.02-65.44-.49-1.88-2.4-3.04-4.28-2.58-1.88.49-3.04,2.4-2.58,4.28,5.95,23.64,7.78,45.39,5.53,66.14-.06.46-.09.88-.15,1.34-.15,2.43.09,7.6,4.71,9.75h.06c.15.06.27.12.43.18.06,0,.12.03.15.06.09.03.18.06.3.12,1.15.39,2.55.43,4.22.64,12.7,1.49,12.24-19.14,12.24-19.41,1.52-27.46-3.95-54.02-10.39-76.35Z"/>
    <path class="st0" d="M236.36,350.22v-.06c-1.94-.21-3.71,1.18-3.92,3.13-1.03,9.11-3.19,18.05-6.44,26.64-.43.91-2.16,4.22-5.01,2.34-2.04-1.34-1.88-3.62-1.46-5.2,13.85-37.19,2.98-71.3-5.35-96.67l10.94-2.67c2.98-.33,2.22-2.61,2.22-2.61-3.07-10.57-7.05-22.79-7.05-28.22-.03-9.57,5.56-20.32,5.56-20.32.76-1.82-.09-3.89-1.91-4.65l-13.22-4.86c-1.76-.82-3.89-.06-4.71,1.73-3.83,8.26-6.14,17.13-6.9,26.43-.61,7.66,1.94,17.41,5.29,27.98.88,2.79,1.82,5.65,2.76,8.57,8.35,25.46,19.81,60.31,3.95,97.34,0,0-1.73,3.65.49,4.71l13.88,6.14c3.62,1.7,5.16-2.46,5.16-2.46,4.56-10.66,7.53-21.87,8.84-33.36.21-1.94-1.18-3.71-3.13-3.92ZM211.06,271.84l.03-.03c-.12-.36-.24-.76-.33-1.12l-2.07-8.05c-1.76-6.5-2.83-12.3-2.46-16.83.4-5.01,1.31-9.9,2.7-14.61.24-.85.52-1.76.79-2.58.21-.61.43-1.22.64-1.79,1.03-2.55,2.83-3.01,4.53-2.37,1.73.64,3.1,1.97,2.25,4.41-.27.79-.58,1.64-.88,2.58-.15.43-.27.88-.43,1.37-1.06,3.58-2.07,8.14-2.61,13.58-.46,4.56,1.67,13.82,4.01,21.51l.4,1.46c.58,1.85-.4,3.86-2.22,4.5-1.73.61-3.65-.27-4.34-2.01Z"/>
    <path class="st0" d="M104.78,310.45c0-.06-.03-.12-.06-.15l.06-.03c-6.9-21.02-13.98-42.5-11.48-73.49,3.04-37.91,17.29-73.13,41.23-101.84,1.25-1.49,1.06-3.74-.46-4.98-1.49-1.25-3.74-1.06-4.98.46-24.88,29.86-39.68,66.44-42.84,105.82-2.43,30.35,3.83,51.8,10.48,72.21,0,.06.03.15.06.21,0,0,1.28,3.58-2.31,4.65-2.52.76-3.74-.91-4.22-1.88-6.84-20.99-13.58-44.36-11.09-75.74.55-6.87,1.46-13.79,2.7-20.54.36-1.91-.91-3.77-2.83-4.13-1.91-.36-3.77.91-4.13,2.83-1.31,6.99-2.25,14.16-2.83,21.27-2.83,35.24,5.47,60.49,12.97,83.33,0,0,1.06,3.46,4.53,2.4l13.19-4.25s3.68-1.03,2.01-6.14Z"/>
    <path class="st0" d="M167.9,352.53c3.65-15.38,1.4-33.04-6.51-51.08-13.2-30.1-11.6-68.72-11.58-69.17.09-2.01-1.46-3.71-3.47-3.81-2.02-.09-3.71,1.46-3.81,3.47-.08,1.65-1.72,40.72,12.19,72.43,7.27,16.58,9.38,32.65,6.1,46.47-3.14,13.24-11.13,24.59-23.81,33.87-2.03,1.48-1.96,4.53.14,5.92.02.01.04.03.07.04,1.25.83,2.9.79,4.11-.09,14.1-10.31,23.02-23.06,26.58-38.05Z"/>
    <path class="st0" d="M100.35,237.36c-2.37,29.56,5.98,54.96,12.7,75.4.06.18.12.36.18.55l6.74-2.1c-.06-.21-.15-.43-.21-.67-6.5-19.81-14.61-44.48-12.36-72.61v-.03c1.18-14.73,4.22-29.07,9.08-42.84l-6.81-1.97c-4.98,14.22-8.11,29.04-9.33,44.26Z"/>
    <path class="st0" d="M81.54,200.26c.33.09.64.12.97.12,1.55,0,2.98-1.03,3.4-2.58,13.64-48.61,44.66-89.11,87.4-113.99,12.43-7.23,26.58-11.06,40.98-11.06,1.94,0,3.52-1.58,3.52-3.55s-1.58-3.55-3.52-3.55c-15.62,0-31.02,4.16-44.54,12.03-44.33,25.82-76.53,67.81-90.66,118.21h-.03c-.52,1.88.58,3.83,2.46,4.37Z"/>
    <path class="st0" d="M176.91,132.63l.03.06c1.52-1.22,1.76-3.46.55-4.98-1.22-1.52-3.46-1.76-4.98-.55-33.39,26.86-54.56,67.41-58.06,111.28-.36,4.65-.46,9.48-.24,14.31.09,1.91,1.64,3.37,3.52,3.37h.15c1.94-.09,3.46-1.73,3.37-3.71-.21-4.56-.12-9.08.21-13.46,3.34-41.93,23.54-80.69,55.44-106.33Z"/>
    <path class="st0" d="M169.77,153.72c-1.46-1.31-3.71-1.18-5.01.27-20.78,23.3-33.63,53.71-36.18,85.55-1.49,18.47,2.4,35.48,7.14,51.04,0,0,.88,3.89,4.41,2.76,3.52-1.09,2.31-5.04,2.31-5.04-4.5-14.86-8.14-31.02-6.77-48.18l-.03.03c2.43-30.32,14.64-59.24,34.42-81.42,1.31-1.46,1.19-3.71-.27-5.01Z"/>
  </g>
  <g>
    <path class="st0" d="M25.71,176.71l3.22-9.43,23.66-2.45-17.23-16.38,3.22-9.44,21.87,21.71-4.17,12.2-30.58,3.79Z"/>
    <path class="st0" d="M50.95,115.49l4.57-7.81,23.92,14.02-4.57,7.81-23.92-14.01Z"/>
    <path class="st0" d="M71.95,83.67l6.12-6.66,14.8,13.59,12.45-13.55,5.61,5.16-18.57,20.22-20.42-18.75Z"/>
    <path class="st0" d="M113.95,44.59l7.87-4.45,9.89,17.49,16.02-9.06,3.75,6.63-23.89,13.51-13.64-24.12Z"/>
    <path class="st0" d="M182.46,18.96l11.55-.92,16.59,26.48-9.94.79-2.79-4.95-15.73,1.25-1.97,5.33-9.94.79,12.23-28.78ZM194.36,34.12l-5.71-10.13-4.04,10.9,9.75-.78Z"/>
    <path class="st0" d="M231.74,34.78c3.31-8.29,12.31-10.88,22.92-6.63,9.72,3.89,14.67,10.59,12.72,16.82l-8.94-3.57c.21-1.87-2.16-4.55-6.49-6.28-5.54-2.21-9.92-.69-11.47,3.17-1.66,4.15,1.01,7.95,7.19,10.42,2.9,1.16,6.28,2.01,9.44,1.99l.66-1.64-10.55-4.21,2-5,17.41,6.96-4.43,11.08c-5.01,1.02-11.86-.1-17.79-2.47-10.94-4.37-15.95-12.47-12.7-20.62Z"/>
    <path class="st0" d="M297.54,53.96l20.34,19.62-4.73,4.9-13.83-13.33-2.7,2.8,13.27,12.8-4.33,4.49-13.27-12.8-2.75,2.85,13.83,13.33-4.73,4.91-20.34-19.62,19.24-19.95Z"/>
    <path class="st0" d="M336.58,97.68l10.97,19.67c3.69,6.62,2.96,11.31-1.92,14.03-3.33,1.86-6.58,1.24-9.33-1.41,1.59,3.25.9,6.11-2.1,7.78l-5.35,2.98-4.41-7.9,4.04-2.25c2.19-1.22,2.49-2.18,1.29-4.33l-6.13-11-6.86,3.82-4.41-7.9,24.21-13.5ZM335.37,121.75c1.22,2.19,2.48,3.51,4.57,2.34,2.12-1.18,1.63-2.93.41-5.12l-5.55-9.95-4.98,2.78,5.55,9.95Z"/>
    <path class="st0" d="M345.65,158.37l2.44,9.11c-1.93.52-2.66,2.86-1.11,8.66,1.59,5.95,2.7,6.81,4.07,6.44,1.97-.53,1.32-3.26.11-9.27-2.21-10.65-.82-15.72,4.91-17.25,5.47-1.46,9.78,3.64,12.23,12.83,2.8,10.49,1.14,16.95-4.72,18.87l-2.43-9.07c2.01-.54,2.11-3.15.76-8.17-1.27-4.76-2.31-5.68-3.43-5.38-1.75.47-1.29,3.06-.17,9.05,1.76,9.25,2.44,15.52-4.55,17.39-6.73,1.8-10.46-3.5-13.09-13.35-2.87-10.75-2-17.59,4.97-19.86Z"/>
  </g>
  <g>
    <path class="st0" d="M34.79,252.59l.79,14.68-1.82.1-.33-6.14-9.65.52-.13-2.39,9.65-.52-.33-6.15,1.82-.1Z"/>
    <path class="st0" d="M30.71,282.32l-1.28-10.12-4.79.61-.3-2.39,11.39-1.45.3,2.39-4.79.61,1.28,10.12,4.79-.61.3,2.39-11.39,1.45-.3-2.39,4.79-.61Z"/>
    <path class="st0" d="M38.1,286.52l2.49,12.29-1.61.33-2.01-9.93-3.17.64,1.94,9.58-1.52.31-1.94-9.58-3.33.68,2.01,9.93-1.63.33-2.49-12.29,11.26-2.29Z"/>
    <path class="st0" d="M37.33,309.49c3.5-1.11,6.79,1.46,8.26,6.08,1.32,4.14.4,7.79-2.02,8.96l-.77-2.41c1.23-.71,2.01-3.04,1.07-6-1.07-3.36-3.45-4.99-5.79-4.25-2.36.75-3.35,3.48-2.28,6.82.94,2.96,2.94,4.4,4.37,4.27l.77,2.41c-2.66.47-5.55-1.98-6.87-6.13-1.48-4.64-.24-8.63,3.26-9.75Z"/>
    <path class="st0" d="M48.42,325.03l3.72,9.01c1.29,3.12.83,5.02-1.16,5.84-1.45.6-2.75.15-3.77-1.28.68,1.78.3,2.61-1.04,3.17l-2.79,1.15-.91-2.21,2.52-1.04c.96-.4,1.14-1.09.7-2.15l-3.09-7.49-3.88,1.6-.92-2.22,10.62-4.38ZM46.83,335.69c.74,1.79,1.64,2.55,2.94,2.01,1.28-.53,1.31-1.67.57-3.46l-2.61-6.33-3.51,1.45,2.61,6.33Z"/>
    <path class="st0" d="M55.04,340.76l5.66,11.19-1.47.74-4.57-9.04-2.89,1.46,4.41,8.72-1.38.7-4.41-8.72-3.03,1.53,4.57,9.04-1.48.75-5.66-11.19,10.25-5.19Z"/>
    <path class="st0" d="M65.19,359.56l1.67,2.71-6.09,12.01-1.39-2.25,1.44-2.68-4.69-7.6-3.04.08-1.39-2.25,13.48-.02ZM61.69,367.71l3.31-6.18-7.02.17,3.71,6.01Z"/>
    <path class="st0" d="M69.1,366l8.55,11.94-1.48,1.06-3.57-4.99-7.86,5.63-1.39-1.94,7.86-5.63-3.58-5.01,1.48-1.06Z"/>
    <path class="st0" d="M78.86,379.27l1.51,1.88-8.95,7.2-1.51-1.88,8.95-7.2Z"/>
    <path class="st0" d="M81.23,382.51l1.78,1.95-3.53,11.28,11.54-2.49,1.75,1.92-13.13,2.65-2.27-2.5,3.86-12.82Z"/>
    <path class="st0" d="M93.88,396.14l9.27,8.45-1.11,1.21-7.49-6.82-2.18,2.39,7.22,6.58-1.04,1.14-7.22-6.58-2.29,2.51,7.49,6.82-1.12,1.23-9.27-8.45,7.73-8.49Z"/>
    <path class="st0" d="M117.04,423.01l-8.43-5.75-2.72,3.99-1.99-1.36,6.47-9.49,1.99,1.36-2.72,3.99,8.43,5.75,2.72-3.99,1.99,1.36-6.47,9.49-1.99-1.36,2.72-3.99Z"/>
    <path class="st0" d="M121.63,424.94c1.71-3.25,5.73-3.81,10.28-1.42,4.54,2.38,6.36,6.02,4.66,9.26-1.71,3.25-5.73,3.84-10.28,1.45-4.57-2.4-6.37-6.04-4.66-9.29ZM134.37,431.63c1.16-2.22-.04-4.8-3.3-6.51-3.28-1.72-6.07-1.24-7.23.98-1.17,2.23.03,4.81,3.3,6.52,3.25,1.7,6.08,1.22,7.24-1Z"/>
    <path class="st0" d="M138.78,433.88l2.09-5.5,2.25.85-2.07,5.44c-.74,1.95-.61,4.22,3.22,5.68,3.81,1.45,5.43-.17,6.17-2.11l2.07-5.44,2.25.85-2.09,5.5c-1.25,3.28-3.89,4.85-9.04,2.9-5.17-1.96-6.1-4.89-4.85-8.17Z"/>
    <path class="st0" d="M154.27,441.51l2.42.61c-.43,1.7.97,2.76,4.72,3.71,3.28.83,4.73.7,5.05-.55.37-1.45-1.24-1.91-4.97-3.08-4.81-1.51-6.29-2.82-5.71-5.13.56-2.21,3.17-2.56,7.52-1.46,4.7,1.19,6.75,3.05,6.17,5.65l-2.4-.61c.42-1.67-1.17-2.62-4.38-3.43-3.01-.76-4.24-.62-4.5.44-.35,1.38,1.05,1.93,4.4,3,4.51,1.45,7,2.36,6.3,5.14-.66,2.63-3.5,2.79-7.89,1.68-5.02-1.27-7.4-2.92-6.72-5.99Z"/>
    <path class="st0" d="M172.72,438.11l12.43,1.68-.22,1.63-10.04-1.36-.43,3.21,9.69,1.31-.21,1.53-9.69-1.31-.46,3.37,10.04,1.36-.22,1.64-12.43-1.68,1.54-11.38Z"/>
    <path class="st0" d="M194.19,446.14c-.13-3.67,3.09-6.14,8.23-6.32,5.12-.18,8.51,2.08,8.64,5.73.13,3.67-3.07,6.17-8.21,6.35-5.15.18-8.53-2.1-8.66-5.77ZM208.58,445.64c-.09-2.5-2.41-4.15-6.09-4.02-3.7.13-5.88,1.93-5.79,4.43.09,2.52,2.41,4.16,6.09,4.03,3.66-.13,5.88-1.95,5.79-4.45Z"/>
    <path class="st0" d="M212.61,439.51l12.4-1.92.28,1.8-10.02,1.55.58,3.72,8.95-1.38.28,1.8-8.95,1.38.62,4.04-2.38.37-1.76-11.35Z"/>
    <path class="st0" d="M235.57,441.09c-1.17-3.48,1.22-6.77,6.1-8.4,4.86-1.62,8.75-.41,9.91,3.05,1.17,3.48-1.19,6.79-6.07,8.42-4.89,1.63-8.77.4-9.94-3.08ZM249.22,436.53c-.79-2.38-3.49-3.29-6.98-2.13-3.51,1.17-5.09,3.52-4.3,5.9.8,2.39,3.49,3.31,6.99,2.14,3.48-1.16,5.09-3.53,4.29-5.91Z"/>
    <path class="st0" d="M253.9,434.89l-2.53-5.31,2.17-1.03,2.5,5.26c.9,1.89,2.63,3.36,6.33,1.6,3.68-1.75,3.63-4.04,2.74-5.91l-2.5-5.26,2.17-1.03,2.53,5.31c1.51,3.17.82,6.16-4.16,8.53-5,2.38-7.75,1.02-9.26-2.15Z"/>
    <path class="st0" d="M266.25,422.38l12.51-7.71.95,1.55-5.23,3.23,5.08,8.23-2.03,1.25-5.08-8.23-5.24,3.23-.96-1.55Z"/>
    <path class="st0" d="M280.07,413.74l6.58-5.06c3.06-2.36,6.81-2.16,8.83.46,2.01,2.61,1.24,6.3-1.82,8.65l-6.58,5.06-7.01-9.11ZM291.8,416.92c2.49-1.92,3.16-4.38,1.71-6.27-1.44-1.87-4-1.87-6.5.04l-3.93,3.02,4.79,6.22,3.93-3.02Z"/>
    <path class="st0" d="M297.22,407.7c-2.53-2.66-1.76-6.65,1.96-10.19,3.71-3.53,7.74-4.09,10.26-1.44,2.53,2.66,1.8,6.66-1.92,10.2-3.74,3.56-7.77,4.09-10.3,1.43ZM307.65,397.77c-1.73-1.81-4.56-1.5-7.22,1.04-2.68,2.55-3.12,5.35-1.39,7.16,1.74,1.82,4.57,1.51,7.23-1.03,2.66-2.53,3.11-5.36,1.38-7.17Z"/>
    <path class="st0" d="M310.99,394.41c-2.79-2.38-2.45-6.43.88-10.34,3.32-3.9,7.27-4.88,10.05-2.51,2.79,2.38,2.49,6.44-.84,10.35-3.34,3.93-7.29,4.88-10.09,2.5ZM320.32,383.44c-1.91-1.62-4.69-1.02-7.07,1.79-2.4,2.82-2.54,5.65-.63,7.27,1.92,1.63,4.7,1.03,7.08-1.78,2.38-2.79,2.53-5.66.62-7.28Z"/>
    <path class="st0" d="M318.68,376.28l5.58-8c1.93-2.77,3.78-3.41,5.55-2.17,1.28.9,1.61,2.24.96,3.87,1.13-1.53,2.04-1.67,3.23-.83l2.47,1.73-1.37,1.96-2.24-1.56c-.85-.59-1.53-.37-2.19.57l-4.64,6.64,3.44,2.4-1.38,1.97-9.42-6.58ZM328.52,371.87c1.11-1.59,1.26-2.75.11-3.56-1.14-.79-2.11-.21-3.22,1.38l-3.92,5.61,3.11,2.18,3.92-5.61Z"/>
    <path class="st0" d="M337.1,358.89c-3.25-1.71-3.74-5.86-1.48-10.15,2.02-3.85,5.26-5.76,7.79-4.85l-1.18,2.24c-1.37-.38-3.58.7-5.02,3.45-1.64,3.12-1.13,5.96,1.05,7.1,2.19,1.15,4.83-.06,6.45-3.16,1.44-2.75,1.06-5.18-.04-6.1l1.18-2.24c2.21,1.56,2.49,5.34.47,9.19-2.26,4.31-5.98,6.23-9.23,4.53Z"/>
    <path class="st0" d="M345.78,342.38l-5.43-2.28.93-2.22,5.37,2.26c1.93.81,4.2.75,5.79-3.02,1.58-3.76.01-5.43-1.9-6.23l-5.37-2.26.93-2.22,5.43,2.28c3.24,1.36,4.72,4.05,2.58,9.13-2.14,5.1-5.1,5.92-8.34,4.56Z"/>
    <path class="st0" d="M346.86,324.27l.77-2.28,9.16,3.08,3.05-9.08,1.72.58-3.82,11.36-10.89-3.66Z"/>
    <path class="st0" d="M350,315.2l3.96-14.15,1.75.49-1.65,5.92,9.31,2.61-.64,2.3-9.31-2.61-1.66,5.94-1.75-.49Z"/>
    <path class="st0" d="M360.19,300.29l-5.78-1.15.47-2.36,5.71,1.14c2.05.41,4.27-.1,5.07-4.12.8-4-1.07-5.33-3.11-5.73l-5.71-1.14.47-2.36,5.78,1.15c3.44.69,5.44,3.02,4.36,8.43-1.08,5.43-3.82,6.83-7.26,6.14Z"/>
    <path class="st0" d="M357.67,282.35l1.17-9.69c.4-3.35,1.73-4.79,3.87-4.53,1.55.19,2.47,1.22,2.66,2.96.28-1.89,1.02-2.43,2.46-2.26l2.99.36-.29,2.37-2.71-.33c-1.03-.12-1.53.4-1.66,1.54l-.97,8.04,4.17.5-.29,2.39-11.4-1.37ZM364.28,273.83c.23-1.93-.18-3.03-1.58-3.19-1.38-.17-1.96.81-2.19,2.74l-.82,6.8,3.77.45.82-6.8Z"/>
    <path class="st0" d="M359.6,265.36l.63-12.53,1.64.08-.51,10.12,3.23.16.49-9.76,1.55.08-.49,9.76,3.39.17.51-10.12,1.66.08-.63,12.53-11.47-.57Z"/>
  </g>
</svg>