<svg width="144" height="179" viewBox="0 0 144 179" fill="none" xmlns="http://www.w3.org/2000/svg">
<path d="M3.97374 51.5868L5.37384 47.3264L14.7456 56.5044L13.1432 61.3734L0.153809 63.2074L1.55391 58.9471L10.6748 57.8759L3.96564 51.5949L3.97374 51.5868Z" fill="#E8E0D3"/>
<path d="M20.7589 43.6504L10.7559 37.4343L12.8115 34.1072L22.8145 40.3232L20.7589 43.6504Z" fill="#E8E0D3"/>
<path d="M27.7998 27.6882L33.8696 21.675L36.6131 24.4585L27.7674 33.2227L19.5044 24.8318L22.2803 22.0808L27.7998 27.6882Z" fill="#E8E0D3"/>
<path d="M45.0301 14.5097L52.7347 10.8417L54.4099 14.3798L43.1767 19.7276L38.1348 9.07262L41.6633 7.39282L45.0301 14.5097Z" fill="#E8E0D3"/>
<path d="M72.4573 0L78.1467 11.5719L73.6227 11.7342L72.6677 9.78665L66.8569 9.98953L66.0395 12.002L61.5479 12.1643L66.3956 0.210989L72.4573 0ZM68.1275 6.54067L71.1624 6.43517L69.5276 3.40017L68.1275 6.54067Z" fill="#E8E0D3"/>
<path d="M92.431 8.64232L101.333 12.2048L98.776 18.6156L95.8625 17.4471L96.3157 16.311C95.6844 16.5301 95.0127 16.6031 94.2843 16.5382C93.556 16.4733 92.5767 16.1892 91.3466 15.6942C90.2378 15.2479 89.2909 14.7691 88.514 14.2498C87.737 13.7304 87.122 13.2111 86.6768 12.6755C86.2317 12.1399 85.9242 11.5718 85.7542 10.9632C85.5843 10.3546 85.5195 9.75407 85.5762 9.16168C85.6328 8.56929 85.7947 7.93632 86.0537 7.27089C86.3531 6.50808 86.7659 5.867 87.2757 5.33953C87.7856 4.81206 88.3521 4.42254 88.9753 4.16286C89.5985 3.90318 90.2783 3.74899 91.0228 3.70031C91.7593 3.6435 92.52 3.70031 93.297 3.83826C94.0739 3.98433 94.867 4.21966 95.6763 4.54426C96.7851 4.99059 97.7158 5.43691 98.4685 5.89946C99.2211 6.3539 99.8038 6.83268 100.225 7.3277C100.645 7.82271 100.953 8.31772 101.147 8.81274C101.341 9.30775 101.463 9.86768 101.511 10.5088L97.6672 10.2897C97.4406 9.31586 96.3481 8.43945 94.3976 7.66041C93.6531 7.36016 93.0056 7.17351 92.4553 7.10048C91.905 7.02744 91.4518 7.0599 91.0957 7.19786C90.7396 7.33581 90.4482 7.53057 90.2297 7.78214C90.0112 8.0337 89.817 8.3583 89.6551 8.76405C89.5094 9.13734 89.4285 9.47816 89.4123 9.77842C89.3961 10.0787 89.4771 10.3952 89.6389 10.7279C89.8008 11.0606 90.1164 11.3852 90.5777 11.7098C91.039 12.0344 91.646 12.3427 92.4067 12.6511C92.9328 12.8621 93.3941 13.0163 93.7907 13.1218C94.1872 13.2273 94.5109 13.2679 94.7861 13.2597C95.0532 13.2435 95.2555 13.2273 95.385 13.1867C95.5145 13.1542 95.6844 13.0893 95.903 12.9919L91.4032 11.1904L92.431 8.61798V8.64232Z" fill="#E8E0D3"/>
<path d="M113.489 14.7774L122.926 23.7201L120.684 26.0978L114.08 19.8411L113.368 20.5958L119.551 26.463L117.398 28.7433L111.215 22.8761L110.486 23.6471L117.09 29.9037L114.849 32.2814L105.412 23.3387L113.497 14.7693L113.489 14.7774Z" fill="#E8E0D3"/>
<path d="M130.323 33.2957L134.515 40.875C134.62 41.0698 134.718 41.2564 134.807 41.4431C134.896 41.6216 135.001 41.8894 135.122 42.2384C135.244 42.5873 135.333 42.92 135.381 43.2284C135.43 43.5367 135.446 43.8938 135.414 44.2914C135.389 44.6891 135.3 45.0624 135.146 45.4113C135.001 45.7521 134.758 46.1092 134.434 46.4581C134.111 46.8152 133.69 47.1317 133.18 47.4157C131.561 48.3165 130.048 48.3327 128.656 47.4563L126.794 51.2622L124.625 47.3021L126.066 44.1941L124.35 41.0941L121.914 42.4493L120.021 39.0248L130.307 33.3038L130.323 33.2957ZM129.489 43.2527C129.959 44.1048 130.517 44.3482 131.165 43.9912C131.747 43.6666 131.796 43.058 131.302 42.1653L129.214 38.3919L127.369 39.4225L129.489 43.2608V43.2527Z" fill="#E8E0D3"/>
<path d="M142.649 62.5583C142.891 63.5808 143.078 64.4653 143.207 65.2038C143.328 65.9422 143.401 66.6158 143.401 67.2163C143.401 67.8168 143.353 68.3037 143.248 68.6932C143.142 69.0827 142.948 69.4235 142.673 69.7319C142.398 70.0322 142.074 70.2756 141.702 70.4541C141.329 70.6327 140.852 70.795 140.277 70.9329L139.306 66.8836C139.476 66.843 139.606 66.7781 139.695 66.6969C139.776 66.6158 139.84 66.4535 139.881 66.2262C139.921 65.999 139.913 65.6582 139.84 65.1956C139.768 64.7412 139.646 64.1488 139.476 63.4185C139.241 62.4447 139.055 61.7468 138.902 61.3086C138.748 60.8704 138.626 60.6026 138.537 60.4971C138.44 60.3916 138.319 60.3591 138.149 60.3997C138.011 60.4484 137.955 60.6188 137.971 60.9191C137.987 61.2193 138.117 62.112 138.343 63.5889C138.343 63.6132 138.343 63.6295 138.343 63.6457C138.804 66.5752 139.031 68.4497 139.031 69.2694C139.031 70.3405 138.78 71.0952 138.278 71.5253C137.93 71.8175 137.396 72.0528 136.652 72.2232C136.134 72.3449 135.689 72.418 135.341 72.4261C134.985 72.4342 134.645 72.3693 134.313 72.2232C133.981 72.0771 133.69 71.858 133.455 71.5578C133.22 71.2575 132.969 70.8193 132.718 70.2513C132.468 69.6751 132.233 69.0097 132.006 68.255C131.788 67.4922 131.537 66.5427 131.262 65.3985C131.076 64.6114 130.922 63.9297 130.808 63.3535C130.695 62.7774 130.606 62.2337 130.541 61.7224C130.477 61.2112 130.452 60.7892 130.46 60.4403C130.469 60.0913 130.517 59.7667 130.606 59.4746C130.695 59.1743 130.817 58.9309 130.954 58.7442C131.092 58.5576 131.302 58.3791 131.561 58.2087C131.82 58.0464 132.103 57.9084 132.411 57.7948C132.718 57.6893 133.091 57.5838 133.528 57.4783L134.467 61.4141C134.28 61.4546 134.151 61.5196 134.062 61.6088C133.981 61.69 133.932 61.8523 133.924 62.1038C133.916 62.3473 133.949 62.68 134.021 63.0939C134.094 63.5077 134.224 64.092 134.402 64.8386C134.426 64.9279 134.45 65.0577 134.499 65.2281C134.798 66.4697 135.001 67.2163 135.106 67.476C135.211 67.7356 135.389 67.833 135.624 67.7762C135.761 67.7437 135.834 67.6301 135.834 67.4354C135.834 67.2406 135.761 66.7131 135.616 65.8611C135.511 65.2362 135.43 64.725 135.365 64.3111C135.268 63.6538 135.195 63.1507 135.138 62.8017C135.09 62.4528 135.033 62.0146 134.968 61.4952C134.904 60.9759 134.871 60.5782 134.871 60.3023C134.871 60.0264 134.871 59.7018 134.871 59.3123C134.871 58.9309 134.92 58.6388 134.993 58.4278C135.065 58.2168 135.163 57.9896 135.276 57.738C135.389 57.4864 135.535 57.2917 135.721 57.1456C135.907 56.9995 136.126 56.8616 136.368 56.7317C136.619 56.5938 136.903 56.4883 137.218 56.4152C137.599 56.326 137.947 56.2692 138.262 56.2529C138.578 56.2367 138.869 56.2529 139.128 56.2854C139.387 56.326 139.638 56.4152 139.865 56.5451C140.091 56.6749 140.294 56.821 140.48 56.9833C140.666 57.1456 140.836 57.3728 141.006 57.665C141.176 57.9571 141.321 58.2492 141.451 58.5414C141.58 58.8416 141.718 59.2149 141.856 59.6612C142.001 60.1076 142.123 60.5539 142.244 60.9921C142.357 61.4303 142.495 61.9578 142.641 62.5664L142.649 62.5583Z" fill="#E8E0D3"/>
<path d="M13.2484 122.755L14.7941 126.967L1.76429 125.612L0 120.799L9.03996 111.272L10.5857 115.484L4.10319 122.009L13.2484 122.755Z" fill="#E8E0D3"/>
<path d="M9.07227 140.332L18.9944 133.986L21.0905 137.289L11.1684 143.635L9.07227 140.332Z" fill="#E8E0D3"/>
<path d="M23.0974 152.456L29.1186 158.51L26.3508 161.277L17.5698 152.448L25.8976 144.114L28.6573 146.889L23.0893 152.456H23.0974Z" fill="#E8E0D3"/>
<path d="M40.6594 166.357L48.2345 170.293L46.4379 173.766L35.3989 168.037L40.8051 157.56L44.2689 159.362L40.6513 166.357H40.6594Z" fill="#E8E0D3"/>
<path d="M69.6085 166.795L73.7521 179.008L69.2443 178.578L68.5483 176.517L62.7617 175.965L61.6935 177.856L57.2261 177.434L63.571 166.219L69.6085 166.795ZM64.4694 172.719L67.4881 173.003L66.2579 169.781L64.4613 172.719H64.4694Z" fill="#E8E0D3"/>
<path d="M87.6643 169.408L96.8175 166.56L98.857 173.157L95.8625 174.09L95.4984 172.922C95.1504 173.49 94.6729 173.977 94.0659 174.382C93.4589 174.788 92.5201 175.186 91.2495 175.583C90.1084 175.941 89.0725 176.16 88.1418 176.249C87.2111 176.338 86.4017 176.314 85.7219 176.184C85.0421 176.046 84.4432 175.803 83.9334 175.437C83.4154 175.072 82.9946 174.65 82.6627 174.155C82.3309 173.66 82.0639 173.068 81.8534 172.386C81.6106 171.607 81.5216 170.852 81.5864 170.122C81.6511 169.392 81.8453 168.726 82.1772 168.134C82.5009 167.542 82.9379 166.99 83.4721 166.478C84.0143 165.967 84.6294 165.529 85.3254 165.156C86.0214 164.782 86.7902 164.466 87.6157 164.206C88.7568 163.849 89.7604 163.614 90.6344 163.492C91.5004 163.37 92.2611 163.37 92.9005 163.492C93.5398 163.614 94.0902 163.801 94.5515 164.06C95.0128 164.32 95.4579 164.685 95.8949 165.148L92.771 167.404C91.986 166.795 90.5859 166.795 88.5869 167.42C87.818 167.655 87.1949 167.923 86.7255 168.207C86.2561 168.491 85.9243 168.807 85.73 169.14C85.5439 169.473 85.4387 169.806 85.4225 170.138C85.4063 170.471 85.4629 170.844 85.5924 171.266C85.7138 171.648 85.8595 171.964 86.0456 172.208C86.2237 172.451 86.4827 172.646 86.8145 172.8C87.1463 172.954 87.5995 173.011 88.1579 172.97C88.7164 172.93 89.3881 172.792 90.165 172.548C90.7073 172.378 91.1686 172.208 91.5327 172.045C91.905 171.875 92.1883 171.705 92.3906 171.526C92.5929 171.347 92.7305 171.201 92.8115 171.096C92.8924 170.99 92.9814 170.828 93.0947 170.617L88.4655 172.053L87.6481 169.408H87.6643Z" fill="#E8E0D3"/>
<path d="M101.884 158.006L112.081 149.94L114.104 152.513L106.974 158.153L107.622 158.972L114.307 153.689L116.249 156.156L109.564 161.439L110.22 162.267L117.35 156.627L119.373 159.199L109.176 167.266L101.892 158.006H101.884Z" fill="#E8E0D3"/>
<path d="M117.56 144.065L122.497 136.948C122.626 136.762 122.748 136.591 122.877 136.437C122.999 136.275 123.193 136.064 123.452 135.804C123.711 135.544 123.97 135.317 124.221 135.13C124.48 134.944 124.787 134.781 125.159 134.627C125.532 134.473 125.904 134.392 126.276 134.376C126.649 134.36 127.069 134.416 127.531 134.554C127.992 134.692 128.461 134.928 128.939 135.26C130.46 136.323 131.14 137.67 130.962 139.31H135.187L132.597 143.01L129.182 143.083L127.167 145.996L129.449 147.587L127.223 150.8L117.56 144.065ZM126.843 140.421C127.401 139.618 127.369 139.009 126.77 138.587C126.22 138.206 125.653 138.433 125.07 139.269L122.61 142.815L124.342 144.024L126.843 140.421Z" fill="#E8E0D3"/>
<path d="M131.359 119.46C131.723 118.47 132.055 117.635 132.362 116.945C132.67 116.255 132.985 115.663 133.309 115.159C133.633 114.656 133.948 114.275 134.256 114.015C134.563 113.747 134.911 113.569 135.3 113.472C135.697 113.374 136.093 113.35 136.514 113.407C136.927 113.463 137.412 113.593 137.971 113.796L136.538 117.708C136.368 117.643 136.231 117.626 136.109 117.651C135.996 117.675 135.858 117.772 135.688 117.935C135.527 118.105 135.349 118.397 135.154 118.811C134.96 119.233 134.733 119.793 134.474 120.491C134.135 121.424 133.9 122.122 133.787 122.568C133.673 123.015 133.625 123.307 133.641 123.445C133.665 123.583 133.754 123.68 133.908 123.737C134.046 123.778 134.191 123.664 134.345 123.404C134.491 123.145 134.879 122.333 135.51 120.978C135.51 120.954 135.527 120.945 135.543 120.937C136.781 118.243 137.623 116.555 138.076 115.874C138.667 114.981 139.29 114.494 139.945 114.413C140.391 114.364 140.973 114.47 141.685 114.729C142.187 114.916 142.592 115.103 142.891 115.289C143.191 115.476 143.442 115.728 143.636 116.028C143.83 116.336 143.951 116.677 143.984 117.058C144.016 117.44 143.984 117.943 143.871 118.56C143.765 119.176 143.595 119.866 143.361 120.621C143.126 121.376 142.81 122.309 142.406 123.412C142.131 124.167 141.88 124.824 141.653 125.368C141.426 125.912 141.208 126.415 140.973 126.877C140.747 127.34 140.536 127.705 140.334 127.989C140.132 128.273 139.913 128.517 139.678 128.711C139.436 128.906 139.209 129.044 138.982 129.125C138.756 129.206 138.489 129.239 138.181 129.231C137.874 129.231 137.566 129.182 137.25 129.101C136.935 129.02 136.571 128.906 136.15 128.752L137.542 124.954C137.72 125.019 137.865 125.044 137.979 125.019C138.092 124.995 138.222 124.889 138.367 124.686C138.513 124.492 138.667 124.2 138.829 123.81C138.99 123.421 139.209 122.869 139.476 122.138C139.508 122.057 139.549 121.927 139.614 121.757C140.051 120.556 140.301 119.826 140.35 119.55C140.399 119.274 140.31 119.095 140.083 119.014C139.945 118.965 139.824 119.014 139.719 119.184C139.614 119.347 139.387 119.826 139.031 120.613C138.772 121.189 138.561 121.66 138.383 122.041C138.1 122.641 137.89 123.104 137.736 123.421C137.582 123.737 137.388 124.135 137.153 124.605C136.919 125.076 136.724 125.425 136.571 125.652C136.417 125.879 136.239 126.155 136.02 126.472C135.802 126.788 135.607 127.007 135.429 127.137C135.251 127.267 135.041 127.405 134.814 127.551C134.58 127.697 134.353 127.778 134.118 127.794C133.884 127.811 133.633 127.803 133.35 127.778C133.066 127.754 132.775 127.681 132.467 127.567C132.103 127.429 131.779 127.283 131.504 127.121C131.229 126.959 130.994 126.788 130.8 126.61C130.606 126.431 130.444 126.22 130.331 125.993C130.218 125.758 130.128 125.522 130.064 125.287C129.999 125.052 129.983 124.768 129.999 124.435C130.023 124.102 130.056 123.778 130.112 123.461C130.169 123.145 130.266 122.755 130.396 122.301C130.525 121.846 130.663 121.408 130.808 120.978C130.954 120.548 131.132 120.037 131.351 119.452L131.359 119.46Z" fill="#E8E0D3"/>
<path d="M45.0214 140.989C37.3897 135.333 33.5617 124.589 33.157 123.388C32.8657 122.536 32.0563 122.284 31.4332 122.487C30.721 122.715 30.3244 123.477 30.5348 124.191C30.5429 124.224 30.5591 124.256 30.5672 124.289C31.2956 126.415 35.2774 137.192 43.3947 143.205C43.6375 143.383 43.9208 143.473 44.204 143.473C44.6249 143.473 45.0376 143.278 45.3047 142.913C45.7579 142.304 45.6284 141.444 45.0214 140.989Z" fill="#E8E0D3"/>
<path d="M49.3592 139.545C49.8448 138.961 49.7639 138.101 49.1812 137.614C40.9343 130.724 38.1341 121.538 38.1098 121.449C37.8913 120.726 37.1387 120.304 36.4103 120.524C35.6819 120.735 35.2692 121.497 35.4877 122.228C35.6091 122.633 38.5226 132.282 47.4331 139.724C47.692 139.935 47.9996 140.04 48.3071 140.04C48.6956 140.04 49.0921 139.87 49.3592 139.545Z" fill="#E8E0D3"/>
<path d="M50.8403 135.033C51.0912 135.22 51.3825 135.317 51.6739 135.317C52.0866 135.317 52.4913 135.13 52.7583 134.781C53.2196 134.181 53.1063 133.321 52.4994 132.858C52.4427 132.818 46.7856 128.403 43.079 119.477C42.7877 118.779 41.9865 118.446 41.2904 118.738C40.5944 119.03 40.2626 119.834 40.554 120.532C44.5358 130.132 50.5813 134.846 50.8322 135.041L50.8403 135.033Z" fill="#E8E0D3"/>
<path d="M53.9077 127.121C53.9077 127.121 51.8521 125.1 49.4889 120.742C47.3038 116.717 44.3822 109.812 42.8768 99.7409C42.7635 98.9944 42.0675 98.475 41.323 98.5886C40.5784 98.7022 40.0605 99.4001 40.1738 100.147C43.2168 120.418 51.6497 128.744 52.0139 129.093C52.281 129.344 52.6209 129.474 52.9608 129.474C53.3169 129.474 53.6811 129.336 53.9482 129.052C54.4742 128.508 54.458 127.64 53.9158 127.113L53.9077 127.121Z" fill="#E8E0D3"/>
<path d="M51.5284 111.962L51.5203 111.922C51.1804 111.134 50.3468 110.915 49.7398 111.167C49.2462 111.37 48.6554 112.011 48.9872 112.96C48.9872 112.96 48.9953 112.985 49.0195 113.033V113.05L49.06 113.139C49.2219 113.536 49.7155 114.754 51.059 118.073C51.2775 118.608 51.7874 118.933 52.3296 118.933C52.4996 118.933 52.6776 118.9 52.8476 118.836C53.5517 118.552 53.8835 117.748 53.6002 117.05L51.5446 111.978L51.5284 111.962Z" fill="#E8E0D3"/>
<path d="M105.906 92.4861C108.399 90.5548 114.671 85.1583 115.763 78.8773C115.893 78.1307 115.399 77.4166 114.655 77.2868C113.91 77.1569 113.198 77.652 113.068 78.3985C111.919 84.9636 103.421 90.9118 103.34 90.9686L102.296 91.6909L102.936 92.7864C108.949 103.157 110.478 114.892 110.697 122.901C110.94 131.641 109.726 137.987 109.71 138.052C109.564 138.798 110.05 139.512 110.786 139.658C110.875 139.675 110.964 139.683 111.053 139.683C111.692 139.683 112.267 139.228 112.397 138.571C112.445 138.303 113.675 131.917 113.432 122.885C113.214 114.802 111.717 103.084 105.906 92.4618V92.4861Z" fill="#E8E0D3"/>
<path d="M112.631 92.9C112.332 92.2021 111.522 91.8856 110.826 92.194C110.13 92.4943 109.815 93.3058 110.122 94.0036C110.171 94.1091 114.784 104.797 115.723 115.533C115.787 116.247 116.386 116.782 117.082 116.782C117.123 116.782 117.163 116.782 117.204 116.782C117.956 116.717 118.515 116.052 118.45 115.297C117.471 104.099 112.825 93.3626 112.631 92.9081V92.9Z" fill="#E8E0D3"/>
<path d="M79.2636 60.5539C68.7992 66.6726 61.9525 77.8875 60.9489 90.5793C60.5119 96.065 62.2357 101.672 64.17 107.596L65.0926 110.429C65.0926 110.429 65.4244 111.897 66.7517 111.467C66.8326 111.443 66.9135 111.41 66.9783 111.378L71.7046 109.487C73.0319 109.073 72.5706 107.588 72.5706 107.588C72.5706 107.588 69.8756 99.3678 69.301 96.3815H69.3091C69.301 96.3166 69.2767 96.2517 69.2524 96.1868C68.7264 93.6468 68.9449 90.8633 68.953 90.6929C69.1715 87.2765 70.7496 82.6997 70.7496 82.6997C70.8791 82.0586 70.523 81.4094 69.8837 81.1903C69.2524 80.9631 68.5726 81.2471 68.2651 81.8314C68.2651 81.8314 68.0708 82.3264 67.9899 82.578C67.9899 82.578 67.5448 83.8845 67.5448 83.9981C66.9297 86.1161 66.5089 88.3071 66.2985 90.5631C66.2904 90.701 66.2742 90.839 66.2661 90.9851V91.0419C66.1528 93.168 66.7031 96.8928 66.7031 96.8928C67.1482 99.1812 68.6212 103.945 69.4709 106.615L66.9945 107.637C65.044 101.672 63.2069 96.0407 63.6116 90.8065C64.5584 78.9911 70.9115 68.5472 80.6151 62.8748C82.1447 61.9822 83.2453 60.5377 83.6986 58.8092C84.1518 57.0888 83.9009 55.2954 83.0106 53.7455C81.1573 50.5644 77.0865 49.4851 73.9059 51.3434C63.0127 57.7137 54.9277 68.6202 51.7309 81.2796C51.5448 81.9856 51.9818 82.724 52.694 82.9026C53.3981 83.0892 54.1346 82.651 54.3126 81.9369C55.3162 77.9524 56.8377 74.1627 58.7881 70.6327L60.957 72.1746C58.0031 77.5873 56.1497 83.7059 55.6318 90.1655C55.5751 90.8958 56.1255 91.5369 56.8538 91.5937H56.959C57.647 91.5937 58.2297 91.0662 58.2863 90.3683C59.3708 76.8082 66.7031 64.7981 77.9201 58.2493C78.5595 57.8841 78.7618 57.0564 78.3976 56.4315C78.0334 55.7904 77.2079 55.5876 76.5847 55.9527C70.6606 59.4097 65.7481 64.303 62.1629 70.0971V70.0728L59.9211 68.7014C63.7734 62.4934 69.0258 57.2836 75.2494 53.6562C77.1432 52.5445 79.6035 53.2018 80.7122 55.1007C81.2464 56.0258 81.4001 57.1051 81.125 58.1357C80.8498 59.1663 80.2023 60.0346 79.2716 60.5783L79.2636 60.5539Z" fill="#E8E0D3"/>
<path d="M92.2201 48.3571C89.1367 43.0417 83.4068 39.7471 77.2722 39.7471C74.2212 39.7471 71.2105 40.5586 68.5722 42.1085C67.9328 42.4737 67.7305 43.3014 68.0947 43.9263C68.4589 44.5674 69.2844 44.7702 69.9075 44.4051C72.1493 43.0986 74.6906 42.4088 77.2722 42.4088C82.4599 42.4088 87.3076 45.2003 89.9298 49.6879C91.8964 53.08 92.4306 57.032 91.4351 60.8216C90.4397 64.6113 88.0279 67.7843 84.6531 69.7562C82.2576 71.1682 80.0967 72.9616 78.2353 75.1121C77.7578 75.672 77.8145 76.5079 78.3729 76.9867C78.6238 77.2058 78.9313 77.3113 79.2389 77.3113C79.6192 77.3113 79.9834 77.149 80.2424 76.8568C81.9096 74.9336 83.8438 73.3187 85.9885 72.069C89.9865 69.7319 92.8271 65.9909 94.0087 61.5114C95.1822 57.032 94.559 52.3658 92.2282 48.3571H92.2201Z" fill="#E8E0D3"/>
<path d="M72.4002 79.4456C74.8524 73.5866 77.9035 70.6084 83.3096 67.4598C86.0775 65.8449 88.0522 63.2481 88.8615 60.1401C89.6708 57.0401 89.2419 53.8104 87.6313 51.0351C85.4948 47.359 81.5211 45.0706 77.2884 45.0706C75.1761 45.0706 73.0962 45.6305 71.2671 46.7098C68.9121 48.0812 66.6541 49.6636 64.5418 51.3921C63.9672 51.8628 63.8944 52.6986 64.3557 53.2667H64.3476C64.817 53.8428 65.6506 53.9159 66.2171 53.4533C68.2161 51.806 70.3607 50.3047 72.6025 49.0063C74.0269 48.1705 75.6374 47.7323 77.2884 47.7323C80.5904 47.7323 83.6738 49.5094 85.341 52.374C86.5954 54.5245 86.9434 57.0482 86.3041 59.4584C85.6647 61.8767 84.1351 63.8892 81.9905 65.147C76.1554 68.5634 72.7482 71.8905 70.0694 78.1877C70.0694 78.1877 69.2277 79.8351 70.5064 80.3139C71.9874 80.8738 72.4244 79.4293 72.4244 79.4293L72.4002 79.4456Z" fill="#E8E0D3"/>
<path d="M42.3184 64.5627C41.6466 64.2625 40.8535 64.5627 40.5622 65.2363C40.0604 66.3805 39.2106 68.5228 39.2025 68.5472C38.9031 69.2207 39.2025 70.016 39.8743 70.3081C40.546 70.6084 41.3391 70.3081 41.6305 69.6346C42.1322 68.4904 42.982 66.348 42.9901 66.3237C43.2895 65.6501 42.9901 64.8549 42.3184 64.5627Z" fill="#E8E0D3"/>
<path d="M63.2228 32.8736H63.2147C58.0999 35.8599 53.3817 39.5279 49.2056 43.7639C48.6958 44.2914 48.6958 45.1272 49.2056 45.6547C49.4646 45.9144 49.7964 46.0442 50.1444 46.0442C50.4924 46.0442 50.8323 45.9062 51.0913 45.6466C55.1136 41.5729 59.6457 38.051 64.5582 35.1783C68.4186 32.9223 72.8131 31.7294 77.2805 31.7294C84.3862 31.7294 91.2006 34.7644 96.0079 40.0554C96.5015 40.6072 97.3432 40.6396 97.8936 40.1446C98.4439 39.6496 98.4763 38.8056 97.9826 38.2538C92.6816 32.4111 85.1308 29.0596 77.2886 29.0596C72.3518 29.0596 67.4879 30.3742 63.2309 32.8736H63.2228Z" fill="#E8E0D3"/>
<path d="M93.4101 71.0871C93.6529 71.2738 93.9361 71.363 94.2113 71.363C94.6079 71.363 95.0125 71.1764 95.2715 70.8356H95.2796C97.0762 68.4498 98.3711 65.7718 99.14 62.8667C100.686 57.0077 99.8603 50.8971 96.8092 45.6629C92.7626 38.7084 85.2846 34.4075 77.2563 34.4075C73.2583 34.4075 69.3332 35.4705 65.8694 37.4912C56.2548 43.0986 48.2507 51.2866 42.6989 61.1706C42.3347 61.8117 42.5613 62.6232 43.2007 62.9884C43.84 63.3536 44.6493 63.1263 45.0135 62.4853C50.3388 53.0232 58.011 45.1841 67.2128 39.8039C70.2639 38.0267 73.7358 37.0773 77.2482 37.0773C84.3296 37.0773 90.9336 40.8751 94.4945 47.0181C97.1814 51.6355 97.9098 57.0239 96.5502 62.2012C95.8785 64.7818 94.7211 67.1351 93.143 69.2207C92.6979 69.805 92.8112 70.6408 93.3939 71.0871H93.4101Z" fill="#E8E0D3"/>
<path d="M106.051 47.8052C106.051 47.8052 106.464 49.3065 107.905 48.8114C109.183 48.3732 108.568 46.9369 108.568 46.9369C107.953 45.0461 107.144 43.204 106.116 41.4512C105.752 40.8101 104.926 40.6072 104.303 40.9724C103.664 41.3376 103.461 42.1653 103.826 42.7901C104.764 44.3969 105.501 46.0767 106.067 47.8052H106.051Z" fill="#E8E0D3"/>
<path d="M107.46 51.8709C108.026 55.1169 108.05 58.3953 107.557 61.6413C107.435 62.4366 108.067 63.1507 108.868 63.1507C109.515 63.1507 110.082 62.68 110.187 62.039C110.729 58.5089 110.689 54.9465 110.09 51.4165C109.96 50.6942 109.281 50.1992 108.544 50.3291C107.824 50.4589 107.33 51.1405 107.46 51.8709Z" fill="#E8E0D3"/>
<path d="M83.6095 105.925C83.3343 105.219 82.5574 104.87 81.8776 105.154C81.1897 105.43 80.8579 106.209 81.1249 106.89C81.91 108.927 82.954 112.79 83.5933 116.693C84.265 120.596 84.5564 124.557 84.5888 126.61C84.5888 127.056 84.5969 127.502 84.5969 127.965C84.5969 128.671 85.0986 129.271 85.7623 129.361H85.9079C86.6363 129.361 87.2595 128.728 87.2595 127.94C87.2595 127.462 87.2595 126.975 87.2514 126.512C87.2028 124.346 86.9115 120.215 86.1993 116.149H86.2074C85.5357 112.084 84.435 108.075 83.6176 105.925H83.6095Z" fill="#E8E0D3"/>
<path d="M101.9 62.8341C101.843 63.0776 101.786 63.3129 101.714 63.5564C101.527 64.2624 101.956 65.0008 102.66 65.1794C102.774 65.2118 102.887 65.228 103 65.228C103.591 65.228 104.133 64.8304 104.287 64.2299C104.352 63.9702 104.425 63.7024 104.481 63.4428C106.116 56.4558 105.016 49.1848 101.406 42.9768C101.042 42.3357 100.216 42.1328 99.5932 42.498C98.9538 42.8632 98.7515 43.6909 99.1157 44.3158C102.385 49.9394 103.365 56.5126 101.892 62.8341H101.9Z" fill="#E8E0D3"/>
<path d="M82.8486 80.2246C83.0995 80.4437 83.4071 80.5492 83.7146 80.5492C84.095 80.5492 84.4592 80.3869 84.7181 80.0948C86.3044 78.2527 88.1415 76.6784 90.1891 75.453C90.3266 75.3719 90.448 75.3069 90.5856 75.2258C91.0631 74.9742 92.617 74.0248 91.6215 72.8319C90.877 71.9473 89.4607 72.7751 89.1693 72.9617H89.1774C89.1208 72.9942 89.0479 73.0429 88.9832 73.0753C86.6281 74.4711 84.5158 76.2483 82.703 78.3582C82.2255 78.9181 82.2821 79.7539 82.8406 80.2327L82.8486 80.2246Z" fill="#E8E0D3"/>
<path d="M63.8543 136.623C67.8361 127.299 64.8497 118.178 61.9605 109.357C60.7627 105.689 59.5164 101.9 58.8204 98.191C58.6828 97.4688 57.9868 96.99 57.2665 97.1279C56.5462 97.2659 56.0687 97.9638 56.2063 98.686C56.9347 102.565 58.2053 106.436 59.4274 110.193C62.2923 118.933 64.9873 127.178 61.4021 135.577C59.6863 139.594 56.8861 143.262 52.7749 146.832C52.0708 147.449 52.2003 148.577 53.0257 149.007C53.0338 149.007 53.0419 149.015 53.05 149.023C53.5275 149.267 54.1021 149.194 54.5149 148.845C58.9337 145.006 61.9605 141.03 63.8462 136.623H63.8543Z" fill="#E8E0D3"/>
<path d="M94.5753 106.728C94.5753 106.728 94.4944 106.233 94.2354 105.551C94.2354 105.519 94.2111 105.495 94.203 105.47C93.5313 103.742 91.767 100.983 87.5667 102.046L91.2814 101.096C91.2814 101.096 91.3947 101.072 91.4433 101.048C92.1393 100.82 92.5197 100.066 92.285 99.3678C91.678 97.5257 91.2005 95.9919 90.8444 94.799C90.0998 92.2996 90.5369 89.6704 92.0017 87.7309C92.5844 86.96 93.2561 86.3595 94.025 85.9131C99.9977 82.4237 104.635 77.2869 107.468 71.1277C107.468 71.1277 108.366 69.6426 106.853 69.1557L101.908 67.3217C101.244 66.9971 100.443 67.2893 100.135 67.9628C97.9663 72.5884 94.462 76.4024 90.0189 78.9992C88.2465 80.0298 86.7169 81.4418 85.4625 83.1784C82.638 87.0817 81.8044 92.3077 83.2369 97.1361C83.7387 98.8403 84.3295 100.666 84.7341 101.867C87.9876 111.792 93.4342 128.419 85.8995 146.078C85.2359 147.636 84.4913 149.169 83.6982 150.638C83.3421 151.287 83.5849 152.091 84.2324 152.448C84.4347 152.561 84.6532 152.61 84.8636 152.61C85.333 152.61 85.7862 152.359 86.0371 151.912C86.8707 150.37 87.6477 148.764 88.3437 147.124C95.4089 130.578 91.7104 115.103 88.4327 104.651H88.457L88.5217 104.618C88.9668 104.48 90.9577 104.058 91.8641 106.874C94.6077 116.458 97.3998 130.748 91.6052 146.118C91.3462 146.808 91.6861 147.571 92.3821 147.838C92.544 147.895 92.7058 147.928 92.8515 147.928C93.3856 147.928 93.8874 147.595 94.0978 147.068C100.071 131.268 97.3836 116.653 94.5915 106.712L94.5753 106.728ZM85.7781 96.3733H85.7701C84.5723 92.3159 85.2602 87.9662 87.5991 84.7284C88.635 83.3001 89.8975 82.1397 91.3462 81.2957C95.7326 78.7314 99.2855 75.0878 101.713 70.7057C102.037 70.1458 102.604 69.9348 103.405 70.2675C104.878 70.8761 103.623 72.7425 103.623 72.7425C100.993 77.1977 97.2703 80.9305 92.6977 83.6004C91.6375 84.2171 90.6906 85.0692 89.8975 86.1079C87.9228 88.7209 87.3239 92.2428 88.3194 95.5537C88.5379 96.276 88.7969 97.1199 89.1044 98.0856L86.5308 98.8078C86.2799 98.0207 86.0209 97.1848 85.7781 96.3814V96.3733Z" fill="#E8E0D3"/>
<path d="M68.7506 138.734C72.6029 129.718 70.9519 120.962 69.0905 114.34C68.8963 113.634 68.1517 113.22 67.4476 113.423C66.7435 113.618 66.3308 114.364 66.525 115.07C68.3783 121.652 69.8027 129.499 66.2984 137.687C64.5341 141.817 61.8149 145.631 58.0516 149.242C57.3556 149.908 57.5903 151.085 58.4967 151.425C58.5048 151.425 58.5129 151.425 58.521 151.433C58.9985 151.612 59.5407 151.506 59.913 151.149C63.9352 147.295 66.8487 143.189 68.7587 138.734H68.7506Z" fill="#E8E0D3"/>
<path d="M74.2944 113.163L72.6839 114.567C72.3035 114.892 72.1416 115.411 72.2549 115.898C74.0516 123.201 74.7881 131.357 71.1948 139.772C69.4467 143.846 66.9864 147.587 63.7087 151.093C63.0208 151.831 63.3769 153.04 64.348 153.292C64.8174 153.413 65.3192 153.267 65.651 152.91C69.1391 149.169 71.7694 145.185 73.6308 140.811C77.9039 130.813 76.5686 121.392 74.2782 113.155L74.2944 113.163Z" fill="#E8E0D3"/>
<path d="M104.327 102.2V102.175C104.077 101.307 103.826 100.447 103.559 99.6111V99.5868C103.138 98.1747 101.754 98.6698 101.754 98.6698L101.244 98.8321L100.605 99.0268L99.3178 99.4163C99.1802 99.465 99.0427 99.4813 98.9213 99.4813C98.4276 99.4813 97.9582 99.2053 97.7316 98.7509C97.6021 98.3695 97.4888 98.0043 97.3755 97.6554C96.7685 95.8133 96.291 94.2877 95.9349 93.111C95.684 92.267 95.8459 91.3744 96.3557 90.7901C96.4691 90.6522 96.5985 90.5467 96.7118 90.4818V90.5142C105.347 85.4667 111.619 77.3761 114.371 67.7598C114.573 67.0538 114.169 66.3154 113.456 66.1125C112.752 65.9096 112.016 66.3154 111.814 67.0295C109.256 75.9965 103.421 83.5191 95.3684 88.2177C95.0042 88.4368 94.6643 88.7208 94.3487 89.0616C93.2399 90.3357 92.8676 92.1859 93.3775 93.9144C93.7336 95.1154 94.2192 96.6654 94.8423 98.5318C95.1418 99.4244 95.4493 100.374 95.765 101.38C95.9511 101.956 96.4691 102.305 97.0356 102.305C97.1732 102.305 97.3107 102.281 97.4321 102.24L101.22 101.072L101.81 103.109C104.117 111.167 106.084 120.71 105.59 130.513C105.582 130.708 105.566 130.894 105.541 131.065C105.493 131.852 105.428 132.647 105.347 133.426C105.299 133.881 105.242 134.327 105.185 134.789C105.08 135.544 104.408 136.047 103.68 135.95C103.631 135.95 103.575 135.926 103.534 135.917C102.887 135.747 102.458 135.106 102.555 134.432C102.612 133.994 102.668 133.572 102.717 133.142C102.717 133.053 102.741 132.947 102.741 132.858C103.437 125.092 102.685 116.961 100.483 108.189C100.297 107.483 99.5849 107.044 98.8727 107.215C98.1686 107.401 97.7316 108.116 97.9015 108.83C100.143 117.74 100.823 125.936 99.9814 133.759C99.9572 133.929 99.9491 134.092 99.9248 134.262C99.8681 135.179 99.9572 137.127 101.697 137.938H101.721C101.778 137.962 101.827 137.987 101.883 138.003C101.908 138.003 101.932 138.011 101.94 138.027C101.972 138.035 102.005 138.052 102.053 138.076C102.49 138.222 103.016 138.238 103.64 138.319C108.414 138.879 108.244 131.105 108.244 131C108.819 120.645 106.763 110.639 104.336 102.224L104.327 102.2Z" fill="#E8E0D3"/>
<path d="M85.5759 130.992V130.967C84.8475 130.886 84.1839 131.414 84.103 132.144C83.7145 135.577 82.9052 138.944 81.6832 142.19C81.5213 142.531 80.8738 143.781 79.7975 143.075C79.0286 142.572 79.0934 141.712 79.2471 141.119C84.451 127.105 80.364 114.242 77.2401 104.683L81.3513 103.677C82.4682 103.547 82.1849 102.695 82.1849 102.695C81.0276 98.7104 79.5385 94.1092 79.5385 92.0561C79.5304 88.445 81.6265 84.3956 81.6265 84.3956C81.9098 83.7058 81.5941 82.9268 80.9062 82.6428L75.9371 80.8088C75.2734 80.5004 74.4722 80.7845 74.1647 81.458C72.7241 84.5741 71.8582 87.9175 71.5749 91.4232C71.3483 94.3121 72.3033 97.9882 73.5658 101.973C73.8976 103.028 74.2537 104.099 74.6017 105.202C77.7418 114.802 82.0473 127.932 76.0828 141.89C76.0828 141.89 75.4353 143.262 76.2689 143.667L81.4889 145.98C82.8486 146.621 83.4313 145.055 83.4313 145.055C85.147 141.038 86.2638 136.81 86.7575 132.485C86.8384 131.755 86.3124 131.089 85.584 131.008L85.5759 130.992ZM76.0666 101.445H76.0747C76.0261 101.299 75.9856 101.145 75.9452 101.007L75.1682 97.972C74.5046 95.5212 74.108 93.3302 74.2456 91.6261C74.3913 89.7353 74.7393 87.8932 75.2654 86.116C75.3544 85.7914 75.4596 85.4506 75.5648 85.1422C75.6457 84.915 75.7267 84.6878 75.8076 84.4686C76.1961 83.503 76.8678 83.3326 77.5071 83.576C78.1546 83.8195 78.6725 84.3226 78.3488 85.2396C78.2436 85.5398 78.1303 85.8563 78.017 86.2134C77.9603 86.3757 77.9118 86.5461 77.8551 86.7327C77.4586 88.0879 77.0782 89.8002 76.8759 91.8533C76.7059 93.5736 77.5071 97.0631 78.3812 99.9601L78.5269 100.512C78.7454 101.21 78.3812 101.965 77.6933 102.208C77.0458 102.435 76.3255 102.102 76.0585 101.453L76.0666 101.445Z" fill="#E8E0D3"/>
<path d="M36.1111 116.003C36.1111 116.003 36.103 115.955 36.0868 115.947H36.1111C33.5213 108.01 30.8587 99.9115 31.7975 88.234C32.9386 73.9436 38.2962 60.6675 47.2957 49.8502C47.7651 49.2903 47.6922 48.4382 47.1257 47.9757C46.5673 47.505 45.7175 47.578 45.2562 48.1461C35.9006 59.4015 30.3407 73.1889 29.151 88.0312C28.2365 99.4733 30.5916 107.556 33.0923 115.249C33.0923 115.273 33.1004 115.306 33.1166 115.33C33.1166 115.33 33.5941 116.685 32.2507 117.083C31.3038 117.367 30.8425 116.742 30.6644 116.377C28.0989 108.465 25.5577 99.6599 26.4965 87.8283C26.6988 85.2396 27.0468 82.6266 27.5162 80.0866C27.6538 79.3644 27.1763 78.6665 26.456 78.5285C25.7357 78.3906 25.0397 78.8694 24.9022 79.5916C24.4085 82.229 24.0605 84.9312 23.842 87.6092C22.7818 100.893 25.8976 110.412 28.7221 119.022C28.7221 119.022 29.1187 120.329 30.4216 119.923L35.3746 118.316C35.3746 118.316 36.7585 117.927 36.1273 116.003H36.1111Z" fill="#E8E0D3"/>
<path d="M59.8402 131.86C61.2079 126.066 60.3662 119.404 57.3961 112.611C52.435 101.267 53.0339 86.7084 53.042 86.538C53.0744 85.7833 52.4917 85.1422 51.739 85.1016C50.9783 85.0692 50.347 85.6534 50.3065 86.4081C50.2742 87.033 49.6591 101.754 54.8872 113.707C57.6227 119.955 58.4158 126.009 57.1775 131.227C55.996 136.218 52.9934 140.494 48.2266 143.992C47.4659 144.552 47.4901 145.704 48.2752 146.224C48.2833 146.224 48.2914 146.232 48.2994 146.24C48.7688 146.548 49.392 146.54 49.8452 146.207C55.1462 142.32 58.4967 137.516 59.8321 131.86H59.8402Z" fill="#E8E0D3"/>
<path d="M34.444 88.4449C33.5537 99.5868 36.6938 109.162 39.2189 116.864C39.2432 116.928 39.2674 117.002 39.2836 117.066L41.8168 116.279C41.7925 116.198 41.7601 116.117 41.7358 116.028C39.2917 108.562 36.2406 99.2622 37.0904 88.6559C37.5355 83.0891 38.6766 77.6845 40.5057 72.499L37.9483 71.7524C36.0788 77.1083 34.8972 82.6995 34.444 88.4368V88.4449Z" fill="#E8E0D3"/>
<path d="M27.3788 74.4629C27.5083 74.4953 27.6216 74.5116 27.743 74.5116C28.3257 74.5116 28.8598 74.1221 29.0217 73.5378C34.1527 55.2142 45.8067 39.9499 61.8796 30.569C66.5493 27.8424 71.8745 26.3979 77.2888 26.3979C78.0172 26.3979 78.616 25.8055 78.616 25.0589C78.616 24.3124 78.0252 23.72 77.2888 23.72C71.4213 23.72 65.6267 25.2862 60.5442 28.2562C43.8806 37.9861 31.7733 53.8184 26.4643 72.8155H26.4562C26.262 73.5215 26.6747 74.26 27.3788 74.4629Z" fill="#E8E0D3"/>
<path d="M63.2309 48.9738V48.9982C63.8136 48.5438 63.9026 47.6917 63.4494 47.1236C62.9962 46.5475 62.1464 46.4582 61.5799 46.9208C49.0275 57.0401 41.072 72.3287 39.7529 88.867C39.6153 90.6199 39.5829 92.4376 39.6638 94.2635C39.6962 94.9857 40.2789 95.5375 40.9911 95.5375H41.0478C41.7761 95.5051 42.3508 94.8883 42.3184 94.1418C42.2374 92.4214 42.2698 90.7173 42.3993 89.0699C43.6537 73.2701 51.2531 58.655 63.239 48.9901L63.2309 48.9738Z" fill="#E8E0D3"/>
<path d="M60.5442 56.9264C59.9939 56.4314 59.1522 56.4801 58.6585 57.0319C50.8487 65.8123 46.0172 77.2788 45.0541 89.2808C44.4957 96.2434 45.9524 102.654 47.741 108.521C47.741 108.521 48.0728 109.99 49.4001 109.56C50.7273 109.146 50.266 107.661 50.266 107.661C48.5746 102.062 47.2068 95.9675 47.7167 89.4999H47.7086C48.6231 78.0821 53.2119 67.1837 60.6494 58.8253C61.1431 58.2735 61.0945 57.4295 60.5442 56.9345V56.9264Z" fill="#E8E0D3"/>
</svg>
