<svg width="223" height="16" viewBox="0 0 223 16" fill="none" xmlns="http://www.w3.org/2000/svg">
<path d="M3.86446 15.4825H0L0.0280033 0.517578H3.46441L3.38974 12.0736L12.7309 0.517578H16.2819L3.86446 15.4825Z" fill="#E8DFD3"/>
<path d="M89.6627 15.4811H75.5717L81.9178 0.520142H85.1982L80.0042 12.7663H90.8149L89.6641 15.4811H89.6627Z" fill="#E8DFD3"/>
<path d="M66.62 15.4811H52.5289L58.8737 0.520142H62.1541L56.9601 12.7663H67.7708L66.62 15.4811Z" fill="#E8DFD3"/>
<path d="M103.418 15.4811H100.027L112.732 0.520142H116.718L116.621 15.4811H113.202L113.219 12.8973H105.677L103.419 15.4811H103.418ZM113.276 3.73311L107.825 10.2473H113.234L113.276 3.73311Z" fill="#E8DFD3"/>
<path d="M133.116 15.8923C131.461 15.8923 130.16 15.572 129.21 14.9299C128.262 14.2878 127.695 13.3889 127.513 12.2293C127.327 11.0709 127.566 9.71675 128.222 8.16798C128.905 6.55825 129.866 5.14958 131.108 3.93936C132.348 2.72915 133.764 1.78744 135.355 1.11553C136.943 0.444918 138.603 0.107666 140.333 0.107666C141.365 0.107666 142.341 0.229596 143.261 0.473454C144.183 0.716016 144.845 1.07532 145.252 1.54747L143.984 4.53604C143.656 4.09243 143.129 3.72404 142.405 3.4283C141.68 3.13255 140.78 2.98468 139.702 2.98468C138.474 2.98468 137.339 3.19871 136.302 3.62676C135.263 4.05611 134.355 4.65667 133.577 5.43235C132.801 6.20803 132.188 7.12639 131.737 8.18874C131.312 9.19141 131.142 10.0553 131.232 10.7791C131.318 11.5016 131.649 12.0555 132.222 12.4394C132.795 12.8221 133.583 13.014 134.584 13.014C135.843 13.014 137.002 12.704 138.062 12.084C139.121 11.464 139.894 10.652 140.381 9.648H134.692L135.898 7.1251H145L144.399 8.54285C143.736 10.1059 142.83 11.4341 141.686 12.5263C140.539 13.6198 139.234 14.4538 137.768 15.0285C136.303 15.6031 134.752 15.891 133.113 15.891L133.116 15.8923Z" fill="#E8DFD3"/>
<path d="M164.986 15.4811H153.09L159.436 0.520142H171.332L170.19 3.21297H161.574L160.091 6.70871H167.657L166.561 9.29258H158.995L157.522 12.7663H166.137L164.986 15.4811Z" fill="#E8DFD3"/>
<path d="M196.173 1.70701C195.457 0.926139 194.111 0.535706 192.136 0.535706H185.366L179.035 15.4643H182.331L184.683 9.91779H186.756L189.013 15.4643H192.978L190.532 9.51828C191.608 9.33668 192.583 8.97867 193.452 8.43388C194.757 7.61799 195.69 6.54657 196.254 5.21702C196.916 3.65788 196.888 2.48658 196.173 1.70701ZM192.746 5.34543C192.47 5.99529 192.036 6.51933 191.444 6.91755C190.853 7.31447 190.083 7.51293 189.131 7.51293H185.702L187.54 3.17924H190.968C191.844 3.17924 192.434 3.36473 192.739 3.73181C193.043 4.1002 193.044 4.6385 192.744 5.34543H192.746Z" fill="#E8DFD3"/>
<path d="M210.757 16C210.08 16 209.417 15.9326 208.766 15.799C208.117 15.6641 207.546 15.4656 207.058 15.2049C206.57 14.9429 206.222 14.6393 206.014 14.2943L207.385 11.0632C207.679 11.5275 208.072 11.9011 208.558 12.1852C209.046 12.4692 209.592 12.6742 210.201 12.8026C210.808 12.9297 211.427 12.9933 212.057 12.9933C213.057 12.9933 213.887 12.8324 214.544 12.5121C215.204 12.1904 215.662 11.7299 215.915 11.1319C216.067 10.7726 216.106 10.4847 216.028 10.2667C215.951 10.0514 215.791 9.88149 215.55 9.76216C215.307 9.64282 215.019 9.54424 214.682 9.4703C214.344 9.39507 213.988 9.32892 213.614 9.26795C212.972 9.14862 212.36 8.99556 211.779 8.80877C211.197 8.62199 210.709 8.36775 210.314 8.04477C209.921 7.72308 209.677 7.30022 209.584 6.77748C209.489 6.25344 209.614 5.58672 209.957 4.77991C210.357 3.8382 210.968 3.00674 211.787 2.28814C212.607 1.56953 213.579 1.00918 214.704 0.604474C215.827 0.202366 217.045 -0.00128174 218.351 -0.00128174C219.073 -0.00128174 219.76 0.0661686 220.409 0.201069C221.061 0.334673 221.617 0.518864 222.08 0.749752C222.543 0.981937 222.849 1.24785 222.999 1.54748L221.657 4.71116C221.429 4.30646 221.09 3.97051 220.644 3.7007C220.197 3.4322 219.692 3.22855 219.126 3.09495C218.559 2.96005 217.977 2.8926 217.378 2.8926C216.502 2.8926 215.734 3.0249 215.078 3.28563C214.42 3.54764 213.963 3.98607 213.703 4.59831C213.487 5.10678 213.579 5.47776 213.98 5.70995C214.382 5.94213 215.095 6.15616 216.119 6.34943C216.635 6.44023 217.181 6.55826 217.755 6.70873C218.331 6.8579 218.841 7.09008 219.284 7.40399C219.726 7.71789 220.006 8.1628 220.125 8.73873C220.241 9.31595 220.094 10.089 219.681 11.0619C219.244 12.0944 218.587 12.9803 217.711 13.721C216.834 14.4616 215.803 15.0272 214.616 15.415C213.428 15.8029 212.143 15.9987 210.759 15.9987L210.757 16Z" fill="#E8DFD3"/>
<path d="M42.2277 0.490295L41.0676 3.22463H35.6309L31.5798 12.7753H37.0164L35.8576 15.5097H30.421H27.0926H21.6559L22.8161 12.7753H28.2527L32.3039 3.22463H26.8672L28.0274 0.490295H42.2277Z" fill="#E8DFD3"/>
</svg>
